<?xml version="1.0" encoding="UTF-8" standalone="no"?>
<!DOCTYPE svg PUBLIC "-//W3C//DTD SVG 1.1//EN" "http://www.w3.org/Graphics/SVG/1.1/DTD/svg11.dtd">
<svg width="100%" height="100%" viewBox="0 0 90 70" version="1.1" xmlns="http://www.w3.org/2000/svg" xmlns:xlink="http://www.w3.org/1999/xlink" xml:space="preserve" style="fill-rule:evenodd;clip-rule:evenodd;stroke-linejoin:round;stroke-miterlimit:1.41421;">
    <g transform="matrix(1,0,0,1,-5.017,-15.038)">
        <g>
            <path d="M27.291,71.879L7.56,71.879C7.362,71.879 7.201,71.719 7.201,71.52L7.201,24.58C7.201,24.382 7.362,24.221 7.56,24.221L34.036,24.221C34.234,24.221 34.395,24.382 34.395,24.58L34.395,51.495L36.279,51.495L36.279,19.196C36.279,17.015 34.511,15.247 32.33,15.247L31.428,15.247C31.371,15.124 31.248,15.038 31.104,15.038L27.664,15.038C27.52,15.038 27.397,15.125 27.34,15.247L9.175,15.247C6.994,15.247 5.226,17.015 5.226,19.196L5.226,24.298C5.103,24.356 5.017,24.478 5.017,24.622L5.017,25.927C5.017,26.071 5.103,26.194 5.226,26.251L5.226,27.768C5.103,27.825 5.017,27.948 5.017,28.092L5.017,29.397C5.017,29.541 5.103,29.664 5.226,29.72L5.226,76.784C5.226,78.966 6.994,80.733 9.175,80.733L27.29,80.733L27.29,71.879L27.291,71.879ZM20.634,17.79C20.964,17.79 21.232,18.058 21.232,18.388C21.232,18.718 20.964,18.987 20.634,18.987C20.303,18.987 20.035,18.718 20.035,18.388C20.036,18.057 20.304,17.79 20.634,17.79ZM18.54,20.602L23.028,20.602C23.226,20.602 23.387,20.763 23.387,20.961C23.387,21.159 23.226,21.319 23.028,21.319L18.54,21.319C18.342,21.319 18.181,21.159 18.181,20.961C18.181,20.763 18.341,20.602 18.54,20.602ZM20.993,79.237C19.278,79.237 17.882,77.842 17.882,76.126C17.882,74.411 19.278,73.015 20.993,73.015C22.709,73.015 24.104,74.411 24.104,76.126C24.104,77.843 22.709,79.237 20.993,79.237Z" style="fill:black;fill-rule:nonzero;"/>
            <path d="M21.007,73.703C19.687,73.703 18.613,74.777 18.613,76.096C18.613,77.416 19.687,78.491 21.007,78.491C22.327,78.491 23.4,77.417 23.4,76.096C23.4,74.777 22.327,73.703 21.007,73.703Z" style="fill:black;fill-rule:nonzero;"/>
        </g>
        <g>
            <circle cx="33.692" cy="68.917" r="2.394" style="fill:black;"/>
            <path d="M94.572,75.265L94.572,57.1C94.572,54.918 92.804,53.152 90.623,53.152L85.521,53.152C85.464,53.028 85.341,52.943 85.198,52.943L83.891,52.943C83.747,52.943 83.624,53.028 83.569,53.152L82.05,53.152C81.992,53.028 81.87,52.943 81.726,52.943L80.422,52.943C80.276,52.943 80.154,53.028 80.097,53.152L33.034,53.152C30.853,53.152 29.085,54.919 29.085,57.1L29.085,80.255C29.085,82.436 30.853,84.204 33.034,84.204L90.623,84.204C92.805,84.204 94.572,82.435 94.572,80.255L94.572,79.354C94.695,79.296 94.781,79.174 94.781,79.029L94.781,75.589C94.781,75.444 94.695,75.321 94.572,75.265ZM33.692,72.028C31.977,72.028 30.581,70.633 30.581,68.917C30.581,67.201 31.977,65.806 33.692,65.806C35.407,65.806 36.803,67.202 36.803,68.917C36.803,70.634 35.407,72.028 33.692,72.028ZM85.598,81.96C85.598,82.159 85.437,82.318 85.239,82.318L38.299,82.318C38.101,82.318 37.94,82.159 37.94,81.96L37.94,55.484C37.94,55.286 38.101,55.125 38.299,55.125L85.238,55.125C85.436,55.125 85.597,55.286 85.597,55.484L85.597,81.96L85.598,81.96ZM89.218,70.951C89.218,71.149 89.057,71.31 88.859,71.31C88.661,71.31 88.5,71.149 88.5,70.951L88.5,66.464C88.5,66.267 88.661,66.106 88.859,66.106C89.057,66.106 89.218,66.267 89.218,66.464L89.218,70.951ZM91.431,69.156C91.101,69.156 90.833,68.889 90.833,68.558C90.833,68.227 91.101,67.959 91.431,67.959C91.762,67.959 92.03,68.227 92.03,68.558C92.03,68.889 91.762,69.156 91.431,69.156Z" style="fill:black;fill-rule:nonzero;"/>
        </g>
        <path d="M63.517,44.91L61.828,46.734C60.869,37.169 55.296,32.619 50.694,30.481C45.571,28.098 40.666,28.141 40.46,28.141L39.931,28.149L39.931,29.584L40.479,29.577C40.525,29.573 45.304,29.544 50.133,31.804C56.189,34.637 59.628,39.645 60.38,46.698L58.653,45.097L58.732,47.162L61.256,49.502L63.596,46.977L63.517,44.91Z" style="fill:black;fill-rule:nonzero;"/>
    </g>
</svg>
