<?xml version="1.0" encoding="UTF-8" standalone="no"?>
<!DOCTYPE svg PUBLIC "-//W3C//DTD SVG 1.1//EN" "http://www.w3.org/Graphics/SVG/1.1/DTD/svg11.dtd">
<svg width="100%" height="100%" viewBox="0 0 580 457" version="1.1" xmlns="http://www.w3.org/2000/svg" xmlns:xlink="http://www.w3.org/1999/xlink" xml:space="preserve" style="fill-rule:evenodd;clip-rule:evenodd;stroke-linecap:round;stroke-linejoin:round;stroke-miterlimit:1.5;">
    <g transform="matrix(1,0,0,1,-571.784,-317.946)">
        <g transform="matrix(3.3958,0,0,2.22073,-284.643,-193.171)">
            <g>
                <g transform="matrix(0.294481,0,0,0.450302,84.2359,117.082)">
                    <path d="M672.595,543.164C672.595,543.669 698.944,542.164 704.595,542.164L703.595,541.164C703.595,551.616 704.595,564.826 704.595,572.164C704.595,576.541 703.204,586.773 705.595,589.164C707.928,591.497 704.261,599.831 706.595,602.164C706.778,602.348 706.822,611.936 705.595,613.164C704.401,614.357 708.888,625.87 706.595,628.164C703.595,631.164 705.595,645.831 705.595,651.164C705.595,662.045 705.098,675.309 704.804,688.266C704.682,693.685 704.595,699.05 704.595,704.164L704.595,705.164C703.062,705.164 692.628,702.131 691.595,703.164C690.041,704.717 685.276,705.249 680.677,705.378C675.546,705.522 670.622,705.164 670.595,705.164L670.595,706.164C670.595,684.842 672.595,664.872 672.595,644.164C672.595,638.831 674.595,624.164 671.595,621.164C668.37,617.939 675.639,599.208 671.595,595.164C671.387,594.956 670.555,559.204 671.595,558.164C673.718,556.04 670.595,539.951 670.595,542.164" style="fill:white;stroke:black;stroke-width:2px;"/>
                </g>
                <g transform="matrix(0.294481,0,0,0.450302,84.66,116.671)">
                    <path d="M1057.6,544.164C1053.35,548.41 1059.46,562.296 1055.6,566.164C1052.97,568.784 1055.6,582.412 1055.6,588.164C1055.6,610.346 1053.6,632.45 1053.6,653.164C1053.6,665.12 1054.6,677.588 1054.6,688.164C1054.6,692.424 1055.6,708.007 1055.6,704.164L1055.6,703.164C1043.99,703.164 1034.83,702.105 1022.6,705.164L1022.6,703.164C1022.6,705.317 1023.33,694.898 1022.6,694.164C1019.35,690.923 1022.6,672.007 1022.6,665.164C1022.6,638.67 1023.6,613.225 1023.6,585.164C1023.6,575.074 1022.6,566.254 1022.6,556.164C1022.6,553.112 1022.83,540.926 1021.6,542.164L1023.6,542.164C1023.6,545.126 1048.27,544.164 1056.6,544.164" style="fill:white;stroke:black;stroke-width:2px;"/>
                </g>
                <g transform="matrix(0.294481,0,0,0.450302,83.8221,86.9852)">
                    <path d="M574.595,641.164C574.595,639.653 592.59,637.662 595.595,639.164C606.389,644.561 658.239,638.164 673.595,638.164C754.725,638.164 827.616,638.164 908.595,638.164C928.999,638.164 949.694,639.164 970.595,639.164C975.978,639.164 988.924,641.835 992.595,638.164C993.598,637.161 1016.47,639.164 1019.6,639.164C1044.52,639.164 1073.68,640.164 1097.6,640.164C1109.05,640.164 1119.31,641.164 1131.6,641.164C1136.26,641.164 1140.93,641.164 1145.6,641.164C1146.25,641.164 1151.14,641.164 1148.6,641.164L1150.05,640.527C1150.05,642.987 1150.05,634.175 1150.05,629.984C1150.05,620.962 1148.73,615.628 1148.73,606.26C1148.73,582.465 1150.05,556.679 1150.05,531.137C1150.05,458.68 1148.73,320.264 1148.73,320.264C1148.73,319.146 1125.65,320.264 1117.1,320.264C1090.49,320.264 1067.64,320.264 1039.34,320.264C1034.51,320.264 1015.19,325.105 1011.66,321.582C1007.58,317.494 987.272,320.264 980.033,320.264C948.175,320.264 924.805,318.946 894.366,318.946C789.792,318.946 672.835,320.239 578.077,320.263C577.189,320.263 576.304,320.264 575.42,320.264C575.42,320.264 574.102,338.952 574.102,342.669C574.102,356.129 574.102,368.393 574.102,383.526C574.102,386.676 572.097,401.29 574.102,403.295C576.924,406.117 572.051,431.557 575.42,434.926C576.738,436.244 579.484,462.493 576.738,465.239C573.185,468.792 575.42,485.199 575.42,491.598C575.42,517.236 574.102,541.908 574.102,564.086C574.102,581.658 574.102,599.231 574.102,616.804C574.102,623.959 572.784,627.479 572.784,633.937C572.784,635.496 572.784,643.274 572.784,640.527" style="fill:white;stroke:black;stroke-width:2px;"/>
                </g>
            </g>
        </g>
    </g>
</svg>
