<?xml version="1.0" encoding="UTF-8" standalone="no"?>
<!DOCTYPE svg PUBLIC "-//W3C//DTD SVG 1.1//EN" "http://www.w3.org/Graphics/SVG/1.1/DTD/svg11.dtd">
<svg width="100%" height="100%" viewBox="0 0 268 76" version="1.1" xmlns="http://www.w3.org/2000/svg" xmlns:xlink="http://www.w3.org/1999/xlink" xml:space="preserve" style="fill-rule:evenodd;clip-rule:evenodd;stroke-linecap:round;stroke-linejoin:round;stroke-miterlimit:1.5;">
    <g transform="matrix(1,0,0,1,-281.667,-356.073)">
        <g transform="matrix(3.3958,0,0,2.22073,-284.643,-193.171)">
            <g transform="matrix(1,0,0,1,-0.490529,-12.3326)">
                <g transform="matrix(0.294481,0,0,0.450302,83.8221,86.9852)">
                    <path d="M342.667,435.333C342.363,439.278 342.552,446.897 340.667,450.667C340.042,451.916 336.593,457.26 337.333,458C337.939,458.606 342.344,453.656 342.667,453.333C346.621,449.379 354,439.91 354,434.667" style="fill:none;stroke:black;stroke-width:2px;"/>
                </g>
                <g transform="matrix(0.294481,0,0,0.450302,83.8221,86.9852)">
                    <path d="M340.667,434C329.818,432.858 319.051,433.333 309.333,433.333C306.816,433.333 300.722,434.055 299.333,432.667C298.074,431.408 294.273,431.606 292.667,430C290.535,427.868 288.261,423.595 286,421.333C281.018,416.351 288.588,403.412 290.667,401.333C292.111,399.889 292.556,397.444 294,396C295.585,394.415 299.493,394.507 300.667,393.333C303.804,390.196 308.572,392.381 313.333,390C321.488,385.923 334.828,386 344.667,386C352.444,386 360.222,386 368,386C370.236,386 375.376,386.979 377.333,386C380.979,384.177 387.722,385.333 392,385.333C399.959,385.333 420.628,382.981 426.667,386C429.255,387.294 433.336,385.334 436,386.667C438.828,388.081 446.101,386.667 449.333,386.667C458.647,386.667 466.589,388.667 475.333,388.667C478.889,388.667 488.667,387.333 490.667,389.333C492.889,391.556 501.778,387.111 504,389.333C506.241,391.575 524.115,388.781 526,390.667C529.151,393.817 537.628,390.962 541.333,394.667C546.549,399.882 554.343,413.657 546,422C530.684,437.316 491.224,436 464.667,436C458.849,436 438.886,432.89 434,435.333C427.557,438.555 417.035,433.483 410.667,436.667C406.768,438.616 397.688,436.667 392.667,436.667C377.972,436.667 367.463,435.333 353.333,435.333" style="fill:none;stroke:black;stroke-width:2px;"/>
                </g>
            </g>
        </g>
    </g>
</svg>
