<?xml version="1.0" encoding="UTF-8" standalone="no"?>
<!DOCTYPE svg PUBLIC "-//W3C//DTD SVG 1.1//EN" "http://www.w3.org/Graphics/SVG/1.1/DTD/svg11.dtd">
<svg width="100%" height="100%" viewBox="0 0 402 21" version="1.1" xmlns="http://www.w3.org/2000/svg" xmlns:xlink="http://www.w3.org/1999/xlink" xml:space="preserve" style="fill-rule:evenodd;clip-rule:evenodd;stroke-linejoin:round;stroke-miterlimit:1.41421;">
    <g transform="matrix(1,0,0,1,-528,-266.089)">
        <g transform="matrix(3.3958,0,0,2.22073,-284.643,-193.171)">
            <g transform="matrix(0.294481,0,0,0.450302,192.296,81.6854)">
                <path d="M168.001,286.999L160.126,283.225C159.876,283.108 159.724,282.961 159.669,282.786C159.614,282.61 159.653,282.385 159.786,282.112C159.919,281.854 160.071,281.696 160.243,281.637C160.415,281.579 160.622,281.608 160.864,281.725L169.97,286.19C170.157,286.284 170.296,286.391 170.386,286.512C170.476,286.633 170.52,286.795 170.52,286.999C170.52,287.202 170.476,287.364 170.386,287.485C170.296,287.606 170.157,287.713 169.97,287.807L160.864,292.272C160.622,292.389 160.415,292.418 160.243,292.36C160.071,292.301 159.919,292.143 159.786,291.885C159.653,291.612 159.614,291.387 159.669,291.211C159.724,291.036 159.876,290.889 160.126,290.772L168.001,286.999Z" style="fill-rule:nonzero;"/>
                <path d="M175.841,293.327C175.841,293.6 175.776,293.795 175.647,293.913C175.519,294.03 175.29,294.088 174.962,294.088C174.634,294.088 174.405,294.03 174.276,293.913C174.147,293.795 174.083,293.6 174.083,293.327L174.083,290.514C174.083,290.241 174.147,290.045 174.276,289.928C174.405,289.811 174.634,289.752 174.962,289.752C175.134,289.752 175.267,289.792 175.36,289.87C175.454,289.948 175.532,290.069 175.595,290.233C175.884,290.991 176.356,291.54 177.013,291.879C177.669,292.219 178.54,292.389 179.626,292.389C180.563,292.389 181.267,292.223 181.735,291.891C182.204,291.559 182.438,291.124 182.438,290.584C182.438,290.303 182.349,290.079 182.169,289.911C181.989,289.743 181.747,289.608 181.442,289.506C181.099,289.389 180.7,289.303 180.247,289.249C179.794,289.194 179.317,289.139 178.817,289.084C178.317,289.03 177.819,288.959 177.323,288.874C176.827,288.788 176.368,288.663 175.946,288.499C175.681,288.397 175.438,288.272 175.22,288.124C175.001,287.975 174.812,287.799 174.651,287.596C174.491,287.393 174.366,287.159 174.276,286.893C174.187,286.627 174.142,286.323 174.142,285.979C174.142,285.456 174.247,284.993 174.458,284.59C174.669,284.188 174.96,283.85 175.331,283.577C175.702,283.303 176.14,283.096 176.644,282.956C177.147,282.815 177.696,282.745 178.29,282.745C179.071,282.745 179.772,282.86 180.394,283.09C181.015,283.321 181.548,283.635 181.993,284.034L181.993,283.506C181.993,283.233 182.058,283.038 182.187,282.92C182.315,282.803 182.544,282.745 182.872,282.745C183.2,282.745 183.429,282.803 183.558,282.92C183.687,283.038 183.751,283.233 183.751,283.506L183.751,285.733C183.751,286.006 183.687,286.202 183.558,286.319C183.429,286.436 183.2,286.495 182.872,286.495C182.606,286.495 182.419,286.393 182.31,286.19C182.13,285.854 181.913,285.573 181.659,285.346C181.405,285.12 181.112,284.94 180.78,284.807C180.448,284.674 180.083,284.581 179.685,284.526C179.286,284.471 178.86,284.444 178.407,284.444C177.649,284.444 177.058,284.577 176.632,284.842C176.206,285.108 175.993,285.487 175.993,285.979C175.993,286.237 176.077,286.444 176.245,286.6C176.413,286.756 176.645,286.881 176.942,286.975C177.27,287.084 177.653,287.165 178.091,287.215C178.528,287.266 178.989,287.317 179.474,287.368C179.958,287.418 180.446,287.481 180.938,287.555C181.431,287.629 181.888,287.745 182.31,287.901C182.599,288.01 182.864,288.141 183.106,288.293C183.349,288.446 183.558,288.629 183.733,288.844C183.909,289.059 184.046,289.309 184.144,289.594C184.241,289.879 184.29,290.209 184.29,290.584C184.29,291.108 184.19,291.584 183.991,292.014C183.792,292.444 183.499,292.813 183.112,293.122C182.726,293.43 182.249,293.668 181.683,293.836C181.116,294.004 180.47,294.088 179.743,294.088C178.892,294.088 178.147,293.971 177.511,293.737C176.874,293.502 176.317,293.147 175.841,292.67L175.841,293.327Z" style="fill-rule:nonzero;"/>
                <path d="M190.864,283.94L190.864,280.424C190.864,280.151 190.929,279.956 191.058,279.838C191.187,279.721 191.415,279.663 191.743,279.663C192.071,279.663 192.3,279.721 192.429,279.838C192.558,279.956 192.622,280.151 192.622,280.424L192.622,283.94L197.438,283.94C197.704,283.94 197.894,283.999 198.007,284.116C198.12,284.233 198.177,284.44 198.177,284.737C198.177,285.034 198.12,285.241 198.007,285.358C197.894,285.475 197.704,285.534 197.438,285.534L192.622,285.534L192.622,289.799C192.622,290.229 192.657,290.606 192.728,290.93C192.798,291.254 192.913,291.524 193.073,291.739C193.233,291.954 193.446,292.114 193.712,292.219C193.978,292.325 194.306,292.377 194.696,292.377C195.243,292.377 195.806,292.268 196.384,292.049C196.962,291.831 197.509,291.553 198.024,291.217C198.204,291.1 198.386,291.071 198.569,291.129C198.753,291.188 198.919,291.358 199.067,291.639C199.216,291.92 199.263,292.149 199.208,292.325C199.153,292.5 199.028,292.651 198.833,292.776C198.536,292.963 198.218,293.137 197.878,293.297C197.538,293.458 197.188,293.596 196.829,293.713C196.47,293.831 196.108,293.922 195.745,293.989C195.382,294.055 195.032,294.088 194.696,294.088C194.017,294.088 193.435,293.999 192.95,293.819C192.466,293.639 192.069,293.375 191.761,293.028C191.452,292.68 191.226,292.249 191.081,291.733C190.937,291.217 190.864,290.624 190.864,289.952L190.864,285.534L188.485,285.534C188.22,285.534 188.03,285.475 187.917,285.358C187.804,285.241 187.747,285.034 187.747,284.737C187.747,284.44 187.804,284.233 187.917,284.116C188.03,283.999 188.22,283.94 188.485,283.94L190.864,283.94Z" style="fill-rule:nonzero;"/>
                <path d="M213.435,292.237C213.7,292.237 213.89,292.295 214.003,292.413C214.116,292.53 214.173,292.737 214.173,293.034C214.173,293.331 214.116,293.538 214.003,293.655C213.89,293.772 213.7,293.831 213.435,293.831L211.571,293.831C211.306,293.831 211.116,293.774 211.003,293.661C210.89,293.547 210.833,293.342 210.833,293.045L210.833,291.627C210.317,292.432 209.716,293.043 209.028,293.461C208.341,293.879 207.595,294.088 206.79,294.088C206.251,294.088 205.767,293.999 205.337,293.819C204.907,293.639 204.542,293.385 204.241,293.057C203.94,292.729 203.71,292.329 203.55,291.856C203.39,291.383 203.31,290.854 203.31,290.268L203.31,284.596L202.349,284.596C202.083,284.596 201.894,284.538 201.78,284.42C201.667,284.303 201.61,284.096 201.61,283.799C201.61,283.502 201.667,283.295 201.78,283.178C201.894,283.061 202.083,283.002 202.349,283.002L204.329,283.002C204.595,283.002 204.784,283.061 204.897,283.178C205.011,283.295 205.067,283.502 205.067,283.799L205.067,290.092C205.067,290.428 205.106,290.735 205.185,291.012C205.263,291.29 205.38,291.528 205.536,291.727C205.692,291.926 205.89,292.081 206.128,292.19C206.366,292.299 206.645,292.354 206.966,292.354C207.466,292.354 207.942,292.245 208.395,292.026C208.849,291.807 209.247,291.502 209.591,291.112C209.935,290.721 210.208,290.256 210.411,289.717C210.614,289.178 210.716,288.588 210.716,287.948L210.716,284.596L209.052,284.596C208.786,284.596 208.597,284.538 208.483,284.42C208.37,284.303 208.313,284.096 208.313,283.799C208.313,283.502 208.37,283.295 208.483,283.178C208.597,283.061 208.786,283.002 209.052,283.002L211.735,283.002C212.001,283.002 212.19,283.061 212.304,283.178C212.417,283.295 212.474,283.502 212.474,283.799L212.474,292.237L213.435,292.237Z" style="fill-rule:nonzero;"/>
                <path d="M220.407,283.94L220.407,282.499C220.407,281.858 220.499,281.284 220.683,280.776C220.866,280.268 221.134,279.838 221.485,279.487C221.837,279.135 222.269,278.866 222.78,278.678C223.292,278.491 223.876,278.397 224.532,278.397C225.087,278.397 225.628,278.452 226.155,278.561C226.683,278.67 227.181,278.815 227.649,278.995C227.86,279.081 228.019,279.208 228.124,279.375C228.229,279.543 228.247,279.776 228.177,280.073C228.099,280.393 227.985,280.594 227.837,280.676C227.688,280.758 227.513,280.76 227.31,280.682C226.849,280.502 226.388,280.362 225.927,280.26C225.466,280.159 225.001,280.108 224.532,280.108C223.704,280.108 223.103,280.331 222.728,280.776C222.353,281.221 222.165,281.846 222.165,282.651L222.165,283.94L226.22,283.94C226.485,283.94 226.675,283.999 226.788,284.116C226.901,284.233 226.958,284.44 226.958,284.737C226.958,285.034 226.901,285.241 226.788,285.358C226.675,285.475 226.485,285.534 226.22,285.534L222.165,285.534L222.165,292.237L226.22,292.237C226.485,292.237 226.675,292.295 226.788,292.413C226.901,292.53 226.958,292.737 226.958,293.034C226.958,293.331 226.901,293.538 226.788,293.655C226.675,293.772 226.485,293.831 226.22,293.831L218.087,293.831C217.821,293.831 217.632,293.772 217.519,293.655C217.405,293.538 217.349,293.331 217.349,293.034C217.349,292.737 217.405,292.53 217.519,292.413C217.632,292.295 217.821,292.237 218.087,292.237L220.407,292.237L220.407,285.534L218.087,285.534C217.821,285.534 217.632,285.475 217.519,285.358C217.405,285.241 217.349,285.034 217.349,284.737C217.349,284.44 217.405,284.233 217.519,284.116C217.632,283.999 217.821,283.94 218.087,283.94L220.407,283.94Z" style="fill-rule:nonzero;"/>
                <path d="M234.798,283.94L234.798,282.499C234.798,281.858 234.89,281.284 235.073,280.776C235.257,280.268 235.524,279.838 235.876,279.487C236.228,279.135 236.659,278.866 237.171,278.678C237.683,278.491 238.267,278.397 238.923,278.397C239.478,278.397 240.019,278.452 240.546,278.561C241.073,278.67 241.571,278.815 242.04,278.995C242.251,279.081 242.409,279.208 242.515,279.375C242.62,279.543 242.638,279.776 242.567,280.073C242.489,280.393 242.376,280.594 242.228,280.676C242.079,280.758 241.903,280.76 241.7,280.682C241.239,280.502 240.778,280.362 240.317,280.26C239.856,280.159 239.392,280.108 238.923,280.108C238.095,280.108 237.493,280.331 237.118,280.776C236.743,281.221 236.556,281.846 236.556,282.651L236.556,283.94L240.61,283.94C240.876,283.94 241.065,283.999 241.179,284.116C241.292,284.233 241.349,284.44 241.349,284.737C241.349,285.034 241.292,285.241 241.179,285.358C241.065,285.475 240.876,285.534 240.61,285.534L236.556,285.534L236.556,292.237L240.61,292.237C240.876,292.237 241.065,292.295 241.179,292.413C241.292,292.53 241.349,292.737 241.349,293.034C241.349,293.331 241.292,293.538 241.179,293.655C241.065,293.772 240.876,293.831 240.61,293.831L232.478,293.831C232.212,293.831 232.022,293.772 231.909,293.655C231.796,293.538 231.739,293.331 231.739,293.034C231.739,292.737 231.796,292.53 231.909,292.413C232.022,292.295 232.212,292.237 232.478,292.237L234.798,292.237L234.798,285.534L232.478,285.534C232.212,285.534 232.022,285.475 231.909,285.358C231.796,285.241 231.739,285.034 231.739,284.737C231.739,284.44 231.796,284.233 231.909,284.116C232.022,283.999 232.212,283.94 232.478,283.94L234.798,283.94Z" style="fill-rule:nonzero;"/>
                <path d="M262.817,283.94L262.817,280.424C262.817,280.151 262.882,279.956 263.011,279.838C263.14,279.721 263.368,279.663 263.696,279.663C264.024,279.663 264.253,279.721 264.382,279.838C264.511,279.956 264.575,280.151 264.575,280.424L264.575,283.94L269.392,283.94C269.657,283.94 269.847,283.999 269.96,284.116C270.073,284.233 270.13,284.44 270.13,284.737C270.13,285.034 270.073,285.241 269.96,285.358C269.847,285.475 269.657,285.534 269.392,285.534L264.575,285.534L264.575,289.799C264.575,290.229 264.61,290.606 264.681,290.93C264.751,291.254 264.866,291.524 265.026,291.739C265.187,291.954 265.399,292.114 265.665,292.219C265.931,292.325 266.259,292.377 266.649,292.377C267.196,292.377 267.759,292.268 268.337,292.049C268.915,291.831 269.462,291.553 269.978,291.217C270.157,291.1 270.339,291.071 270.522,291.129C270.706,291.188 270.872,291.358 271.02,291.639C271.169,291.92 271.216,292.149 271.161,292.325C271.106,292.5 270.981,292.651 270.786,292.776C270.489,292.963 270.171,293.137 269.831,293.297C269.491,293.458 269.142,293.596 268.782,293.713C268.423,293.831 268.062,293.922 267.698,293.989C267.335,294.055 266.985,294.088 266.649,294.088C265.97,294.088 265.388,293.999 264.903,293.819C264.419,293.639 264.022,293.375 263.714,293.028C263.405,292.68 263.179,292.249 263.034,291.733C262.89,291.217 262.817,290.624 262.817,289.952L262.817,285.534L260.438,285.534C260.173,285.534 259.983,285.475 259.87,285.358C259.757,285.241 259.7,285.034 259.7,284.737C259.7,284.44 259.757,284.233 259.87,284.116C259.983,283.999 260.173,283.94 260.438,283.94L262.817,283.94Z" style="fill-rule:nonzero;"/>
                <path d="M275.438,280.049L274.36,280.049C274.095,280.049 273.905,279.991 273.792,279.874C273.679,279.756 273.622,279.549 273.622,279.252C273.622,278.956 273.679,278.749 273.792,278.631C273.905,278.514 274.095,278.456 274.36,278.456L276.458,278.456C276.724,278.456 276.913,278.514 277.026,278.631C277.14,278.749 277.196,278.956 277.196,279.252L277.196,285.088C277.704,284.331 278.29,283.75 278.954,283.348C279.618,282.946 280.341,282.745 281.122,282.745C281.661,282.745 282.145,282.834 282.575,283.014C283.005,283.194 283.37,283.448 283.671,283.776C283.972,284.104 284.202,284.504 284.362,284.977C284.522,285.45 284.603,285.979 284.603,286.565L284.603,292.237L285.563,292.237C285.829,292.237 286.019,292.295 286.132,292.413C286.245,292.53 286.302,292.737 286.302,293.034C286.302,293.331 286.245,293.538 286.132,293.655C286.019,293.772 285.829,293.831 285.563,293.831L281.767,293.831C281.501,293.831 281.312,293.772 281.198,293.655C281.085,293.538 281.028,293.331 281.028,293.034C281.028,292.737 281.085,292.53 281.198,292.413C281.312,292.295 281.501,292.237 281.767,292.237L282.845,292.237L282.845,286.741C282.845,286.405 282.806,286.098 282.728,285.821C282.649,285.543 282.532,285.305 282.376,285.106C282.22,284.907 282.022,284.752 281.784,284.643C281.546,284.534 281.267,284.479 280.946,284.479C280.446,284.479 279.97,284.588 279.517,284.807C279.063,285.026 278.665,285.331 278.321,285.721C277.978,286.112 277.704,286.577 277.501,287.116C277.298,287.655 277.196,288.245 277.196,288.885L277.196,292.237L278.274,292.237C278.54,292.237 278.729,292.295 278.843,292.413C278.956,292.53 279.013,292.737 279.013,293.034C279.013,293.331 278.956,293.538 278.843,293.655C278.729,293.772 278.54,293.831 278.274,293.831L274.478,293.831C274.212,293.831 274.022,293.772 273.909,293.655C273.796,293.538 273.739,293.331 273.739,293.034C273.739,292.737 273.796,292.53 273.909,292.413C274.022,292.295 274.212,292.237 274.478,292.237L275.438,292.237L275.438,280.049Z" style="fill-rule:nonzero;"/>
                <path d="M299.942,292.237C300.208,292.237 300.397,292.295 300.511,292.413C300.624,292.53 300.681,292.737 300.681,293.034C300.681,293.331 300.624,293.538 300.511,293.655C300.397,293.772 300.208,293.831 299.942,293.831L299.192,293.831C298.95,293.831 298.72,293.801 298.501,293.743C298.282,293.684 298.085,293.592 297.909,293.467C297.733,293.342 297.581,293.186 297.452,292.999C297.323,292.811 297.231,292.588 297.177,292.331C296.56,292.87 295.88,293.297 295.138,293.614C294.395,293.93 293.591,294.088 292.724,294.088C292.138,294.088 291.599,294.012 291.106,293.86C290.614,293.708 290.188,293.485 289.829,293.192C289.47,292.899 289.19,292.542 288.991,292.12C288.792,291.698 288.692,291.213 288.692,290.667C288.692,290.01 288.819,289.452 289.073,288.991C289.327,288.53 289.671,288.157 290.104,287.872C290.538,287.586 291.042,287.377 291.616,287.245C292.19,287.112 292.798,287.045 293.438,287.045C294.071,287.045 294.685,287.096 295.278,287.198C295.872,287.299 296.446,287.448 297.001,287.643L297.001,286.647C297.001,285.889 296.819,285.333 296.456,284.977C296.093,284.622 295.47,284.444 294.587,284.444C293.954,284.444 293.319,284.528 292.683,284.696C292.046,284.864 291.481,285.124 290.989,285.475C290.81,285.608 290.626,285.655 290.438,285.616C290.251,285.577 290.071,285.436 289.899,285.194C289.728,284.952 289.659,284.735 289.694,284.543C289.729,284.352 289.837,284.19 290.017,284.057C290.321,283.831 290.657,283.633 291.024,283.465C291.392,283.297 291.772,283.161 292.167,283.055C292.562,282.95 292.964,282.872 293.374,282.821C293.784,282.77 294.188,282.745 294.587,282.745C295.985,282.745 297.03,283.073 297.722,283.729C298.413,284.385 298.759,285.358 298.759,286.647L298.759,291.311C298.759,291.928 299.017,292.237 299.532,292.237L299.942,292.237ZM297.001,289.225C296.462,289.045 295.888,288.913 295.278,288.827C294.669,288.741 294.06,288.698 293.45,288.698C293.028,288.698 292.64,288.733 292.284,288.803C291.929,288.874 291.622,288.985 291.364,289.137C291.106,289.29 290.905,289.489 290.761,289.735C290.616,289.981 290.544,290.28 290.544,290.631C290.544,291.202 290.741,291.645 291.136,291.961C291.53,292.278 292.083,292.436 292.794,292.436C293.63,292.436 294.395,292.262 295.091,291.915C295.786,291.567 296.423,291.096 297.001,290.502L297.001,289.225Z" style="fill-rule:nonzero;"/>
                <path d="M305.989,283.94L305.989,280.424C305.989,280.151 306.054,279.956 306.183,279.838C306.312,279.721 306.54,279.663 306.868,279.663C307.196,279.663 307.425,279.721 307.554,279.838C307.683,279.956 307.747,280.151 307.747,280.424L307.747,283.94L312.563,283.94C312.829,283.94 313.019,283.999 313.132,284.116C313.245,284.233 313.302,284.44 313.302,284.737C313.302,285.034 313.245,285.241 313.132,285.358C313.019,285.475 312.829,285.534 312.563,285.534L307.747,285.534L307.747,289.799C307.747,290.229 307.782,290.606 307.853,290.93C307.923,291.254 308.038,291.524 308.198,291.739C308.358,291.954 308.571,292.114 308.837,292.219C309.103,292.325 309.431,292.377 309.821,292.377C310.368,292.377 310.931,292.268 311.509,292.049C312.087,291.831 312.634,291.553 313.149,291.217C313.329,291.1 313.511,291.071 313.694,291.129C313.878,291.188 314.044,291.358 314.192,291.639C314.341,291.92 314.388,292.149 314.333,292.325C314.278,292.5 314.153,292.651 313.958,292.776C313.661,292.963 313.343,293.137 313.003,293.297C312.663,293.458 312.313,293.596 311.954,293.713C311.595,293.831 311.233,293.922 310.87,293.989C310.507,294.055 310.157,294.088 309.821,294.088C309.142,294.088 308.56,293.999 308.075,293.819C307.591,293.639 307.194,293.375 306.886,293.028C306.577,292.68 306.351,292.249 306.206,291.733C306.062,291.217 305.989,290.624 305.989,289.952L305.989,285.534L303.61,285.534C303.345,285.534 303.155,285.475 303.042,285.358C302.929,285.241 302.872,285.034 302.872,284.737C302.872,284.44 302.929,284.233 303.042,284.116C303.155,283.999 303.345,283.94 303.61,283.94L305.989,283.94Z" style="fill-rule:nonzero;"/>
                <path d="M336.763,280.049L333.563,280.049C333.298,280.049 333.108,279.991 332.995,279.874C332.882,279.756 332.825,279.549 332.825,279.252C332.825,278.956 332.882,278.749 332.995,278.631C333.108,278.514 333.298,278.456 333.563,278.456L337.782,278.456C338.048,278.456 338.237,278.514 338.351,278.631C338.464,278.749 338.52,278.956 338.52,279.252L338.52,292.237L342.282,292.237C342.548,292.237 342.737,292.295 342.851,292.413C342.964,292.53 343.02,292.737 343.02,293.034C343.02,293.331 342.964,293.538 342.851,293.655C342.737,293.772 342.548,293.831 342.282,293.831L333.095,293.831C332.829,293.831 332.64,293.772 332.526,293.655C332.413,293.538 332.356,293.331 332.356,293.034C332.356,292.737 332.413,292.53 332.526,292.413C332.64,292.295 332.829,292.237 333.095,292.237L336.763,292.237L336.763,280.049Z" style="fill-rule:nonzero;"/>
                <path d="M346.079,288.417C346.079,287.588 346.226,286.829 346.519,286.137C346.812,285.446 347.216,284.848 347.731,284.344C348.247,283.84 348.858,283.448 349.565,283.167C350.272,282.885 351.04,282.745 351.868,282.745C352.696,282.745 353.464,282.885 354.171,283.167C354.878,283.448 355.489,283.84 356.005,284.344C356.52,284.848 356.925,285.446 357.218,286.137C357.511,286.829 357.657,287.588 357.657,288.417C357.657,289.245 357.511,290.004 357.218,290.696C356.925,291.387 356.52,291.985 356.005,292.489C355.489,292.993 354.878,293.385 354.171,293.667C353.464,293.948 352.696,294.088 351.868,294.088C351.04,294.088 350.272,293.948 349.565,293.667C348.858,293.385 348.247,292.993 347.731,292.489C347.216,291.985 346.812,291.387 346.519,290.696C346.226,290.004 346.079,289.245 346.079,288.417ZM347.931,288.417C347.931,288.987 348.026,289.512 348.218,289.993C348.409,290.473 348.677,290.889 349.02,291.241C349.364,291.592 349.778,291.866 350.263,292.061C350.747,292.256 351.282,292.354 351.868,292.354C352.454,292.354 352.989,292.256 353.474,292.061C353.958,291.866 354.372,291.592 354.716,291.241C355.06,290.889 355.327,290.473 355.519,289.993C355.71,289.512 355.806,288.987 355.806,288.417C355.806,287.846 355.71,287.321 355.519,286.84C355.327,286.36 355.06,285.944 354.716,285.592C354.372,285.241 353.958,284.967 353.474,284.772C352.989,284.577 352.454,284.479 351.868,284.479C351.282,284.479 350.747,284.577 350.263,284.772C349.778,284.967 349.364,285.241 349.02,285.592C348.677,285.944 348.409,286.36 348.218,286.84C348.026,287.321 347.931,287.846 347.931,288.417Z" style="fill-rule:nonzero;"/>
                <path d="M360.47,288.417C360.47,287.588 360.616,286.829 360.909,286.137C361.202,285.446 361.606,284.848 362.122,284.344C362.638,283.84 363.249,283.448 363.956,283.167C364.663,282.885 365.431,282.745 366.259,282.745C367.087,282.745 367.854,282.885 368.562,283.167C369.269,283.448 369.88,283.84 370.395,284.344C370.911,284.848 371.315,285.446 371.608,286.137C371.901,286.829 372.048,287.588 372.048,288.417C372.048,289.245 371.901,290.004 371.608,290.696C371.315,291.387 370.911,291.985 370.395,292.489C369.88,292.993 369.269,293.385 368.562,293.667C367.854,293.948 367.087,294.088 366.259,294.088C365.431,294.088 364.663,293.948 363.956,293.667C363.249,293.385 362.638,292.993 362.122,292.489C361.606,291.985 361.202,291.387 360.909,290.696C360.616,290.004 360.47,289.245 360.47,288.417ZM362.321,288.417C362.321,288.987 362.417,289.512 362.608,289.993C362.8,290.473 363.067,290.889 363.411,291.241C363.755,291.592 364.169,291.866 364.653,292.061C365.138,292.256 365.673,292.354 366.259,292.354C366.845,292.354 367.38,292.256 367.864,292.061C368.349,291.866 368.763,291.592 369.106,291.241C369.45,290.889 369.718,290.473 369.909,289.993C370.101,289.512 370.196,288.987 370.196,288.417C370.196,287.846 370.101,287.321 369.909,286.84C369.718,286.36 369.45,285.944 369.106,285.592C368.763,285.241 368.349,284.967 367.864,284.772C367.38,284.577 366.845,284.479 366.259,284.479C365.673,284.479 365.138,284.577 364.653,284.772C364.169,284.967 363.755,285.241 363.411,285.592C363.067,285.944 362.8,286.36 362.608,286.84C362.417,287.321 362.321,287.846 362.321,288.417Z" style="fill-rule:nonzero;"/>
                <path d="M377.532,278.456C377.798,278.456 377.987,278.514 378.101,278.631C378.214,278.749 378.27,278.956 378.27,279.252L378.27,288.534L382.735,284.596L381.903,284.596C381.638,284.596 381.448,284.538 381.335,284.42C381.222,284.303 381.165,284.096 381.165,283.799C381.165,283.502 381.222,283.295 381.335,283.178C381.448,283.061 381.638,283.002 381.903,283.002L385.817,283.002C386.083,283.002 386.272,283.061 386.386,283.178C386.499,283.295 386.556,283.502 386.556,283.799C386.556,284.096 386.499,284.303 386.386,284.42C386.272,284.538 386.083,284.596 385.817,284.596L385.126,284.596L381.681,287.631L385.618,292.237L386.298,292.237C386.563,292.237 386.753,292.295 386.866,292.413C386.979,292.53 387.036,292.737 387.036,293.034C387.036,293.331 386.979,293.538 386.866,293.655C386.753,293.772 386.563,293.831 386.298,293.831L382.384,293.831C382.118,293.831 381.929,293.772 381.815,293.655C381.702,293.538 381.645,293.331 381.645,293.034C381.645,292.737 381.702,292.53 381.815,292.413C381.929,292.295 382.118,292.237 382.384,292.237L383.345,292.237L380.403,288.745L378.27,290.62L378.27,292.237L379.009,292.237C379.274,292.237 379.464,292.295 379.577,292.413C379.69,292.53 379.747,292.737 379.747,293.034C379.747,293.331 379.69,293.538 379.577,293.655C379.464,293.772 379.274,293.831 379.009,293.831L375.212,293.831C374.946,293.831 374.757,293.772 374.644,293.655C374.53,293.538 374.474,293.331 374.474,293.034C374.474,292.737 374.53,292.53 374.644,292.413C374.757,292.295 374.946,292.237 375.212,292.237L376.513,292.237L376.513,280.049L374.978,280.049C374.712,280.049 374.522,279.991 374.409,279.874C374.296,279.756 374.239,279.549 374.239,279.252C374.239,278.956 374.296,278.749 374.409,278.631C374.522,278.514 374.712,278.456 374.978,278.456L377.532,278.456Z" style="fill-rule:nonzero;"/>
                <path d="M391.7,293.327C391.7,293.6 391.636,293.795 391.507,293.913C391.378,294.03 391.149,294.088 390.821,294.088C390.493,294.088 390.265,294.03 390.136,293.913C390.007,293.795 389.942,293.6 389.942,293.327L389.942,290.514C389.942,290.241 390.007,290.045 390.136,289.928C390.265,289.811 390.493,289.752 390.821,289.752C390.993,289.752 391.126,289.792 391.22,289.87C391.313,289.948 391.392,290.069 391.454,290.233C391.743,290.991 392.216,291.54 392.872,291.879C393.528,292.219 394.399,292.389 395.485,292.389C396.423,292.389 397.126,292.223 397.595,291.891C398.063,291.559 398.298,291.124 398.298,290.584C398.298,290.303 398.208,290.079 398.028,289.911C397.849,289.743 397.606,289.608 397.302,289.506C396.958,289.389 396.56,289.303 396.106,289.249C395.653,289.194 395.177,289.139 394.677,289.084C394.177,289.03 393.679,288.959 393.183,288.874C392.687,288.788 392.228,288.663 391.806,288.499C391.54,288.397 391.298,288.272 391.079,288.124C390.86,287.975 390.671,287.799 390.511,287.596C390.351,287.393 390.226,287.159 390.136,286.893C390.046,286.627 390.001,286.323 390.001,285.979C390.001,285.456 390.106,284.993 390.317,284.59C390.528,284.188 390.819,283.85 391.19,283.577C391.562,283.303 391.999,283.096 392.503,282.956C393.007,282.815 393.556,282.745 394.149,282.745C394.931,282.745 395.632,282.86 396.253,283.09C396.874,283.321 397.407,283.635 397.853,284.034L397.853,283.506C397.853,283.233 397.917,283.038 398.046,282.92C398.175,282.803 398.403,282.745 398.731,282.745C399.06,282.745 399.288,282.803 399.417,282.92C399.546,283.038 399.61,283.233 399.61,283.506L399.61,285.733C399.61,286.006 399.546,286.202 399.417,286.319C399.288,286.436 399.06,286.495 398.731,286.495C398.466,286.495 398.278,286.393 398.169,286.19C397.989,285.854 397.772,285.573 397.519,285.346C397.265,285.12 396.972,284.94 396.64,284.807C396.308,284.674 395.942,284.581 395.544,284.526C395.145,284.471 394.72,284.444 394.267,284.444C393.509,284.444 392.917,284.577 392.491,284.842C392.065,285.108 391.853,285.487 391.853,285.979C391.853,286.237 391.937,286.444 392.104,286.6C392.272,286.756 392.505,286.881 392.802,286.975C393.13,287.084 393.513,287.165 393.95,287.215C394.388,287.266 394.849,287.317 395.333,287.368C395.817,287.418 396.306,287.481 396.798,287.555C397.29,287.629 397.747,287.745 398.169,287.901C398.458,288.01 398.724,288.141 398.966,288.293C399.208,288.446 399.417,288.629 399.593,288.844C399.769,289.059 399.905,289.309 400.003,289.594C400.101,289.879 400.149,290.209 400.149,290.584C400.149,291.108 400.05,291.584 399.851,292.014C399.651,292.444 399.358,292.813 398.972,293.122C398.585,293.43 398.108,293.668 397.542,293.836C396.976,294.004 396.329,294.088 395.603,294.088C394.751,294.088 394.007,293.971 393.37,293.737C392.733,293.502 392.177,293.147 391.7,292.67L391.7,293.327Z" style="fill-rule:nonzero;"/>
                <path d="M423.106,280.049L419.907,280.049C419.642,280.049 419.452,279.991 419.339,279.874C419.226,279.756 419.169,279.549 419.169,279.252C419.169,278.956 419.226,278.749 419.339,278.631C419.452,278.514 419.642,278.456 419.907,278.456L424.126,278.456C424.392,278.456 424.581,278.514 424.694,278.631C424.808,278.749 424.864,278.956 424.864,279.252L424.864,292.237L428.626,292.237C428.892,292.237 429.081,292.295 429.194,292.413C429.308,292.53 429.364,292.737 429.364,293.034C429.364,293.331 429.308,293.538 429.194,293.655C429.081,293.772 428.892,293.831 428.626,293.831L419.438,293.831C419.173,293.831 418.983,293.772 418.87,293.655C418.757,293.538 418.7,293.331 418.7,293.034C418.7,292.737 418.757,292.53 418.87,292.413C418.983,292.295 419.173,292.237 419.438,292.237L423.106,292.237L423.106,280.049Z" style="fill-rule:nonzero;"/>
                <path d="M437.614,284.596L434.649,284.596C434.384,284.596 434.194,284.538 434.081,284.42C433.968,284.303 433.911,284.096 433.911,283.799C433.911,283.502 433.968,283.295 434.081,283.178C434.194,283.061 434.384,283.002 434.649,283.002L438.634,283.002C438.899,283.002 439.089,283.061 439.202,283.178C439.315,283.295 439.372,283.502 439.372,283.799L439.372,292.237L443.134,292.237C443.399,292.237 443.589,292.295 443.702,292.413C443.815,292.53 443.872,292.737 443.872,293.034C443.872,293.331 443.815,293.538 443.702,293.655C443.589,293.772 443.399,293.831 443.134,293.831L433.946,293.831C433.681,293.831 433.491,293.772 433.378,293.655C433.265,293.538 433.208,293.331 433.208,293.034C433.208,292.737 433.265,292.53 433.378,292.413C433.491,292.295 433.681,292.237 433.946,292.237L437.614,292.237L437.614,284.596ZM439.372,280.143C439.372,280.417 439.298,280.612 439.149,280.729C439.001,280.846 438.704,280.905 438.259,280.905C437.813,280.905 437.517,280.846 437.368,280.729C437.22,280.612 437.145,280.417 437.145,280.143L437.145,278.62C437.145,278.346 437.22,278.151 437.368,278.034C437.517,277.917 437.813,277.858 438.259,277.858C438.704,277.858 439.001,277.917 439.149,278.034C439.298,278.151 439.372,278.346 439.372,278.62L439.372,280.143Z" style="fill-rule:nonzero;"/>
                <path d="M449.485,278.456C449.751,278.456 449.94,278.514 450.054,278.631C450.167,278.749 450.224,278.956 450.224,279.252L450.224,288.534L454.688,284.596L453.856,284.596C453.591,284.596 453.401,284.538 453.288,284.42C453.175,284.303 453.118,284.096 453.118,283.799C453.118,283.502 453.175,283.295 453.288,283.178C453.401,283.061 453.591,283.002 453.856,283.002L457.77,283.002C458.036,283.002 458.226,283.061 458.339,283.178C458.452,283.295 458.509,283.502 458.509,283.799C458.509,284.096 458.452,284.303 458.339,284.42C458.226,284.538 458.036,284.596 457.77,284.596L457.079,284.596L453.634,287.631L457.571,292.237L458.251,292.237C458.517,292.237 458.706,292.295 458.819,292.413C458.933,292.53 458.989,292.737 458.989,293.034C458.989,293.331 458.933,293.538 458.819,293.655C458.706,293.772 458.517,293.831 458.251,293.831L454.337,293.831C454.071,293.831 453.882,293.772 453.769,293.655C453.655,293.538 453.599,293.331 453.599,293.034C453.599,292.737 453.655,292.53 453.769,292.413C453.882,292.295 454.071,292.237 454.337,292.237L455.298,292.237L452.356,288.745L450.224,290.62L450.224,292.237L450.962,292.237C451.228,292.237 451.417,292.295 451.53,292.413C451.644,292.53 451.7,292.737 451.7,293.034C451.7,293.331 451.644,293.538 451.53,293.655C451.417,293.772 451.228,293.831 450.962,293.831L447.165,293.831C446.899,293.831 446.71,293.772 446.597,293.655C446.483,293.538 446.427,293.331 446.427,293.034C446.427,292.737 446.483,292.53 446.597,292.413C446.71,292.295 446.899,292.237 447.165,292.237L448.466,292.237L448.466,280.049L446.931,280.049C446.665,280.049 446.476,279.991 446.362,279.874C446.249,279.756 446.192,279.549 446.192,279.252C446.192,278.956 446.249,278.749 446.362,278.631C446.476,278.514 446.665,278.456 446.931,278.456L449.485,278.456Z" style="fill-rule:nonzero;"/>
                <path d="M463.36,288.85C463.423,290.03 463.749,290.915 464.339,291.504C464.929,292.094 465.77,292.389 466.864,292.389C467.653,292.389 468.419,292.299 469.161,292.12C469.903,291.94 470.544,291.694 471.083,291.381C471.333,291.241 471.542,291.229 471.71,291.346C471.878,291.463 472.013,291.647 472.114,291.897C472.224,292.147 472.247,292.372 472.185,292.571C472.122,292.77 471.962,292.936 471.704,293.069C471.399,293.217 471.062,293.354 470.69,293.479C470.319,293.604 469.925,293.711 469.507,293.801C469.089,293.891 468.657,293.961 468.212,294.012C467.767,294.063 467.317,294.088 466.864,294.088C466.005,294.088 465.243,293.958 464.579,293.696C463.915,293.434 463.356,293.059 462.903,292.571C462.45,292.083 462.104,291.489 461.866,290.79C461.628,290.09 461.509,289.299 461.509,288.417C461.509,287.565 461.647,286.79 461.925,286.09C462.202,285.391 462.587,284.793 463.079,284.297C463.571,283.801 464.159,283.418 464.843,283.149C465.526,282.879 466.278,282.745 467.099,282.745C467.966,282.745 468.731,282.879 469.395,283.149C470.06,283.418 470.62,283.792 471.077,284.268C471.534,284.745 471.888,285.311 472.138,285.967C472.388,286.624 472.536,287.342 472.583,288.124C472.583,288.389 472.526,288.577 472.413,288.686C472.3,288.795 472.11,288.85 471.845,288.85L463.36,288.85ZM467.099,284.444C466.122,284.444 465.323,284.688 464.702,285.176C464.081,285.665 463.673,286.342 463.478,287.209L470.638,287.209C470.474,286.327 470.103,285.645 469.524,285.165C468.946,284.684 468.138,284.444 467.099,284.444Z" style="fill-rule:nonzero;"/>
                <path d="M499.114,286.905C499.114,286.553 499.044,286.229 498.903,285.932C498.763,285.635 498.554,285.379 498.276,285.165C497.999,284.95 497.657,284.782 497.251,284.661C496.845,284.54 496.372,284.479 495.833,284.479C495.263,284.479 494.737,284.577 494.257,284.772C493.776,284.967 493.364,285.241 493.02,285.592C492.677,285.944 492.407,286.36 492.212,286.84C492.017,287.321 491.919,287.846 491.919,288.417C491.919,288.987 492.009,289.512 492.188,289.993C492.368,290.473 492.624,290.889 492.956,291.241C493.288,291.592 493.688,291.866 494.157,292.061C494.626,292.256 495.145,292.354 495.716,292.354C496.435,292.354 497.13,292.245 497.802,292.026C498.474,291.807 499.091,291.483 499.653,291.053C499.856,290.897 500.048,290.838 500.228,290.877C500.407,290.917 500.579,291.073 500.743,291.346C500.876,291.557 500.933,291.776 500.913,292.002C500.894,292.229 500.77,292.424 500.544,292.588C499.911,293.057 499.173,293.424 498.329,293.69C497.485,293.956 496.614,294.088 495.716,294.088C494.856,294.088 494.079,293.946 493.384,293.661C492.688,293.375 492.095,292.979 491.603,292.471C491.11,291.963 490.731,291.364 490.466,290.672C490.2,289.981 490.067,289.229 490.067,288.417C490.067,287.604 490.204,286.852 490.478,286.161C490.751,285.469 491.136,284.87 491.632,284.362C492.128,283.854 492.722,283.458 493.413,283.172C494.104,282.887 494.872,282.745 495.716,282.745C496.427,282.745 497.071,282.872 497.649,283.125C498.228,283.379 498.716,283.741 499.114,284.209L499.114,283.506C499.114,283.233 499.179,283.038 499.308,282.92C499.437,282.803 499.665,282.745 499.993,282.745C500.321,282.745 500.55,282.803 500.679,282.92C500.808,283.038 500.872,283.233 500.872,283.506L500.872,286.905C500.872,287.178 500.808,287.374 500.679,287.491C500.55,287.608 500.321,287.667 499.993,287.667C499.665,287.667 499.437,287.608 499.308,287.491C499.179,287.374 499.114,287.178 499.114,286.905Z" style="fill-rule:nonzero;"/>
                <path d="M504.376,288.417C504.376,287.588 504.522,286.829 504.815,286.137C505.108,285.446 505.513,284.848 506.028,284.344C506.544,283.84 507.155,283.448 507.862,283.167C508.569,282.885 509.337,282.745 510.165,282.745C510.993,282.745 511.761,282.885 512.468,283.167C513.175,283.448 513.786,283.84 514.302,284.344C514.817,284.848 515.222,285.446 515.515,286.137C515.808,286.829 515.954,287.588 515.954,288.417C515.954,289.245 515.808,290.004 515.515,290.696C515.222,291.387 514.817,291.985 514.302,292.489C513.786,292.993 513.175,293.385 512.468,293.667C511.761,293.948 510.993,294.088 510.165,294.088C509.337,294.088 508.569,293.948 507.862,293.667C507.155,293.385 506.544,292.993 506.028,292.489C505.513,291.985 505.108,291.387 504.815,290.696C504.522,290.004 504.376,289.245 504.376,288.417ZM506.228,288.417C506.228,288.987 506.323,289.512 506.515,289.993C506.706,290.473 506.974,290.889 507.317,291.241C507.661,291.592 508.075,291.866 508.56,292.061C509.044,292.256 509.579,292.354 510.165,292.354C510.751,292.354 511.286,292.256 511.77,292.061C512.255,291.866 512.669,291.592 513.013,291.241C513.356,290.889 513.624,290.473 513.815,289.993C514.007,289.512 514.103,288.987 514.103,288.417C514.103,287.846 514.007,287.321 513.815,286.84C513.624,286.36 513.356,285.944 513.013,285.592C512.669,285.241 512.255,284.967 511.77,284.772C511.286,284.577 510.751,284.479 510.165,284.479C509.579,284.479 509.044,284.577 508.56,284.772C508.075,284.967 507.661,285.241 507.317,285.592C506.974,285.944 506.706,286.36 506.515,286.84C506.323,287.321 506.228,287.846 506.228,288.417Z" style="fill-rule:nonzero;"/>
                <path d="M530.345,292.237C530.61,292.237 530.8,292.295 530.913,292.413C531.026,292.53 531.083,292.737 531.083,293.034C531.083,293.331 531.026,293.538 530.913,293.655C530.8,293.772 530.61,293.831 530.345,293.831L528.481,293.831C528.216,293.831 528.026,293.772 527.913,293.655C527.8,293.538 527.743,293.331 527.743,293.034L527.743,292.096C527.259,292.729 526.694,293.219 526.05,293.567C525.405,293.915 524.692,294.088 523.911,294.088C523.185,294.088 522.513,293.965 521.895,293.719C521.278,293.473 520.745,293.12 520.296,292.659C519.847,292.198 519.493,291.635 519.235,290.971C518.978,290.307 518.849,289.553 518.849,288.709C518.849,287.866 518.978,287.112 519.235,286.448C519.493,285.784 519.847,285.221 520.296,284.76C520.745,284.299 521.278,283.946 521.895,283.7C522.513,283.454 523.185,283.331 523.911,283.331C524.692,283.331 525.39,283.489 526.003,283.805C526.616,284.122 527.157,284.573 527.626,285.159L527.626,280.049L525.259,280.049C524.993,280.049 524.804,279.991 524.69,279.874C524.577,279.756 524.52,279.549 524.52,279.252C524.52,278.956 524.577,278.749 524.69,278.631C524.804,278.514 524.993,278.456 525.259,278.456L528.645,278.456C528.911,278.456 529.101,278.514 529.214,278.631C529.327,278.749 529.384,278.956 529.384,279.252L529.384,292.237L530.345,292.237ZM527.626,288.709C527.626,288.131 527.536,287.616 527.356,287.163C527.177,286.709 526.927,286.329 526.606,286.02C526.286,285.711 525.905,285.475 525.464,285.311C525.022,285.147 524.544,285.065 524.028,285.065C523.497,285.065 523.024,285.155 522.61,285.334C522.196,285.514 521.849,285.766 521.567,286.09C521.286,286.415 521.071,286.799 520.923,287.245C520.774,287.69 520.7,288.178 520.7,288.709C520.7,289.241 520.774,289.729 520.923,290.174C521.071,290.62 521.286,291.004 521.567,291.329C521.849,291.653 522.196,291.905 522.61,292.084C523.024,292.264 523.497,292.354 524.028,292.354C524.544,292.354 525.022,292.272 525.464,292.108C525.905,291.944 526.286,291.708 526.606,291.399C526.927,291.09 527.177,290.709 527.356,290.256C527.536,289.803 527.626,289.288 527.626,288.709Z" style="fill-rule:nonzero;"/>
                <path d="M535.313,288.85C535.376,290.03 535.702,290.915 536.292,291.504C536.882,292.094 537.724,292.389 538.817,292.389C539.606,292.389 540.372,292.299 541.114,292.12C541.856,291.94 542.497,291.694 543.036,291.381C543.286,291.241 543.495,291.229 543.663,291.346C543.831,291.463 543.966,291.647 544.067,291.897C544.177,292.147 544.2,292.372 544.138,292.571C544.075,292.77 543.915,292.936 543.657,293.069C543.353,293.217 543.015,293.354 542.644,293.479C542.272,293.604 541.878,293.711 541.46,293.801C541.042,293.891 540.61,293.961 540.165,294.012C539.72,294.063 539.27,294.088 538.817,294.088C537.958,294.088 537.196,293.958 536.532,293.696C535.868,293.434 535.31,293.059 534.856,292.571C534.403,292.083 534.058,291.489 533.819,290.79C533.581,290.09 533.462,289.299 533.462,288.417C533.462,287.565 533.601,286.79 533.878,286.09C534.155,285.391 534.54,284.793 535.032,284.297C535.524,283.801 536.112,283.418 536.796,283.149C537.479,282.879 538.231,282.745 539.052,282.745C539.919,282.745 540.685,282.879 541.349,283.149C542.013,283.418 542.573,283.792 543.03,284.268C543.487,284.745 543.841,285.311 544.091,285.967C544.341,286.624 544.489,287.342 544.536,288.124C544.536,288.389 544.479,288.577 544.366,288.686C544.253,288.795 544.063,288.85 543.798,288.85L535.313,288.85ZM539.052,284.444C538.075,284.444 537.276,284.688 536.655,285.176C536.034,285.665 535.626,286.342 535.431,287.209L542.591,287.209C542.427,286.327 542.056,285.645 541.478,285.165C540.899,284.684 540.091,284.444 539.052,284.444Z" style="fill-rule:nonzero;"/>
                <path d="M546.083,298.436C545.997,298.436 545.931,298.391 545.884,298.301C545.837,298.211 545.813,297.991 545.813,297.639C545.813,297.288 545.837,297.067 545.884,296.977C545.931,296.887 545.997,296.842 546.083,296.842L560.591,296.842C560.677,296.842 560.743,296.887 560.79,296.977C560.837,297.067 560.86,297.288 560.86,297.639C560.86,297.991 560.837,298.211 560.79,298.301C560.743,298.391 560.677,298.436 560.591,298.436L546.083,298.436Z" style="fill-rule:nonzero;"/>
            </g>
        </g>
    </g>
</svg>
