<?xml version="1.0" encoding="UTF-8" standalone="no"?>
<!DOCTYPE svg PUBLIC "-//W3C//DTD SVG 1.1//EN" "http://www.w3.org/Graphics/SVG/1.1/DTD/svg11.dtd">
<svg width="100%" height="100%" viewBox="0 0 186 238" version="1.1" xmlns="http://www.w3.org/2000/svg" xmlns:xlink="http://www.w3.org/1999/xlink" xml:space="preserve" style="fill-rule:evenodd;clip-rule:evenodd;stroke-linecap:round;stroke-linejoin:round;stroke-miterlimit:1.5;">
    <g transform="matrix(1,0,0,1,-34.6665,-461.304)">
        <g transform="matrix(3.3958,0,0,2.22073,-284.643,-193.171)">
            <g transform="matrix(1,0,0,1,4.90802,-6.00403)">
                <g transform="matrix(0.294481,0,0,0.450302,83.8221,86.9852)">
                    <path d="M112,500.667C107.248,506.776 102.806,513.194 97.333,518.667C93.03,522.97 95.213,531.574 92.667,536.667C91.556,538.889 92.911,547.089 91.333,548.667C89.762,550.238 90.667,557.163 90.667,560C90.667,570.531 90.667,580.479 90.667,590.667C90.667,594.985 91.6,616.4 90,618C88.959,619.041 90.039,623.961 90,624C89.257,624.743 83.835,624 82.667,624C81.049,624 78,625.333 78,625.333C78,625.333 79.863,619.727 78.667,617.333C76.796,613.591 77.333,607.8 77.333,603.333C77.333,602.537 79.203,594 77.333,594" style="fill:none;stroke:black;stroke-width:2px;"/>
                </g>
                <g transform="matrix(0.294481,0,0,0.450302,83.8221,86.9852)">
                    <path d="M112.667,500.667C132.294,509.499 142,514.1 142,536C142,548.107 139.797,556.869 134,562.667C132.945,563.721 127.333,571.558 127.333,570.667" style="fill:none;stroke:black;stroke-width:2px;"/>
                </g>
                <g transform="matrix(0.294481,0,0,0.450302,83.8221,86.9852)">
                    <path d="M125.333,570.667C117.637,570.667 101.636,568.969 97.333,564.667C95.756,563.09 91.333,564.502 91.333,561.333" style="fill:none;stroke:black;stroke-width:2px;"/>
                </g>
                <g transform="matrix(0.294481,0,0,0.450302,83.8221,86.9852)">
                    <path d="M104,569.333C104,577.696 102.896,580.438 98.667,584.667C97.719,585.614 89.941,588 91.333,588" style="fill:none;stroke:black;stroke-width:2px;"/>
                </g>
                <g transform="matrix(0.294481,0,0,0.450302,83.8221,86.9852)">
                    <path d="M119.333,570C119.556,574.222 119.557,578.462 120,582.667C120.047,583.116 122.982,582.982 123.333,583.333C126.719,586.719 138.134,586.134 140.667,588.667C144.422,592.422 141.096,603.096 145.333,607.333C146.521,608.521 146.531,610.531 148,612C151.352,615.352 156.54,619.207 160,622.667C161.473,624.14 157.722,628.945 157.333,629.333C153.551,633.116 148.54,640 141.333,640" style="fill:none;stroke:black;stroke-width:2px;"/>
                </g>
                <g transform="matrix(0.294481,0,0,0.450302,83.8221,86.9852)">
                    <path d="M141.333,640C141.333,641.249 142.852,662.481 141.333,664C140.24,665.093 143.473,668 141.333,668" style="fill:none;stroke:black;stroke-width:2px;"/>
                </g>
                <g transform="matrix(0.294481,0,0,0.450302,83.8221,86.9852)">
                    <path d="M141.333,668.667C147.413,675.682 150.696,682.03 154.667,686C156.038,687.371 156.667,694.11 156.667,692.667" style="fill:none;stroke:black;stroke-width:2px;"/>
                </g>
                <g transform="matrix(0.294481,0,0,0.450302,83.8221,86.9852)">
                    <path d="M77.333,594C76.008,592.675 69.969,594.698 68.667,596C65.867,598.8 53.836,614.503 58,618.667C60.298,620.965 68.365,629.635 69.333,628.667C71.371,626.629 76,627.279 76,625.333" style="fill:none;stroke:black;stroke-width:2px;"/>
                </g>
                <g transform="matrix(0.294481,0,0,0.450302,83.8221,86.9852)">
                    <path d="M76,625.333C80.944,631.925 82.915,644.915 86.667,648.667C89.512,651.512 88.816,662.816 92,666" style="fill:none;stroke:black;stroke-width:2px;"/>
                </g>
                <g transform="matrix(0.294481,0,0,0.450302,83.8221,86.9852)">
                    <path d="M56.667,618.667C48.911,627.715 45.768,637.565 39.333,644C37.977,645.356 36.621,653.333 35.333,653.333" style="fill:none;stroke:black;stroke-width:2px;"/>
                </g>
                <g transform="matrix(0.294481,0,0,0.450302,83.8221,86.9852)">
                    <path d="M67.333,629.333C61.402,638.002 59.167,642.166 55.333,646C54.368,646.966 50.131,650.667 50.667,650.667" style="fill:none;stroke:black;stroke-width:2px;"/>
                </g>
                <g transform="matrix(0.294481,0,0,0.450302,83.8221,86.9852)">
                    <path d="M51.333,650.667C64.875,656.396 65.606,654.939 70.667,660C72.3,661.633 78.376,665.333 77.333,665.333" style="fill:none;stroke:black;stroke-width:2px;"/>
                </g>
                <g transform="matrix(0.294481,0,0,0.450302,83.8221,86.9852)">
                    <path d="M35.333,654.667C42.975,664.492 59.03,673.333 71.333,673.333C79.494,673.333 80.19,674.856 84,678.667C85.392,680.058 90.35,683.333 90,683.333" style="fill:none;stroke:black;stroke-width:2px;"/>
                </g>
                <g transform="matrix(0.294481,0,0,0.450302,83.8221,86.9852)">
                    <path d="M79.333,666C82.227,665.587 90.923,664.667 88,664.667" style="fill:none;stroke:black;stroke-width:2px;"/>
                </g>
                <g transform="matrix(0.294481,0,0,0.450302,83.8221,86.9852)">
                    <path d="M92,667.333C96.889,666.667 101.774,665.972 106.667,665.333C107.684,665.201 108.471,664.862 108,665.333C106.963,666.37 105.984,677.349 104.667,678.667C100.941,682.392 94.033,683.333 90,683.333" style="fill:none;stroke:black;stroke-width:2px;"/>
                </g>
                <g transform="matrix(0.294481,0,0,0.450302,83.8221,86.9852)">
                    <path d="M92.667,684.667C92.667,688.48 87.322,694.012 85.333,696C84.417,696.916 82.417,698.417 83.333,699.333C90.674,706.674 103.101,710.667 116.667,710.667C122.027,710.667 130.845,710.488 134,707.333C134.825,706.508 140.923,706.41 142.667,704.667C146.024,701.309 156.667,699.918 156.667,693.333" style="fill:none;stroke:black;stroke-width:2px;"/>
                </g>
                <g transform="matrix(0.294481,0,0,0.450302,83.8221,86.9852)">
                    <path d="M92,588.667C97.711,600.089 98.279,599.612 103.333,604.667C105.44,606.773 111.325,605.992 113.333,608C113.889,608.556 116.111,607.444 116.667,608C119.512,610.846 128.667,609.333 128.667,609.333C128.667,609.333 128.066,605.267 129.333,604C131.444,601.889 130.556,596.778 132.667,594.667C133.504,593.829 132.58,587.333 132,587.333" style="fill:none;stroke:black;stroke-width:2px;"/>
                </g>
                <g transform="matrix(0.294481,0,0,0.450302,83.8221,86.9852)">
                    <path d="M106.667,530C108.593,530.642 105.175,531.842 106.667,533.333C107.732,534.399 109.732,532.399 108.667,531.333C107.935,530.601 106.601,531.935 107.333,532.667C108.413,533.747 109.716,530.667 108,530.667C107.145,530.667 108,532.359 108,531.333" style="fill:none;stroke:black;stroke-width:2px;"/>
                </g>
                <g transform="matrix(0.294481,0,0,0.450302,83.8221,86.9852)">
                    <path d="M134,526.667C134.705,528.783 131.122,528.455 132.667,530C134.417,531.75 136.417,529.75 134.667,528C132.782,526.115 133.519,531.814 135.333,530C136.2,529.133 134.541,526.125 133.333,527.333C132.37,528.297 133.219,530.781 134.667,529.333C135.663,528.337 133.333,525.813 133.333,528.667" style="fill:none;stroke:black;stroke-width:2px;"/>
                </g>
                <g transform="matrix(0.294481,0,0,0.450302,83.8221,86.9852)">
                    <path d="M107.333,553.333C114.831,554.833 120.915,553.333 128,553.333C131.212,553.333 137.477,550.667 136,550.667" style="fill:none;stroke:black;stroke-width:2px;"/>
                </g>
                <g transform="matrix(0.294481,0,0,0.450302,83.8221,86.9852)">
                    <path d="M103.333,476C97.357,477.434 89.679,475.654 85.333,480C81.437,483.896 78.251,487.082 74.667,490.667C70.955,494.378 70.824,501.842 67.333,505.333C67.001,505.666 67.333,508.145 67.333,508.667C67.333,511.654 65.333,515.279 65.333,519.333C65.333,520.288 65.941,524.726 65.333,525.333C63.039,527.627 66.328,542.339 64.667,544C62.258,546.409 64.667,555.34 64.667,558.667C64.667,568.661 65.333,586.505 65.333,600" style="fill:none;stroke:black;stroke-width:2px;"/>
                </g>
                <g transform="matrix(0.294481,0,0,0.450302,83.8221,86.9852)">
                    <path d="M68,628.667C69.762,637.475 72.49,645.823 77.333,650.667C78.685,652.019 88,653.673 88,656" style="fill:none;stroke:black;stroke-width:2px;"/>
                </g>
                <g transform="matrix(0.294481,0,0,0.450302,83.8221,86.9852)">
                    <path d="M104,476.667C137.513,469.964 150,497.008 150,528.667C150,535.612 150.667,543.31 150.667,550.667C150.667,553.053 151.256,557.411 150,558.667C149.053,559.613 150,566.513 150,568C150,571.556 149.486,591.18 148,592.667C147.333,593.333 148.667,596 148,596.667C147.25,597.416 146,601.556 146,602.667C146,604.797 145.333,608.375 145.333,608" style="fill:none;stroke:black;stroke-width:2px;"/>
                </g>
            </g>
        </g>
        <g transform="matrix(3.3958,0,0,2.22073,-284.643,-193.171)">
            <g transform="matrix(0.256226,-0.0213653,0.0183941,0.515807,36.0061,73.2937)">
                <rect x="192" y="480" width="211.158" height="20.921"/>
            </g>
        </g>
        <g transform="matrix(3.3958,0,0,2.22073,-284.643,-193.171)">
            <g transform="matrix(0.294044,-0.0245187,0.0160343,0.449634,26.4748,224.469)">
                <path d="M227.531,219.77L227.869,219.068L229.897,219.068L230.235,220.03C230.495,220.724 230.842,221.703 231.275,222.968C231.674,224.06 231.964,224.832 232.146,225.282C232.328,225.733 232.476,226.058 232.588,226.257C232.701,226.457 232.827,226.591 232.965,226.66C233.537,226.955 233.702,227.31 233.459,227.726C233.355,227.952 233.425,228.333 233.667,228.87C233.823,229.252 233.997,229.763 234.187,230.404C234.378,231.046 234.573,231.722 234.772,232.432C234.972,233.143 235.141,233.689 235.279,234.07C235.522,234.764 235.635,235.249 235.617,235.526C235.6,235.804 235.427,235.968 235.097,236.02C234.751,236.09 234.456,235.851 234.213,235.305C233.971,234.759 233.399,233.039 232.497,230.144C232.48,230.075 232.454,229.98 232.419,229.858C232.298,229.512 232.22,229.269 232.185,229.13C232.151,228.992 232.077,228.84 231.964,228.675C231.852,228.511 231.769,228.411 231.717,228.376C231.665,228.342 231.54,228.311 231.34,228.285C231.141,228.259 230.968,228.251 230.82,228.259C230.673,228.268 230.409,228.298 230.027,228.35C229.871,228.368 229.759,228.376 229.689,228.376C228.077,228.567 227.167,228.74 226.959,228.896C226.803,229.018 226.699,229.26 226.647,229.624C226.422,230.855 226.244,231.8 226.114,232.458C225.984,233.117 225.854,233.654 225.724,234.07C225.594,234.486 225.477,234.751 225.373,234.863C225.269,234.976 225.139,235.032 224.983,235.032C224.793,235.032 224.654,235.006 224.567,234.954C224.481,234.902 224.424,234.764 224.398,234.538C224.372,234.313 224.385,234.027 224.437,233.68C224.489,233.334 224.576,232.831 224.697,232.172C224.992,230.664 225.2,229.382 225.321,228.324C225.391,227.648 225.551,226.747 225.802,225.62C226.054,224.494 226.34,223.384 226.66,222.292C226.981,221.2 227.271,220.36 227.531,219.77ZM229.533,222.422C229.187,221.469 228.944,220.984 228.805,220.966C228.719,220.984 228.649,221.07 228.597,221.226C228.545,221.452 228.433,221.764 228.259,222.162C228.155,222.474 227.965,223.172 227.687,224.255C227.41,225.339 227.211,226.149 227.089,226.686L226.985,227.284L227.713,227.18C227.783,227.163 228.372,227.085 229.481,226.946C230.157,226.894 230.582,226.816 230.755,226.712C230.807,226.66 230.829,226.561 230.82,226.413C230.812,226.266 230.76,226.019 230.664,225.672C230.569,225.326 230.43,224.892 230.248,224.372C230.066,223.852 229.828,223.202 229.533,222.422Z" style="fill:white;fill-rule:nonzero;"/>
                <path d="M237.515,224.892C237.671,224.615 237.862,224.489 238.087,224.515C238.313,224.541 238.486,224.71 238.607,225.022C238.746,225.352 238.841,225.516 238.893,225.516C238.963,225.516 239.309,225.395 239.933,225.152C240.523,224.91 241.112,224.78 241.701,224.762C242.083,224.762 242.39,224.81 242.624,224.905C242.858,225.001 243.253,225.239 243.807,225.62C244.449,226.054 244.951,226.47 245.315,226.868C245.679,227.267 245.948,227.696 246.121,228.155C246.295,228.615 246.381,229.156 246.381,229.78C246.381,230.404 246.26,230.916 246.017,231.314C245.809,231.609 245.493,231.891 245.068,232.159C244.644,232.428 244.137,232.675 243.547,232.9C242.958,233.126 242.317,233.299 241.623,233.42L239.829,233.784L239.855,234.382C239.855,234.694 239.933,235.24 240.089,236.02C240.228,236.61 240.263,237.03 240.193,237.281C240.124,237.533 239.933,237.684 239.621,237.736C239.448,237.754 239.309,237.728 239.205,237.658C239.101,237.589 239.002,237.403 238.906,237.099C238.811,236.796 238.724,236.402 238.646,235.916C238.568,235.431 238.486,234.746 238.399,233.862C238.174,231.904 237.949,230.43 237.723,229.442C237.567,228.801 237.468,227.934 237.424,226.842C237.381,225.75 237.411,225.1 237.515,224.892ZM242.481,226.426C242.1,226.184 241.814,226.062 241.623,226.062C241.398,226.08 241.051,226.188 240.583,226.387C240.115,226.587 239.795,226.773 239.621,226.946C239.396,227.137 239.223,227.232 239.101,227.232C238.98,227.232 238.885,227.284 238.815,227.388C238.763,227.475 238.85,228.151 239.075,229.416C239.301,230.682 239.465,231.418 239.569,231.626C239.708,231.921 239.92,232.094 240.206,232.146C240.492,232.198 240.991,232.146 241.701,231.99C243.209,231.661 244.223,231.21 244.743,230.638C244.882,230.5 244.964,230.352 244.99,230.196C245.016,230.04 245.012,229.789 244.977,229.442C244.908,228.888 244.769,228.428 244.561,228.064C244.423,227.822 244.232,227.605 243.989,227.414C243.747,227.224 243.244,226.894 242.481,226.426Z" style="fill:white;fill-rule:nonzero;"/>
                <path d="M248.279,224.892C248.435,224.615 248.626,224.489 248.851,224.515C249.077,224.541 249.25,224.71 249.371,225.022C249.51,225.352 249.605,225.516 249.657,225.516C249.727,225.516 250.073,225.395 250.697,225.152C251.287,224.91 251.876,224.78 252.465,224.762C252.847,224.762 253.154,224.81 253.388,224.905C253.622,225.001 254.017,225.239 254.571,225.62C255.213,226.054 255.715,226.47 256.079,226.868C256.443,227.267 256.712,227.696 256.885,228.155C257.059,228.615 257.145,229.156 257.145,229.78C257.145,230.404 257.024,230.916 256.781,231.314C256.573,231.609 256.257,231.891 255.832,232.159C255.408,232.428 254.901,232.675 254.311,232.9C253.722,233.126 253.081,233.299 252.387,233.42L250.593,233.784L250.619,234.382C250.619,234.694 250.697,235.24 250.853,236.02C250.992,236.61 251.027,237.03 250.957,237.281C250.888,237.533 250.697,237.684 250.385,237.736C250.212,237.754 250.073,237.728 249.969,237.658C249.865,237.589 249.766,237.403 249.67,237.099C249.575,236.796 249.488,236.402 249.41,235.916C249.332,235.431 249.25,234.746 249.163,233.862C248.938,231.904 248.713,230.43 248.487,229.442C248.331,228.801 248.232,227.934 248.188,226.842C248.145,225.75 248.175,225.1 248.279,224.892ZM253.245,226.426C252.864,226.184 252.578,226.062 252.387,226.062C252.162,226.08 251.815,226.188 251.347,226.387C250.879,226.587 250.559,226.773 250.385,226.946C250.16,227.137 249.987,227.232 249.865,227.232C249.744,227.232 249.649,227.284 249.579,227.388C249.527,227.475 249.614,228.151 249.839,229.416C250.065,230.682 250.229,231.418 250.333,231.626C250.472,231.921 250.684,232.094 250.97,232.146C251.256,232.198 251.755,232.146 252.465,231.99C253.973,231.661 254.987,231.21 255.507,230.638C255.646,230.5 255.728,230.352 255.754,230.196C255.78,230.04 255.776,229.789 255.741,229.442C255.672,228.888 255.533,228.428 255.325,228.064C255.187,227.822 254.996,227.605 254.753,227.414C254.511,227.224 254.008,226.894 253.245,226.426Z" style="fill:white;fill-rule:nonzero;"/>
                <path d="M261.409,224.45C261.565,224.242 261.726,224.117 261.89,224.073C262.055,224.03 262.415,224.008 262.969,224.008C264.391,224.008 265.387,224.372 265.959,225.1C266.167,225.378 266.319,225.72 266.414,226.127C266.51,226.535 266.488,226.799 266.349,226.92C266.193,227.076 265.972,227.094 265.686,226.972C265.4,226.851 265.188,226.643 265.049,226.348C264.98,226.21 264.876,226.08 264.737,225.958C264.599,225.837 264.443,225.733 264.269,225.646C264.096,225.56 263.91,225.49 263.71,225.438C263.511,225.386 263.316,225.36 263.125,225.36C262.813,225.36 262.592,225.438 262.462,225.594C262.332,225.75 262.233,226.071 262.163,226.556C262.146,226.678 262.016,227.38 261.773,228.662C261.6,229.581 261.548,230.552 261.617,231.574C261.652,232.094 261.661,232.497 261.643,232.783C261.626,233.069 261.574,233.264 261.487,233.368C261.401,233.472 261.253,233.524 261.045,233.524C260.577,233.524 260.239,233.013 260.031,231.99C259.893,231.349 259.659,230.465 259.329,229.338C259.017,228.212 258.905,227.371 258.991,226.816C259.061,226.348 259.182,226.023 259.355,225.841C259.529,225.659 259.737,225.646 259.979,225.802C260.101,225.872 260.179,225.984 260.213,226.14C260.248,226.296 260.257,226.565 260.239,226.946C260.205,227.536 260.239,227.848 260.343,227.882C260.465,227.934 260.56,227.614 260.629,226.92C260.751,225.759 261.011,224.936 261.409,224.45Z" style="fill:white;fill-rule:nonzero;"/>
                <path d="M271.913,223.592C272.26,223.54 272.806,223.545 273.551,223.605C274.297,223.666 274.825,223.748 275.137,223.852C275.397,223.922 275.709,224.121 276.073,224.45C276.437,224.78 276.793,225.17 277.139,225.62C277.486,226.071 277.755,226.513 277.945,226.946C278.171,227.432 278.318,227.822 278.387,228.116C278.457,228.411 278.5,228.818 278.517,229.338C278.517,229.65 278.504,229.928 278.478,230.17C278.452,230.413 278.413,230.638 278.361,230.846C278.309,231.054 278.24,231.249 278.153,231.431C278.067,231.613 277.958,231.787 277.828,231.951C277.698,232.116 277.547,232.285 277.373,232.458C276.923,232.892 276.338,233.234 275.618,233.485C274.899,233.737 274.132,233.862 273.317,233.862C272.763,233.862 272.386,233.823 272.186,233.745C271.987,233.667 271.627,233.412 271.107,232.978C270.501,232.51 270.033,232.086 269.703,231.704C269.374,231.323 269.045,230.846 268.715,230.274C268.559,230.032 268.451,229.824 268.39,229.65C268.33,229.477 268.291,229.273 268.273,229.039C268.256,228.805 268.247,228.463 268.247,228.012C268.247,227.388 268.282,226.899 268.351,226.543C268.421,226.188 268.546,225.876 268.728,225.607C268.91,225.339 269.192,225.048 269.573,224.736C270.336,224.095 271.116,223.714 271.913,223.592ZM275.215,225.516C274.539,224.979 273.569,224.797 272.303,224.97C271.038,225.144 270.171,225.568 269.703,226.244C269.53,226.487 269.443,227.016 269.443,227.83C269.443,228.316 269.474,228.688 269.534,228.948C269.595,229.208 269.729,229.52 269.937,229.884C270.301,230.508 270.821,231.098 271.497,231.652C271.965,232.034 272.299,232.268 272.498,232.354C272.698,232.441 272.988,232.484 273.369,232.484C274.028,232.484 274.648,232.385 275.228,232.185C275.809,231.986 276.247,231.73 276.541,231.418C277.165,230.69 277.339,229.711 277.061,228.48C276.784,227.25 276.169,226.262 275.215,225.516Z" style="fill:white;fill-rule:nonzero;"/>
                <path d="M284.757,224.502C285.173,224.416 285.845,224.394 286.772,224.437C287.7,224.481 288.276,224.563 288.501,224.684C288.692,224.806 288.848,225.014 288.969,225.308C289.039,225.499 289.06,225.646 289.034,225.75C289.008,225.854 288.9,226.01 288.709,226.218C288.501,226.426 288.376,226.647 288.332,226.881C288.289,227.115 288.267,227.718 288.267,228.688C288.267,230.075 288.354,231.158 288.527,231.938C288.631,232.476 288.731,232.848 288.826,233.056C288.922,233.264 289.091,233.472 289.333,233.68C289.611,233.923 289.758,234.079 289.775,234.148C289.793,234.218 289.723,234.339 289.567,234.512C289.359,234.755 289.143,234.876 288.917,234.876C288.675,234.876 288.393,234.694 288.072,234.33C287.752,233.966 287.539,233.594 287.435,233.212C287.314,232.727 287.21,232.484 287.123,232.484C287.019,232.484 286.777,232.692 286.395,233.108C285.997,233.542 285.624,233.828 285.277,233.966C284.931,234.105 284.376,234.209 283.613,234.278C282.625,234.348 281.954,234.278 281.598,234.07C281.243,233.862 280.935,233.368 280.675,232.588C280.502,232.086 280.394,231.657 280.35,231.301C280.307,230.946 280.303,230.456 280.337,229.832C280.355,229.156 280.398,228.671 280.467,228.376C280.537,228.082 280.71,227.666 280.987,227.128C281.282,226.574 281.516,226.21 281.689,226.036C281.863,225.863 282.244,225.62 282.833,225.308C283.631,224.875 284.272,224.606 284.757,224.502ZM286.629,227.388L286.499,225.776L285.823,225.75C285.546,225.733 285.303,225.742 285.095,225.776C284.887,225.811 284.658,225.876 284.406,225.971C284.155,226.067 283.83,226.218 283.431,226.426C283.085,226.6 282.825,226.773 282.651,226.946C282.478,227.12 282.296,227.397 282.105,227.778C281.481,228.992 281.369,230.335 281.767,231.808L282.079,232.926L283.171,232.978C283.899,232.996 284.463,232.9 284.861,232.692C285.26,232.484 285.685,232.06 286.135,231.418C286.153,231.384 286.187,231.34 286.239,231.288C286.551,230.82 286.725,230.435 286.759,230.131C286.794,229.828 286.759,229.018 286.655,227.7C286.638,227.562 286.629,227.458 286.629,227.388Z" style="fill:white;fill-rule:nonzero;"/>
                <path d="M296.847,224.294C297.419,224.173 297.939,224.221 298.407,224.437C298.875,224.654 299.083,224.927 299.031,225.256C298.997,225.412 298.927,225.508 298.823,225.542C298.719,225.577 298.468,225.586 298.069,225.568C297.532,225.551 296.795,225.651 295.859,225.867C294.923,226.084 294.343,226.288 294.117,226.478C293.875,226.686 293.667,226.946 293.493,227.258C293.32,227.57 293.186,227.904 293.09,228.259C292.995,228.615 292.947,228.974 292.947,229.338C292.947,230.205 293.129,230.846 293.493,231.262C293.857,231.678 294.499,231.973 295.417,232.146C296.735,232.372 297.974,232.146 299.135,231.47C299.638,231.193 300.024,231.033 300.292,230.989C300.561,230.946 300.765,231.02 300.903,231.21C301.025,231.332 301.064,231.462 301.02,231.6C300.977,231.739 300.864,231.891 300.682,232.055C300.5,232.22 300.227,232.406 299.863,232.614C299.569,232.788 299.209,232.961 298.784,233.134C298.36,233.308 297.935,233.442 297.51,233.537C297.086,233.633 296.735,233.68 296.457,233.68C296.128,233.68 295.565,233.594 294.767,233.42C294.074,233.247 293.506,232.991 293.064,232.653C292.622,232.315 292.245,231.834 291.933,231.21C291.76,230.864 291.656,230.569 291.621,230.326C291.587,230.084 291.587,229.668 291.621,229.078C291.691,228.316 291.881,227.605 292.193,226.946C292.505,226.288 292.904,225.776 293.389,225.412C293.632,225.239 294.083,225.04 294.741,224.814C295.4,224.589 296.102,224.416 296.847,224.294Z" style="fill:white;fill-rule:nonzero;"/>
                <path d="M303.035,219.432C303.157,219.311 303.287,219.25 303.425,219.25C303.824,219.25 304.023,219.64 304.023,220.42C304.023,220.646 304.032,220.923 304.049,221.252C304.067,221.582 304.088,221.924 304.114,222.279C304.14,222.635 304.175,223.003 304.218,223.384C304.262,223.766 304.309,224.134 304.361,224.489C304.413,224.845 304.47,225.178 304.53,225.49C304.591,225.802 304.647,226.071 304.699,226.296C304.734,226.504 304.786,226.747 304.855,227.024C304.925,227.302 304.981,227.536 305.024,227.726C305.068,227.917 305.098,228.047 305.115,228.116C305.167,228.394 305.263,228.55 305.401,228.584C305.471,228.532 305.514,228.463 305.531,228.376C305.531,228.203 305.627,227.822 305.817,227.232C306.129,226.158 306.953,225.213 308.287,224.398C308.582,224.225 308.812,224.099 308.976,224.021C309.141,223.943 309.31,223.891 309.483,223.865C309.657,223.839 309.83,223.844 310.003,223.878C310.437,223.93 310.792,224.091 311.069,224.359C311.347,224.628 311.615,225.066 311.875,225.672C311.997,225.932 312.092,226.205 312.161,226.491C312.231,226.777 312.291,227.12 312.343,227.518C312.395,227.917 312.447,228.498 312.499,229.26C312.638,231.08 312.733,232.155 312.785,232.484C312.837,232.866 312.759,233.182 312.551,233.433C312.343,233.685 312.109,233.732 311.849,233.576C311.676,233.455 311.542,233.191 311.446,232.783C311.351,232.376 311.277,231.678 311.225,230.69C311.139,229.182 311.043,228.069 310.939,227.349C310.835,226.63 310.679,226.114 310.471,225.802C310.229,225.386 310.038,225.178 309.899,225.178C309.726,225.178 309.345,225.378 308.755,225.776C308.166,226.175 307.785,226.487 307.611,226.712C307.386,227.024 307.07,227.852 306.662,229.195C306.255,230.539 306.051,231.436 306.051,231.886C306.051,232.857 305.8,233.342 305.297,233.342C305.02,233.342 304.821,233.238 304.699,233.03C304.578,232.822 304.465,232.363 304.361,231.652C303.945,229.07 303.625,227.423 303.399,226.712C303.139,225.88 302.962,224.511 302.866,222.604C302.771,220.698 302.827,219.64 303.035,219.432Z" style="fill:white;fill-rule:nonzero;"/>
                <path d="M319.025,224.502C319.441,224.416 320.113,224.394 321.04,224.437C321.968,224.481 322.544,224.563 322.769,224.684C322.96,224.806 323.116,225.014 323.237,225.308C323.307,225.499 323.328,225.646 323.302,225.75C323.276,225.854 323.168,226.01 322.977,226.218C322.769,226.426 322.644,226.647 322.6,226.881C322.557,227.115 322.535,227.718 322.535,228.688C322.535,230.075 322.622,231.158 322.795,231.938C322.899,232.476 322.999,232.848 323.094,233.056C323.19,233.264 323.359,233.472 323.601,233.68C323.879,233.923 324.026,234.079 324.043,234.148C324.061,234.218 323.991,234.339 323.835,234.512C323.627,234.755 323.411,234.876 323.185,234.876C322.943,234.876 322.661,234.694 322.34,234.33C322.02,233.966 321.807,233.594 321.703,233.212C321.582,232.727 321.478,232.484 321.391,232.484C321.287,232.484 321.045,232.692 320.663,233.108C320.265,233.542 319.892,233.828 319.545,233.966C319.199,234.105 318.644,234.209 317.881,234.278C316.893,234.348 316.222,234.278 315.866,234.07C315.511,233.862 315.203,233.368 314.943,232.588C314.77,232.086 314.662,231.657 314.618,231.301C314.575,230.946 314.571,230.456 314.605,229.832C314.623,229.156 314.666,228.671 314.735,228.376C314.805,228.082 314.978,227.666 315.255,227.128C315.55,226.574 315.784,226.21 315.957,226.036C316.131,225.863 316.512,225.62 317.101,225.308C317.899,224.875 318.54,224.606 319.025,224.502ZM320.897,227.388L320.767,225.776L320.091,225.75C319.814,225.733 319.571,225.742 319.363,225.776C319.155,225.811 318.926,225.876 318.674,225.971C318.423,226.067 318.098,226.218 317.699,226.426C317.353,226.6 317.093,226.773 316.919,226.946C316.746,227.12 316.564,227.397 316.373,227.778C315.749,228.992 315.637,230.335 316.035,231.808L316.347,232.926L317.439,232.978C318.167,232.996 318.731,232.9 319.129,232.692C319.528,232.484 319.953,232.06 320.403,231.418C320.421,231.384 320.455,231.34 320.507,231.288C320.819,230.82 320.993,230.435 321.027,230.131C321.062,229.828 321.027,229.018 320.923,227.7C320.906,227.562 320.897,227.458 320.897,227.388Z" style="fill:white;fill-rule:nonzero;"/>
                <path d="M326.149,221.824C326.305,221.599 326.427,221.482 326.513,221.473C326.6,221.465 326.739,221.547 326.929,221.72C327.068,221.842 327.15,222.037 327.176,222.305C327.202,222.574 327.189,223.202 327.137,224.19C327.068,225.646 327.094,226.374 327.215,226.374C327.319,226.374 327.415,226.262 327.501,226.036C327.709,225.395 328.55,224.979 330.023,224.788C330.751,224.702 331.306,224.65 331.687,224.632C332.069,224.615 332.42,224.654 332.74,224.749C333.061,224.845 333.317,224.983 333.507,225.165C333.698,225.347 333.932,225.629 334.209,226.01C334.781,226.773 335.154,227.41 335.327,227.921C335.501,228.433 335.587,229.182 335.587,230.17C335.587,230.777 335.574,231.197 335.548,231.431C335.522,231.665 335.479,231.86 335.418,232.016C335.358,232.172 335.241,232.372 335.067,232.614C334.703,233.117 334.257,233.455 333.728,233.628C333.2,233.802 332.329,233.897 331.115,233.914L329.165,233.94L328.229,233.29C327.605,232.874 327.233,232.666 327.111,232.666C326.955,232.666 326.825,232.51 326.721,232.198C326.617,231.886 326.513,231.332 326.409,230.534C326.392,230.413 326.262,229.451 326.019,227.648C325.881,226.712 325.829,225.573 325.863,224.229C325.898,222.886 325.993,222.084 326.149,221.824ZM333.169,226.842C332.875,226.478 332.654,226.253 332.506,226.166C332.359,226.08 332.147,226.045 331.869,226.062C330.5,226.132 329.69,226.192 329.438,226.244C329.187,226.296 328.975,226.435 328.801,226.66C328.42,227.128 328.16,228.281 328.021,230.118C327.969,230.742 327.956,231.128 327.982,231.275C328.008,231.423 328.143,231.583 328.385,231.756C328.975,232.19 329.451,232.454 329.815,232.549C330.179,232.645 330.786,232.658 331.635,232.588C332.346,232.536 332.818,232.476 333.052,232.406C333.286,232.337 333.525,232.198 333.767,231.99C333.975,231.782 334.118,231.592 334.196,231.418C334.274,231.245 334.331,230.933 334.365,230.482C334.452,229.148 334.053,227.934 333.169,226.842Z" style="fill:white;fill-rule:nonzero;"/>
                <path d="M337.615,221.2C337.893,220.854 338.161,220.836 338.421,221.148C338.525,221.287 338.612,222.916 338.681,226.036C338.733,229.122 338.855,231.072 339.045,231.886C339.427,233.637 339.392,234.634 338.941,234.876C338.699,235.015 338.473,234.985 338.265,234.785C338.057,234.586 337.953,234.313 337.953,233.966C337.953,233.637 337.858,233.03 337.667,232.146C337.546,231.626 337.468,230.981 337.433,230.209C337.399,229.438 337.381,228.09 337.381,226.166C337.399,223.012 337.477,221.356 337.615,221.2Z" style="fill:white;fill-rule:nonzero;"/>
                <path d="M344.713,223.202C345.979,222.752 346.958,222.682 347.651,222.994C348.171,223.237 348.661,223.826 349.12,224.762C349.58,225.698 349.809,226.591 349.809,227.44C349.809,227.804 349.71,228.116 349.51,228.376C349.311,228.636 349.055,228.766 348.743,228.766C348.466,228.766 347.773,228.905 346.663,229.182C345.554,229.46 344.661,229.598 343.985,229.598C343.361,229.598 343.015,229.642 342.945,229.728C342.911,229.815 343.032,230.144 343.309,230.716C343.5,231.046 343.725,231.319 343.985,231.535C344.245,231.752 344.57,231.934 344.96,232.081C345.35,232.229 345.84,232.363 346.429,232.484C346.967,232.588 347.344,232.627 347.56,232.601C347.777,232.575 348.189,232.432 348.795,232.172C349.61,231.808 350.182,231.488 350.511,231.21C350.806,230.968 351.001,230.838 351.096,230.82C351.192,230.803 351.317,230.864 351.473,231.002C351.785,231.314 351.742,231.713 351.343,232.198C351.17,232.424 350.676,232.744 349.861,233.16C349.047,233.576 348.405,233.836 347.937,233.94C347.348,234.062 346.494,233.962 345.376,233.641C344.258,233.321 343.457,232.944 342.971,232.51C342.451,232.042 341.983,231.262 341.567,230.17C341.151,229.078 341.013,228.264 341.151,227.726C341.221,227.432 341.338,227.068 341.502,226.634C341.667,226.201 341.84,225.785 342.022,225.386C342.204,224.988 342.365,224.693 342.503,224.502C342.711,224.208 342.945,223.982 343.205,223.826C343.465,223.67 343.968,223.462 344.713,223.202ZM347.599,224.866C347.287,224.433 346.962,224.203 346.624,224.177C346.286,224.151 345.701,224.286 344.869,224.58C344.54,224.719 344.289,224.832 344.115,224.918C343.942,225.005 343.782,225.135 343.634,225.308C343.487,225.482 343.361,225.672 343.257,225.88C343.153,226.088 343.032,226.392 342.893,226.79C342.616,227.518 342.503,227.943 342.555,228.064C342.607,228.186 342.945,228.246 343.569,228.246C344.263,228.229 345.238,228.064 346.494,227.752C347.751,227.44 348.362,227.206 348.327,227.05C348.223,226.114 347.981,225.386 347.599,224.866Z" style="fill:white;fill-rule:nonzero;"/>
                <path d="M371.389,220.42C372.083,220.351 372.594,220.338 372.923,220.381C373.253,220.425 373.504,220.533 373.677,220.706C373.851,220.862 373.877,221.04 373.755,221.239C373.634,221.439 373.088,221.573 372.117,221.642C371.233,221.729 370.505,221.898 369.933,222.149C369.361,222.401 368.841,222.786 368.373,223.306C367.975,223.74 367.689,224.134 367.515,224.489C367.342,224.845 367.195,225.352 367.073,226.01C366.935,226.686 366.913,227.297 367.008,227.843C367.104,228.389 367.325,229 367.671,229.676C368.139,230.543 368.742,231.258 369.478,231.821C370.215,232.385 370.921,232.666 371.597,232.666C371.961,232.666 372.399,232.545 372.91,232.302C373.422,232.06 373.842,231.774 374.171,231.444C374.57,231.08 374.791,230.829 374.834,230.69C374.878,230.552 374.813,230.283 374.639,229.884C374.57,229.728 374.501,229.603 374.431,229.507C374.362,229.412 374.267,229.338 374.145,229.286C374.024,229.234 373.859,229.174 373.651,229.104C373.131,228.983 372.711,228.922 372.39,228.922C372.07,228.922 371.779,228.831 371.519,228.649C371.259,228.467 371.129,228.255 371.129,228.012C371.129,227.7 371.238,227.492 371.454,227.388C371.671,227.284 372.074,227.232 372.663,227.232C373.478,227.232 374.457,227.163 375.601,227.024C376.503,226.92 377.053,226.877 377.252,226.894C377.452,226.912 377.638,227.007 377.811,227.18C377.967,227.354 378.05,227.479 378.058,227.557C378.067,227.635 378.011,227.77 377.889,227.96C377.716,228.22 377.387,228.394 376.901,228.48C376.416,228.567 376.139,228.654 376.069,228.74C376,228.827 376.035,229.07 376.173,229.468C376.347,229.936 376.42,230.331 376.394,230.651C376.368,230.972 376.243,231.314 376.017,231.678C375.601,232.389 374.973,232.961 374.132,233.394C373.292,233.828 372.412,234.044 371.493,234.044C370.523,234.044 369.578,233.689 368.659,232.978C367.741,232.268 366.969,231.288 366.345,230.04L365.669,228.662L365.747,226.79C365.765,226.201 365.791,225.763 365.825,225.477C365.86,225.191 365.908,224.94 365.968,224.723C366.029,224.507 366.137,224.26 366.293,223.982C366.64,223.306 367.073,222.708 367.593,222.188C368.113,221.668 368.694,221.261 369.335,220.966C369.977,220.672 370.661,220.49 371.389,220.42Z" style="fill:white;fill-rule:nonzero;"/>
                <path d="M379.969,221.694C380.056,221.521 380.156,221.408 380.268,221.356C380.381,221.304 380.576,221.278 380.853,221.278C381.755,221.278 382.205,221.512 382.205,221.98C382.205,222.188 382.153,222.366 382.049,222.513C381.945,222.661 381.794,222.773 381.594,222.851C381.395,222.929 381.165,222.968 380.905,222.968C380.593,222.968 380.381,222.942 380.268,222.89C380.156,222.838 380.056,222.726 379.969,222.552C379.848,222.275 379.848,221.989 379.969,221.694ZM380.177,225.62C380.316,225.447 380.481,225.36 380.671,225.36C380.827,225.36 380.949,225.386 381.035,225.438C381.122,225.49 381.191,225.638 381.243,225.88C381.295,226.123 381.33,226.431 381.347,226.803C381.365,227.176 381.373,227.735 381.373,228.48C381.373,230.3 381.451,231.375 381.607,231.704C381.781,232.016 381.863,232.272 381.854,232.471C381.846,232.671 381.763,232.892 381.607,233.134C381.261,233.637 380.862,233.646 380.411,233.16C380.273,233.004 380.182,232.718 380.138,232.302C380.095,231.886 380.065,230.898 380.047,229.338C379.995,226.998 380.039,225.759 380.177,225.62Z" style="fill:white;fill-rule:nonzero;"/>
                <path d="M386.469,224.45C386.625,224.242 386.786,224.117 386.95,224.073C387.115,224.03 387.475,224.008 388.029,224.008C389.451,224.008 390.447,224.372 391.019,225.1C391.227,225.378 391.379,225.72 391.474,226.127C391.57,226.535 391.548,226.799 391.409,226.92C391.253,227.076 391.032,227.094 390.746,226.972C390.46,226.851 390.248,226.643 390.109,226.348C390.04,226.21 389.936,226.08 389.797,225.958C389.659,225.837 389.503,225.733 389.329,225.646C389.156,225.56 388.97,225.49 388.77,225.438C388.571,225.386 388.376,225.36 388.185,225.36C387.873,225.36 387.652,225.438 387.522,225.594C387.392,225.75 387.293,226.071 387.223,226.556C387.206,226.678 387.076,227.38 386.833,228.662C386.66,229.581 386.608,230.552 386.677,231.574C386.712,232.094 386.721,232.497 386.703,232.783C386.686,233.069 386.634,233.264 386.547,233.368C386.461,233.472 386.313,233.524 386.105,233.524C385.637,233.524 385.299,233.013 385.091,231.99C384.953,231.349 384.719,230.465 384.389,229.338C384.077,228.212 383.965,227.371 384.051,226.816C384.121,226.348 384.242,226.023 384.415,225.841C384.589,225.659 384.797,225.646 385.039,225.802C385.161,225.872 385.239,225.984 385.273,226.14C385.308,226.296 385.317,226.565 385.299,226.946C385.265,227.536 385.299,227.848 385.403,227.882C385.525,227.934 385.62,227.614 385.689,226.92C385.811,225.759 386.071,224.936 386.469,224.45Z" style="fill:white;fill-rule:nonzero;"/>
                <path d="M393.541,221.2C393.819,220.854 394.087,220.836 394.347,221.148C394.451,221.287 394.538,222.916 394.607,226.036C394.659,229.122 394.781,231.072 394.971,231.886C395.353,233.637 395.318,234.634 394.867,234.876C394.625,235.015 394.399,234.985 394.191,234.785C393.983,234.586 393.879,234.313 393.879,233.966C393.879,233.637 393.784,233.03 393.593,232.146C393.472,231.626 393.394,230.981 393.359,230.209C393.325,229.438 393.307,228.09 393.307,226.166C393.325,223.012 393.403,221.356 393.541,221.2Z" style="fill:white;fill-rule:nonzero;"/>
            </g>
        </g>
    </g>
</svg>
