<?xml version="1.0" encoding="UTF-8" standalone="no"?>
<!DOCTYPE svg PUBLIC "-//W3C//DTD SVG 1.1//EN" "http://www.w3.org/Graphics/SVG/1.1/DTD/svg11.dtd">
<svg width="100%" height="100%" viewBox="0 0 128 238" version="1.1" xmlns="http://www.w3.org/2000/svg" xmlns:xlink="http://www.w3.org/1999/xlink" xml:space="preserve" style="fill-rule:evenodd;clip-rule:evenodd;stroke-linecap:round;stroke-linejoin:round;stroke-miterlimit:1.5;">
    <g transform="matrix(1,0,0,1,-51,-461.304)">
        <g transform="matrix(3.3958,0,0,2.22073,-284.643,-193.171)">
            <g transform="matrix(1,0,0,1,4.90802,-6.00403)">
                <g transform="matrix(0.294481,0,0,0.450302,83.8221,86.9852)">
                    <path d="M112,500.667C107.248,506.776 102.806,513.194 97.333,518.667C93.03,522.97 95.213,531.574 92.667,536.667C91.556,538.889 92.911,547.089 91.333,548.667C89.762,550.238 90.667,557.163 90.667,560C90.667,570.531 90.667,580.479 90.667,590.667C90.667,594.985 91.6,616.4 90,618C88.959,619.041 90.039,623.961 90,624C89.257,624.743 83.835,624 82.667,624C81.049,624 78,625.333 78,625.333C78,625.333 79.863,619.727 78.667,617.333C76.796,613.591 77.333,607.8 77.333,603.333C77.333,602.537 79.203,594 77.333,594" style="fill:none;stroke:black;stroke-width:2px;"/>
                </g>
                <g transform="matrix(0.294481,0,0,0.450302,83.8221,86.9852)">
                    <path d="M112.667,500.667C132.294,509.499 142,514.1 142,536C142,548.107 139.797,556.869 134,562.667C132.945,563.721 127.333,571.558 127.333,570.667" style="fill:none;stroke:black;stroke-width:2px;"/>
                </g>
                <g transform="matrix(0.294481,0,0,0.450302,83.8221,86.9852)">
                    <path d="M125.333,570.667C117.637,570.667 101.636,568.969 97.333,564.667C95.756,563.09 91.333,564.502 91.333,561.333" style="fill:none;stroke:black;stroke-width:2px;"/>
                </g>
                <g transform="matrix(0.294481,0,0,0.450302,83.8221,86.9852)">
                    <path d="M104,569.333C104,577.696 102.896,580.438 98.667,584.667C97.719,585.614 89.941,588 91.333,588" style="fill:none;stroke:black;stroke-width:2px;"/>
                </g>
                <g transform="matrix(0.294481,0,0,0.450302,83.8221,86.9852)">
                    <path d="M119.333,570C119.556,574.222 119.557,578.462 120,582.667C120.047,583.116 122.982,582.982 123.333,583.333C126.719,586.719 138.134,586.134 140.667,588.667C144.422,592.422 141.096,603.096 145.333,607.333C146.521,608.521 146.531,610.531 148,612C151.352,615.352 156.54,619.207 160,622.667C161.473,624.14 157.722,628.945 157.333,629.333C153.551,633.116 148.54,640 141.333,640" style="fill:none;stroke:black;stroke-width:2px;"/>
                </g>
                <g transform="matrix(0.294481,0,0,0.450302,83.8221,86.9852)">
                    <path d="M141.333,640C141.333,641.249 142.852,662.481 141.333,664C140.24,665.093 143.473,668 141.333,668" style="fill:none;stroke:black;stroke-width:2px;"/>
                </g>
                <g transform="matrix(0.294481,0,0,0.450302,83.8221,86.9852)">
                    <path d="M141.333,668.667C147.413,675.682 150.696,682.03 154.667,686C156.038,687.371 156.667,694.11 156.667,692.667" style="fill:none;stroke:black;stroke-width:2px;"/>
                </g>
                <g transform="matrix(0.294481,0,0,0.450302,83.8221,86.9852)">
                    <path d="M77.333,594C76.008,592.675 69.969,594.698 68.667,596C65.867,598.8 53.836,614.503 58,618.667C60.298,620.965 68.365,629.635 69.333,628.667C71.371,626.629 76,627.279 76,625.333" style="fill:none;stroke:black;stroke-width:2px;"/>
                </g>
                <g transform="matrix(0.294481,0,0,0.450302,83.8221,86.9852)">
                    <path d="M76,625.333C80.944,631.925 82.915,644.915 86.667,648.667C89.512,651.512 88.816,662.816 92,666" style="fill:none;stroke:black;stroke-width:2px;"/>
                </g>
                <g transform="matrix(0.294481,0,0,0.450302,83.8221,86.9852)">
                    <path d="M56.667,618.667C48.911,627.715 45.768,637.565 39.333,644C37.977,645.356 36.621,653.333 35.333,653.333" style="fill:none;stroke:black;stroke-width:2px;"/>
                </g>
                <g transform="matrix(0.294481,0,0,0.450302,83.8221,86.9852)">
                    <path d="M67.333,629.333C61.402,638.002 59.167,642.166 55.333,646C54.368,646.966 50.131,650.667 50.667,650.667" style="fill:none;stroke:black;stroke-width:2px;"/>
                </g>
                <g transform="matrix(0.294481,0,0,0.450302,83.8221,86.9852)">
                    <path d="M51.333,650.667C64.875,656.396 65.606,654.939 70.667,660C72.3,661.633 78.376,665.333 77.333,665.333" style="fill:none;stroke:black;stroke-width:2px;"/>
                </g>
                <g transform="matrix(0.294481,0,0,0.450302,83.8221,86.9852)">
                    <path d="M35.333,654.667C42.975,664.492 59.03,673.333 71.333,673.333C79.494,673.333 80.19,674.856 84,678.667C85.392,680.058 90.35,683.333 90,683.333" style="fill:none;stroke:black;stroke-width:2px;"/>
                </g>
                <g transform="matrix(0.294481,0,0,0.450302,83.8221,86.9852)">
                    <path d="M79.333,666C82.227,665.587 90.923,664.667 88,664.667" style="fill:none;stroke:black;stroke-width:2px;"/>
                </g>
                <g transform="matrix(0.294481,0,0,0.450302,83.8221,86.9852)">
                    <path d="M92,667.333C96.889,666.667 101.774,665.972 106.667,665.333C107.684,665.201 108.471,664.862 108,665.333C106.963,666.37 105.984,677.349 104.667,678.667C100.941,682.392 94.033,683.333 90,683.333" style="fill:none;stroke:black;stroke-width:2px;"/>
                </g>
                <g transform="matrix(0.294481,0,0,0.450302,83.8221,86.9852)">
                    <path d="M92.667,684.667C92.667,688.48 87.322,694.012 85.333,696C84.417,696.916 82.417,698.417 83.333,699.333C90.674,706.674 103.101,710.667 116.667,710.667C122.027,710.667 130.845,710.488 134,707.333C134.825,706.508 140.923,706.41 142.667,704.667C146.024,701.309 156.667,699.918 156.667,693.333" style="fill:none;stroke:black;stroke-width:2px;"/>
                </g>
                <g transform="matrix(0.294481,0,0,0.450302,83.8221,86.9852)">
                    <path d="M92,588.667C97.711,600.089 98.279,599.612 103.333,604.667C105.44,606.773 111.325,605.992 113.333,608C113.889,608.556 116.111,607.444 116.667,608C119.512,610.846 128.667,609.333 128.667,609.333C128.667,609.333 128.066,605.267 129.333,604C131.444,601.889 130.556,596.778 132.667,594.667C133.504,593.829 132.58,587.333 132,587.333" style="fill:none;stroke:black;stroke-width:2px;"/>
                </g>
                <g transform="matrix(0.294481,0,0,0.450302,83.8221,86.9852)">
                    <path d="M106.667,530C108.593,530.642 105.175,531.842 106.667,533.333C107.732,534.399 109.732,532.399 108.667,531.333C107.935,530.601 106.601,531.935 107.333,532.667C108.413,533.747 109.716,530.667 108,530.667C107.145,530.667 108,532.359 108,531.333" style="fill:none;stroke:black;stroke-width:2px;"/>
                </g>
                <g transform="matrix(0.294481,0,0,0.450302,83.8221,86.9852)">
                    <path d="M134,526.667C134.705,528.783 131.122,528.455 132.667,530C134.417,531.75 136.417,529.75 134.667,528C132.782,526.115 133.519,531.814 135.333,530C136.2,529.133 134.541,526.125 133.333,527.333C132.37,528.297 133.219,530.781 134.667,529.333C135.663,528.337 133.333,525.813 133.333,528.667" style="fill:none;stroke:black;stroke-width:2px;"/>
                </g>
                <g transform="matrix(0.294481,0,0,0.450302,83.8221,86.9852)">
                    <path d="M107.333,553.333C114.831,554.833 120.915,553.333 128,553.333C131.212,553.333 137.477,550.667 136,550.667" style="fill:none;stroke:black;stroke-width:2px;"/>
                </g>
                <g transform="matrix(0.294481,0,0,0.450302,83.8221,86.9852)">
                    <path d="M103.333,476C97.357,477.434 89.679,475.654 85.333,480C81.437,483.896 78.251,487.082 74.667,490.667C70.955,494.378 70.824,501.842 67.333,505.333C67.001,505.666 67.333,508.145 67.333,508.667C67.333,511.654 65.333,515.279 65.333,519.333C65.333,520.288 65.941,524.726 65.333,525.333C63.039,527.627 66.328,542.339 64.667,544C62.258,546.409 64.667,555.34 64.667,558.667C64.667,568.661 65.333,586.505 65.333,600" style="fill:none;stroke:black;stroke-width:2px;"/>
                </g>
                <g transform="matrix(0.294481,0,0,0.450302,83.8221,86.9852)">
                    <path d="M68,628.667C69.762,637.475 72.49,645.823 77.333,650.667C78.685,652.019 88,653.673 88,656" style="fill:none;stroke:black;stroke-width:2px;"/>
                </g>
                <g transform="matrix(0.294481,0,0,0.450302,83.8221,86.9852)">
                    <path d="M104,476.667C137.513,469.964 150,497.008 150,528.667C150,535.612 150.667,543.31 150.667,550.667C150.667,553.053 151.256,557.411 150,558.667C149.053,559.613 150,566.513 150,568C150,571.556 149.486,591.18 148,592.667C147.333,593.333 148.667,596 148,596.667C147.25,597.416 146,601.556 146,602.667C146,604.797 145.333,608.375 145.333,608" style="fill:none;stroke:black;stroke-width:2px;"/>
                </g>
            </g>
        </g>
    </g>
</svg>
