<?xml version="1.0" encoding="UTF-8" standalone="no"?>
<!DOCTYPE svg PUBLIC "-//W3C//DTD SVG 1.1//EN" "http://www.w3.org/Graphics/SVG/1.1/DTD/svg11.dtd">
<svg width="100%" height="100%" viewBox="0 0 130 229" version="1.1" xmlns="http://www.w3.org/2000/svg" xmlns:xlink="http://www.w3.org/1999/xlink" xml:space="preserve" style="fill-rule:evenodd;clip-rule:evenodd;stroke-linecap:round;stroke-linejoin:round;stroke-miterlimit:1.5;">
    <g transform="matrix(1,0,0,1,-423.54,-465.744)">
        <g transform="matrix(3.3958,0,0,2.22073,-284.643,-193.171)">
            <g transform="matrix(1,0,0,1,3.20398,-2.92484)">
                <g transform="matrix(0.294481,0,0,0.450302,83.8221,86.9852)">
                    <path d="M476,685.333C475.367,679.949 472.704,663.296 476.667,659.333C481.625,654.375 486.288,649.333 495.333,649.333C497.826,649.333 502.676,648.676 504,650C505.349,651.349 510.099,650.099 511.333,651.333C516.172,656.172 518.52,658.372 522,665.333C522.795,666.922 521.964,672.036 521.333,672.667C519.556,674.444 521.778,680.222 520,682C519.057,682.943 520,686 520,686C520,686 514.231,685.333 511.333,685.333C507.034,685.333 500.057,686 494.667,686C490.541,686 475.333,686.971 475.333,686" style="fill:none;stroke:black;stroke-width:2px;"/>
                </g>
                <g transform="matrix(0.294481,0,0,0.450302,83.8221,86.9852)">
                    <path d="M498,675.333C490.728,681.151 499.987,683.346 502,681.333C506.01,677.323 500.618,674.667 496,674.667" style="fill:none;stroke:black;stroke-width:2px;"/>
                </g>
                <g transform="matrix(0.294481,0,0,0.450302,83.8221,86.9852)">
                    <path d="M498.667,672.667C502.743,668.591 502.624,663.376 506,660C507.197,658.803 508,655.333 508,655.333C508,655.333 508.6,659.4 507.333,660.667C504.532,663.468 505.102,676 502,676" style="fill:none;stroke:black;stroke-width:2px;"/>
                </g>
                <g transform="matrix(0.294481,0,0,0.450302,83.8221,86.9852)">
                    <path d="M429.333,674.667C428.818,681.36 427.1,681.767 429.333,684C429.889,684.556 428.778,686.778 429.333,687.333C429.873,687.873 433.819,687.333 434.667,687.333C436.679,687.333 440.667,688 440.667,688C440.667,688 439.333,680.025 439.333,676C439.333,675.333 439.333,674 439.333,674C439.333,674 438.889,674.889 438.667,674.667C437.541,673.541 429.333,676.449 429.333,674" style="fill:none;stroke:black;stroke-width:2px;"/>
                </g>
                <g transform="matrix(0.294481,0,0,0.450302,83.8221,86.9852)">
                    <path d="M450,672.667C450.416,678.075 450.217,682.202 451.333,686.667C451.38,686.855 456.189,686.667 456.667,686.667C457.728,686.667 462.658,687.342 463.333,686.667C463.785,686.215 464.13,673.463 464,673.333C463.599,672.933 449.333,674.804 449.333,672.667" style="fill:none;stroke:black;stroke-width:2px;"/>
                </g>
                <g transform="matrix(0.294481,0,0,0.450302,83.8221,86.9852)">
                    <path d="M473.333,662C465.457,662 456.147,662.667 449.333,662.667C445.217,662.667 438.837,661.581 435.333,663.333C432.638,664.681 427.933,662.067 426,664C423.889,666.111 416.111,662.556 414,664.667C412.406,666.26 416.901,682.901 417.333,683.333C418.663,684.663 417.629,696.962 419.333,698.667C419.805,699.138 423.259,698.667 424,698.667C427.717,698.667 436.081,700.293 439.333,698.667C440.026,698.32 443.796,697.129 444.667,698C447.84,701.174 457.764,695.098 460.667,698C462.193,699.526 468.522,698.667 471.333,698.667C481.75,698.667 492.685,698 502.667,698C505.797,698 513.604,699.063 515.333,697.333C518.444,694.222 530.889,700.444 534,697.333C534.889,696.444 533.778,693.556 534.667,692.667C538.629,688.704 539.333,676.266 539.333,669.333C539.333,667.595 542.205,662.205 540.667,660.667C540.059,660.059 535.622,660.667 534.667,660.667C530.165,660.667 523.992,660.667 519.333,660.667" style="fill:none;stroke:black;stroke-width:2px;"/>
                </g>
                <g transform="matrix(0.294481,0,0,0.450302,83.8221,86.9852)">
                    <path d="M443.333,662C433.909,633.728 432,601.559 432,568.667C432,560.158 431.333,553.703 431.333,545.333C431.333,543.982 429.314,538.686 430.667,537.333C431.969,536.031 436.5,536.834 438,535.333C440.084,533.25 453.508,531.333 458.667,531.333C461.899,531.333 469.172,532.747 472,531.333C477.606,528.53 496.034,531.333 503.333,531.333C505.034,531.333 512.918,530.251 514,531.333C516.518,533.851 523.694,531.694 526,534C526.878,534.878 524.924,541.076 524.667,541.333C523.222,542.778 525.444,547.889 524,549.333C523.202,550.131 523.333,560.762 523.333,564C523.333,575.597 522,586.261 522,598C522,601.13 520.937,608.937 522.667,610.667C522.944,610.944 522.944,617.056 522.667,617.333C520.765,619.235 523.981,620.704 522.667,623.333C519.771,629.125 522.26,637.48 519.333,643.333C518.371,645.257 518.852,658.185 518,657.333" style="fill:none;stroke:black;stroke-width:2px;"/>
                </g>
                <g transform="matrix(0.294481,0,0,0.450302,83.8221,86.9852)">
                    <path d="M453.333,529.333C453.817,526.673 452.755,523.245 454.667,521.333C455.293,520.707 462.811,515.478 465.333,518C468.081,520.748 469.415,520.829 471.333,524.667C472.466,526.932 470,532.411 470,530.667" style="fill:none;stroke:black;stroke-width:2px;"/>
                </g>
                <g transform="matrix(0.294481,0,0,0.450302,83.8221,86.9852)">
                    <path d="M467.333,517.333C470.089,511.822 470.976,505.024 475.333,500.667C475.876,500.124 477.594,494.406 475.333,496.667" style="fill:none;stroke:black;stroke-width:2px;"/>
                </g>
                <g transform="matrix(0.294481,0,0,0.450302,83.8221,86.9852)">
                    <path d="M473.333,490.667C472.222,491.333 471.037,491.889 470,492.667C469.823,492.799 473.141,493.808 473.333,494C474.256,494.922 477.095,496.667 478.667,496.667C478.941,496.667 480.49,496.843 480.667,496.667C484.348,492.986 473.704,490.667 470.667,490.667" style="fill:none;stroke:black;stroke-width:2px;"/>
                </g>
                <g transform="matrix(0.294481,0,0,0.450302,83.8221,86.9852)">
                    <path d="M439.333,483.333C440.34,484.96 450.619,504.619 452,506C455.011,509.011 453.642,514.308 456.667,517.333C457.17,517.837 457.333,518.131 457.333,517.333" style="fill:none;stroke:black;stroke-width:2px;"/>
                </g>
                <g transform="matrix(0.294481,0,0,0.450302,83.8221,86.9852)">
                    <path d="M430.667,481.333C434.667,478.667 438.565,475.84 442.667,473.333C443.866,472.6 444.994,476.34 444,477.333C441.207,480.126 436.144,481.856 433.333,484.667C433.05,484.95 432.59,480 431.333,480" style="fill:none;stroke:black;stroke-width:2px;"/>
                </g>
                <g transform="matrix(0.294481,0,0,0.450302,83.8221,86.9852)">
                    <path d="M450,663.333C450,631.923 446,606.807 446,577.333C446,570.14 445.333,563.73 445.333,556.667C445.333,555.605 444.658,550.676 445.333,550C447.222,548.111 453.444,550.556 455.333,548.667C456.945,547.055 460.394,549.137 462.667,548C469.447,544.61 482.248,546.667 490.667,546.667L514.667,546.667C514.667,546.667 513.333,551.963 513.333,554.667C513.333,560.667 513.333,566.667 513.333,572.667C513.333,589.587 512.667,606.742 512.667,624C512.667,629.707 512.667,635.472 512.667,641.333C512.667,645.602 512,650.316 512,650" style="fill:none;stroke:black;stroke-width:2px;"/>
                </g>
            </g>
        </g>
    </g>
</svg>
