<?xml version="1.0" encoding="UTF-8" standalone="no"?>
<!DOCTYPE svg PUBLIC "-//W3C//DTD SVG 1.1//EN" "http://www.w3.org/Graphics/SVG/1.1/DTD/svg11.dtd">
<svg width="100%" height="100%" viewBox="0 0 184 269" version="1.1" xmlns="http://www.w3.org/2000/svg" xmlns:xlink="http://www.w3.org/1999/xlink" xml:space="preserve" style="fill-rule:evenodd;clip-rule:evenodd;stroke-linecap:round;stroke-linejoin:round;stroke-miterlimit:1.5;">
    <g transform="matrix(1,0,0,1,-216.055,-429.664)">
        <g transform="matrix(3.3958,0,0,2.22073,-284.643,-193.171)">
            <g transform="matrix(1,0,0,1,3.3355,-7.20605)">
                <g transform="matrix(0.294481,0,0,0.450302,83.8221,86.9852)">
                    <path d="M209.333,576C213.307,572.026 213.053,571.227 215.333,566.667C216.412,564.51 214.667,561.194 214.667,558.667C214.667,558 214.667,556.667 214.667,556.667C214.667,556.667 214.982,557.649 215.333,558C217,559.667 218.333,561.667 220,563.333C222.657,565.99 216.932,571.599 218.667,573.333C219.465,574.132 228.546,573.879 230,575.333C233.553,578.887 235.734,597.6 231.333,602C228.664,604.67 221.917,604.292 218.667,602.667C214.884,600.775 210.045,602.711 207.333,600C206.14,598.806 206.667,594.22 206.667,592C206.667,588.481 204.556,580.777 206.667,578.667C208.03,577.303 210,575.266 210,572.667" style="fill:none;stroke:black;stroke-width:2px;"/>
                </g>
                <g transform="matrix(0.294481,0,0,0.450302,83.8221,86.9852)">
                    <path d="M214,604C214.444,604 214,602.667 214,602.667C214,602.667 217.006,606.012 218,608C219.032,610.064 219.88,614.547 221.333,616C224.326,618.993 224.112,625.446 227.333,628.667C228.396,629.73 227.691,633.691 228.667,634.667C231.605,637.605 230.602,644.602 234,648C236.812,650.812 239.488,654.822 242,657.333C244.467,659.8 250.678,653.977 252,651.333C253.138,649.057 263.935,637.398 265.333,636C267.507,633.826 271.333,632.145 271.333,628.667" style="fill:none;stroke:black;stroke-width:2px;"/>
                </g>
                <g transform="matrix(0.294481,0,0,0.450302,83.8221,86.9852)">
                    <path d="M229.333,604C235.726,608.262 239.621,614.954 244,619.333C245.548,620.881 245.675,624.342 247.333,626C247.685,626.351 248,627.333 248,627.333C248,627.333 250.925,623.483 252,621.333C253.86,617.614 255.003,611.663 258,608.667C262.625,604.041 266.372,596.294 270.667,592C273,589.667 273,585 275.333,582.667C276.111,581.889 279.222,583.444 280,582.667C280.765,581.902 295.413,579.333 297.333,579.333" style="fill:none;stroke:black;stroke-width:2px;"/>
                </g>
                <g transform="matrix(0.294481,0,0,0.450302,83.8221,86.9852)">
                    <path d="M306.667,571.333C303.626,573.439 299.949,574.718 297.333,577.333C297.274,577.393 299.172,582.505 300.667,584C303.064,586.397 300.661,593.328 303.333,596C304.093,596.76 305.751,592.916 306,592.667C307.934,590.733 310.217,587.783 312,586C313.197,584.803 314,581.333 314,581.333C314,581.333 312.522,592.072 315.333,590.667C316.874,589.896 320.91,579.577 321.333,580C321.83,580.497 320.667,580.647 320.667,581.333C320.667,584.681 322.667,588.09 322.667,592.667C322.667,593.622 322.059,598.059 322.667,598.667C322.972,598.972 327.853,595.48 328,595.333C329.883,593.451 339.741,581.075 338,579.333C337.192,578.525 338.015,575.349 337.333,574.667C336.444,573.778 336.667,575.333 336.667,575.333C333.86,578.14 327.34,577.994 324.667,580.667C324.127,581.206 320.667,581.744 320.667,580.667" style="fill:none;stroke:black;stroke-width:2px;"/>
                </g>
                <g transform="matrix(0.294481,0,0,0.450302,83.8221,86.9852)">
                    <path d="M306.667,571.333C306.667,574.126 306.491,578.491 308,580C308.815,580.815 314.088,582.667 312.667,582.667" style="fill:none;stroke:black;stroke-width:2px;"/>
                </g>
                <g transform="matrix(0.294481,0,0,0.450302,83.8221,86.9852)">
                    <path d="M308,571.333C312.622,570.013 313.333,570.755 313.333,569.333" style="fill:none;stroke:black;stroke-width:2px;"/>
                </g>
                <g transform="matrix(0.294481,0,0,0.450302,83.8221,86.9852)">
                    <path d="M287.333,502C286.592,519.792 288.043,521.957 280,530C279.028,530.972 280.417,535.084 280.667,535.333C281.667,536.333 280.333,539.667 281.333,540.667C285.081,544.414 286.816,552.816 291.333,557.333C292.403,558.403 293.334,565.334 294.667,566.667C297.222,569.222 306.778,564.778 309.333,567.333C309.739,567.739 314.626,566.041 316,564.667C320.56,560.106 330.028,557.972 334,554C337.259,550.741 343.333,551.944 343.333,546.667" style="fill:none;stroke:black;stroke-width:2px;"/>
                </g>
                <g transform="matrix(0.294481,0,0,0.450302,83.8221,86.9852)">
                    <path d="M315.333,564.667C313.831,569.173 313.661,572.011 312,575.333C311.436,576.461 310.667,580.407 310.667,579.333" style="fill:none;stroke:black;stroke-width:2px;"/>
                </g>
                <g transform="matrix(0.294481,0,0,0.450302,83.8221,86.9852)">
                    <path d="M337.333,553.333C334.36,568.199 335.333,568.161 335.333,577.333" style="fill:none;stroke:black;stroke-width:2px;"/>
                </g>
                <g transform="matrix(0.294481,0,0,0.450302,83.8221,86.9852)">
                    <path d="M338.667,580.667C346.174,582.688 354.582,583.249 358,586.667C359.149,587.816 363.354,586.687 364.667,588C364.746,588.079 370.038,591.333 367.333,591.333" style="fill:none;stroke:black;stroke-width:2px;"/>
                </g>
                <g transform="matrix(0.294481,0,0,0.450302,83.8221,86.9852)">
                    <path d="M272.667,611.333C271.174,629.987 272.667,645.827 272.667,663.333C272.667,667.314 271.063,679.063 273.333,681.333C274.578,682.578 273.36,702.026 274,702.667C276.549,705.215 280.385,710.385 281.333,711.333C282.212,712.212 288.619,711.333 290,711.333C293.191,711.333 296.698,712.667 296,712.667" style="fill:none;stroke:black;stroke-width:2px;"/>
                </g>
                <g transform="matrix(0.294481,0,0,0.450302,83.8221,86.9852)">
                    <path d="M314,590C313.026,596.328 311.361,609.278 308.667,614.667C307.201,617.598 308.713,623.287 306.667,625.333C305.284,626.716 306.499,638.167 304.667,640C302.222,642.444 305.778,650.889 303.333,653.333C302.111,654.556 304.556,659.444 303.333,660.667C302,662 304,666.667 302.667,668C298.52,672.147 303.298,683.403 300.667,688.667C298.517,692.965 296.667,708.45 296.667,713.333" style="fill:none;stroke:black;stroke-width:2px;"/>
                </g>
                <g transform="matrix(0.294481,0,0,0.450302,83.8221,86.9852)">
                    <path d="M296.667,712.667C303.778,712.667 310.889,712.667 318,712.667C319.132,712.667 323.281,713.385 323.333,713.333C326.129,710.537 331.805,702.667 336,702.667" style="fill:none;stroke:black;stroke-width:2px;"/>
                </g>
                <g transform="matrix(0.294481,0,0,0.450302,83.8221,86.9852)">
                    <path d="M367.333,590.667C365.712,593.099 364.668,593.332 363.333,594.667C360.995,597.005 361.07,602.93 358.667,605.333C356.161,607.839 356.852,619.814 354,622.667C351.619,625.048 352.216,637.118 348.667,640.667C347.443,641.891 348.483,646.851 347.333,648C343.659,651.675 345.05,661.616 341.333,665.333C340.252,666.415 341.234,671.432 340,672.667C337.956,674.711 336.667,688.174 336.667,690.667C336.667,693.741 336,697.184 336,699.333C336,700.318 336,704.537 336,703.333" style="fill:none;stroke:black;stroke-width:2px;"/>
                </g>
                <g transform="matrix(0.294481,0,0,0.450302,83.8221,86.9852)">
                    <path d="M286.667,500.667C281.68,500.667 277.795,493.128 274.667,490C273.176,488.509 272.667,484 272.667,484C272.667,484 273.649,484.315 274,484.667C275.833,486.5 280.937,486.27 282.667,488C283.138,488.471 284.667,488 284.667,488C284.667,488 282.339,486.339 281.333,485.333C279.556,483.556 279.778,479.778 278,478C277.48,477.48 276.029,457.971 277.333,456.667C277.873,456.127 278,449.143 278,448.667C278,448 278,446.667 278,446.667C278,446.667 278.997,453.664 281.333,456C285.111,459.778 288.889,463.556 292.667,467.333C295.068,469.735 303.387,470.053 306,472.667C306.5,473.166 314.517,475.483 315.333,474.667C316.267,473.733 314.472,465.139 314,464.667C312.272,462.938 314,457.333 314,457.333C314,457.333 316.167,462.168 318,464C320.592,466.592 323.817,469.15 327.333,472.667C333.171,478.504 346.406,483.072 350.667,487.333C352.5,489.166 362.801,488.801 364.667,490.667C365.521,491.521 364.105,494.876 364.667,496C367.865,502.397 365.253,513.414 362,516.667C361.133,517.533 359.333,525.615 359.333,524.667" style="fill:none;stroke:black;stroke-width:2px;"/>
                </g>
                <g transform="matrix(0.294481,0,0,0.450302,83.8221,86.9852)">
                    <path d="M287.333,501.333C292.529,502.532 304,504.182 304,502" style="fill:none;stroke:black;stroke-width:2px;"/>
                </g>
                <g transform="matrix(0.294481,0,0,0.450302,83.8221,86.9852)">
                    <path d="M294,491.333C301.009,496.281 309.047,500.38 312.667,504C313.977,505.311 326.78,501.887 327.333,501.333C327.83,500.836 329.333,500.667 329.333,500.667C329.333,500.667 331.184,504.518 332.667,506C334.643,507.976 342.185,504.852 344,506.667C346.368,509.035 347.333,519.575 347.333,526C347.333,527.759 344.721,533.387 346,534.667C348.639,537.306 354.9,525.1 356,524C356.924,523.076 360,523.204 360,523.333" style="fill:none;stroke:black;stroke-width:2px;"/>
                </g>
                <g transform="matrix(0.294481,0,0,0.450302,83.8221,86.9852)">
                    <path d="M355.333,527.333C356.932,520.937 359.674,525.674 361.333,527.333C361.72,527.72 358.5,535.5 358,536C356.426,537.574 355.896,540.771 354,542.667C352.183,544.484 346.344,541.656 345.333,542.667C344.073,543.927 343.38,550 341.333,550" style="fill:none;stroke:black;stroke-width:2px;"/>
                </g>
                <g transform="matrix(0.294481,0,0,0.450302,83.8221,86.9852)">
                    <path d="M293.333,522.667C293.333,523.441 292.667,523.115 292.667,524C292.667,526.927 295.989,523.989 294.667,522.667C293.739,521.739 292.214,524.214 292.667,524.667C293.248,525.248 295.191,524 293.333,524" style="fill:none;stroke:black;stroke-width:2px;"/>
                </g>
                <g transform="matrix(0.294481,0,0,0.450302,83.8221,86.9852)">
                    <path d="M326,525.333C326,526.28 324.493,526.173 324,526.667C323.778,526.889 324.6,527.933 324.667,528C325.129,528.462 326.204,528.462 326.667,528C327.47,527.196 324.819,526.667 326,526.667" style="fill:none;stroke:black;stroke-width:2px;"/>
                </g>
                <g transform="matrix(0.294481,0,0,0.450302,83.8221,86.9852)">
                    <path d="M319.333,522.667C321.747,522.063 326.742,521.924 328,520.667C328.943,519.724 332,520.667 332,520.667C332,520.667 330.667,520.836 330.667,521.333" style="fill:none;stroke:black;stroke-width:2px;"/>
                </g>
                <g transform="matrix(0.294481,0,0,0.450302,83.8221,86.9852)">
                    <path d="M300.667,517.333C293.941,515.316 294.007,516 290,516" style="fill:none;stroke:black;stroke-width:2px;"/>
                </g>
                <g transform="matrix(0.294481,0,0,0.450302,83.8221,86.9852)">
                    <path d="M291.333,542.667C299.556,542.889 307.778,543.117 316,543.333C318.401,543.397 321.441,544.108 320.667,543.333" style="fill:none;stroke:black;stroke-width:2px;"/>
                </g>
                <g transform="matrix(0.294481,0,0,0.450302,83.8221,86.9852)">
                    <path d="M291.333,543.333C293.258,547.183 301.181,558.409 304.667,556.667C310.079,553.96 313.802,550.864 317.333,547.333C317.76,546.906 323.824,544 322,544" style="fill:none;stroke:black;stroke-width:2px;"/>
                </g>
            </g>
        </g>
        <g transform="matrix(3.3958,0,0,2.22073,-284.643,-193.171)">
            <g transform="matrix(0.208656,0.0228494,-0.0241308,0.515253,129.023,55.4338)">
                <rect x="192" y="480" width="211.158" height="20.921"/>
            </g>
        </g>
        <g transform="matrix(3.3958,0,0,2.22073,-284.643,-193.171)">
            <g transform="matrix(0.293729,0.0321655,-0.0210351,0.449152,98.7921,202.634)">
                <path d="M227.527,219.926C227.701,219.909 227.904,219.887 228.138,219.861C228.372,219.835 228.563,219.814 228.71,219.796C228.858,219.779 228.949,219.77 228.983,219.77C229.191,219.753 229.477,219.783 229.841,219.861C230.205,219.939 230.565,220.048 230.92,220.186C231.276,220.325 231.557,220.464 231.765,220.602C231.991,220.758 232.246,220.966 232.532,221.226C232.818,221.486 233.087,221.759 233.338,222.045C233.59,222.331 233.793,222.587 233.949,222.812C234.123,223.072 234.209,223.74 234.209,224.814C234.209,225.542 234.175,226.075 234.105,226.413C234.036,226.751 233.893,227.024 233.676,227.232C233.46,227.44 233.091,227.674 232.571,227.934C231.809,228.264 231.401,228.454 231.349,228.506C231.315,228.558 231.618,228.94 232.259,229.65C232.779,230.222 233.161,230.725 233.403,231.158C233.646,231.592 234.001,232.424 234.469,233.654C234.799,234.486 234.976,235.041 235.002,235.318C235.028,235.596 234.929,235.812 234.703,235.968C234.391,236.159 234.114,236.068 233.871,235.695C233.629,235.323 233.152,234.252 232.441,232.484C232.147,231.722 231.644,230.994 230.933,230.3L229.841,229.26L228.957,229.286C228.507,229.321 228.234,229.369 228.138,229.429C228.043,229.49 227.961,229.659 227.891,229.936C227.822,230.3 227.735,231.28 227.631,232.874C227.527,234.452 227.415,235.292 227.293,235.396C227.172,235.518 226.981,235.561 226.721,235.526C226.409,235.474 226.214,235.197 226.136,234.694C226.058,234.192 226.08,233.325 226.201,232.094C226.34,230.621 226.405,228.831 226.396,226.725C226.388,224.619 226.305,223.159 226.149,222.344C225.993,221.547 225.915,221.062 225.915,220.888C225.915,220.715 225.985,220.533 226.123,220.342C226.262,220.134 226.73,219.996 227.527,219.926ZM230.387,221.46C230.179,221.374 229.82,221.326 229.308,221.317C228.797,221.309 228.342,221.339 227.943,221.408C227.753,221.443 227.644,221.504 227.618,221.59C227.592,221.677 227.614,221.928 227.683,222.344C227.753,222.882 227.831,223.887 227.917,225.36L228.021,227.492L229.061,227.44C229.599,227.406 230.21,227.293 230.894,227.102C231.579,226.912 232.103,226.695 232.467,226.452C232.589,226.366 232.675,226.275 232.727,226.179C232.779,226.084 232.814,225.95 232.831,225.776C232.849,225.603 232.857,225.3 232.857,224.866L232.857,223.54L231.869,222.578C231.176,221.937 230.682,221.564 230.387,221.46Z" style="fill:white;fill-rule:nonzero;"/>
                <path d="M240.423,223.202C241.689,222.752 242.668,222.682 243.361,222.994C243.881,223.237 244.371,223.826 244.83,224.762C245.29,225.698 245.519,226.591 245.519,227.44C245.519,227.804 245.42,228.116 245.22,228.376C245.021,228.636 244.765,228.766 244.453,228.766C244.176,228.766 243.483,228.905 242.373,229.182C241.264,229.46 240.371,229.598 239.695,229.598C239.071,229.598 238.725,229.642 238.655,229.728C238.621,229.815 238.742,230.144 239.019,230.716C239.21,231.046 239.435,231.319 239.695,231.535C239.955,231.752 240.28,231.934 240.67,232.081C241.06,232.229 241.55,232.363 242.139,232.484C242.677,232.588 243.054,232.627 243.27,232.601C243.487,232.575 243.899,232.432 244.505,232.172C245.32,231.808 245.892,231.488 246.221,231.21C246.516,230.968 246.711,230.838 246.806,230.82C246.902,230.803 247.027,230.864 247.183,231.002C247.495,231.314 247.452,231.713 247.053,232.198C246.88,232.424 246.386,232.744 245.571,233.16C244.757,233.576 244.115,233.836 243.647,233.94C243.058,234.062 242.204,233.962 241.086,233.641C239.968,233.321 239.167,232.944 238.681,232.51C238.161,232.042 237.693,231.262 237.277,230.17C236.861,229.078 236.723,228.264 236.861,227.726C236.931,227.432 237.048,227.068 237.212,226.634C237.377,226.201 237.55,225.785 237.732,225.386C237.914,224.988 238.075,224.693 238.213,224.502C238.421,224.208 238.655,223.982 238.915,223.826C239.175,223.67 239.678,223.462 240.423,223.202ZM243.309,224.866C242.997,224.433 242.672,224.203 242.334,224.177C241.996,224.151 241.411,224.286 240.579,224.58C240.25,224.719 239.999,224.832 239.825,224.918C239.652,225.005 239.492,225.135 239.344,225.308C239.197,225.482 239.071,225.672 238.967,225.88C238.863,226.088 238.742,226.392 238.603,226.79C238.326,227.518 238.213,227.943 238.265,228.064C238.317,228.186 238.655,228.246 239.279,228.246C239.973,228.229 240.948,228.064 242.204,227.752C243.461,227.44 244.072,227.206 244.037,227.05C243.933,226.114 243.691,225.386 243.309,224.866Z" style="fill:white;fill-rule:nonzero;"/>
                <path d="M249.393,221.2C249.671,220.854 249.939,220.836 250.199,221.148C250.303,221.287 250.39,222.916 250.459,226.036C250.511,229.122 250.633,231.072 250.823,231.886C251.205,233.637 251.17,234.634 250.719,234.876C250.477,235.015 250.251,234.985 250.043,234.785C249.835,234.586 249.731,234.313 249.731,233.966C249.731,233.637 249.636,233.03 249.445,232.146C249.324,231.626 249.246,230.981 249.211,230.209C249.177,229.438 249.159,228.09 249.159,226.166C249.177,223.012 249.255,221.356 249.393,221.2Z" style="fill:white;fill-rule:nonzero;"/>
                <path d="M257.323,224.502C257.739,224.416 258.411,224.394 259.338,224.437C260.266,224.481 260.842,224.563 261.067,224.684C261.258,224.806 261.414,225.014 261.535,225.308C261.605,225.499 261.626,225.646 261.6,225.75C261.574,225.854 261.466,226.01 261.275,226.218C261.067,226.426 260.942,226.647 260.898,226.881C260.855,227.115 260.833,227.718 260.833,228.688C260.833,230.075 260.92,231.158 261.093,231.938C261.197,232.476 261.297,232.848 261.392,233.056C261.488,233.264 261.657,233.472 261.899,233.68C262.177,233.923 262.324,234.079 262.341,234.148C262.359,234.218 262.289,234.339 262.133,234.512C261.925,234.755 261.709,234.876 261.483,234.876C261.241,234.876 260.959,234.694 260.638,234.33C260.318,233.966 260.105,233.594 260.001,233.212C259.88,232.727 259.776,232.484 259.689,232.484C259.585,232.484 259.343,232.692 258.961,233.108C258.563,233.542 258.19,233.828 257.843,233.966C257.497,234.105 256.942,234.209 256.179,234.278C255.191,234.348 254.52,234.278 254.164,234.07C253.809,233.862 253.501,233.368 253.241,232.588C253.068,232.086 252.96,231.657 252.916,231.301C252.873,230.946 252.869,230.456 252.903,229.832C252.921,229.156 252.964,228.671 253.033,228.376C253.103,228.082 253.276,227.666 253.553,227.128C253.848,226.574 254.082,226.21 254.255,226.036C254.429,225.863 254.81,225.62 255.399,225.308C256.197,224.875 256.838,224.606 257.323,224.502ZM259.195,227.388L259.065,225.776L258.389,225.75C258.112,225.733 257.869,225.742 257.661,225.776C257.453,225.811 257.224,225.876 256.972,225.971C256.721,226.067 256.396,226.218 255.997,226.426C255.651,226.6 255.391,226.773 255.217,226.946C255.044,227.12 254.862,227.397 254.671,227.778C254.047,228.992 253.935,230.335 254.333,231.808L254.645,232.926L255.737,232.978C256.465,232.996 257.029,232.9 257.427,232.692C257.826,232.484 258.251,232.06 258.701,231.418C258.719,231.384 258.753,231.34 258.805,231.288C259.117,230.82 259.291,230.435 259.325,230.131C259.36,229.828 259.325,229.018 259.221,227.7C259.204,227.562 259.195,227.458 259.195,227.388Z" style="fill:white;fill-rule:nonzero;"/>
                <path d="M266.891,222.474C267.03,220.81 267.16,219.913 267.281,219.783C267.403,219.653 267.559,219.588 267.749,219.588C268.044,219.588 268.23,219.753 268.308,220.082C268.386,220.412 268.417,221.174 268.399,222.37L268.347,224.736L269.829,224.684C270.627,224.667 271.16,224.706 271.428,224.801C271.697,224.897 271.831,225.083 271.831,225.36C271.831,225.603 271.688,225.776 271.402,225.88C271.116,225.984 270.653,226.036 270.011,226.036C269.249,226.036 268.781,226.088 268.607,226.192C268.417,226.331 268.677,228.264 269.387,231.99C269.422,232.198 269.405,232.402 269.335,232.601C269.266,232.801 269.158,232.961 269.01,233.082C268.863,233.204 268.703,233.264 268.529,233.264C268.217,233.264 268.009,233.178 267.905,233.004C267.819,232.831 267.68,231.982 267.489,230.456C267.281,228.948 267.117,227.934 266.995,227.414L266.813,226.66L265.643,226.634C264.863,226.634 264.404,226.53 264.265,226.322C264.109,226.062 264.127,225.85 264.317,225.685C264.508,225.521 264.881,225.404 265.435,225.334C266.094,225.248 266.458,225.161 266.527,225.074C266.631,224.988 266.753,224.121 266.891,222.474Z" style="fill:white;fill-rule:nonzero;"/>
                <path d="M278.071,224.502C278.487,224.416 279.159,224.394 280.086,224.437C281.014,224.481 281.59,224.563 281.815,224.684C282.006,224.806 282.162,225.014 282.283,225.308C282.353,225.499 282.374,225.646 282.348,225.75C282.322,225.854 282.214,226.01 282.023,226.218C281.815,226.426 281.69,226.647 281.646,226.881C281.603,227.115 281.581,227.718 281.581,228.688C281.581,230.075 281.668,231.158 281.841,231.938C281.945,232.476 282.045,232.848 282.14,233.056C282.236,233.264 282.405,233.472 282.647,233.68C282.925,233.923 283.072,234.079 283.089,234.148C283.107,234.218 283.037,234.339 282.881,234.512C282.673,234.755 282.457,234.876 282.231,234.876C281.989,234.876 281.707,234.694 281.386,234.33C281.066,233.966 280.853,233.594 280.749,233.212C280.628,232.727 280.524,232.484 280.437,232.484C280.333,232.484 280.091,232.692 279.709,233.108C279.311,233.542 278.938,233.828 278.591,233.966C278.245,234.105 277.69,234.209 276.927,234.278C275.939,234.348 275.268,234.278 274.912,234.07C274.557,233.862 274.249,233.368 273.989,232.588C273.816,232.086 273.708,231.657 273.664,231.301C273.621,230.946 273.617,230.456 273.651,229.832C273.669,229.156 273.712,228.671 273.781,228.376C273.851,228.082 274.024,227.666 274.301,227.128C274.596,226.574 274.83,226.21 275.003,226.036C275.177,225.863 275.558,225.62 276.147,225.308C276.945,224.875 277.586,224.606 278.071,224.502ZM279.943,227.388L279.813,225.776L279.137,225.75C278.86,225.733 278.617,225.742 278.409,225.776C278.201,225.811 277.972,225.876 277.72,225.971C277.469,226.067 277.144,226.218 276.745,226.426C276.399,226.6 276.139,226.773 275.965,226.946C275.792,227.12 275.61,227.397 275.419,227.778C274.795,228.992 274.683,230.335 275.081,231.808L275.393,232.926L276.485,232.978C277.213,232.996 277.777,232.9 278.175,232.692C278.574,232.484 278.999,232.06 279.449,231.418C279.467,231.384 279.501,231.34 279.553,231.288C279.865,230.82 280.039,230.435 280.073,230.131C280.108,229.828 280.073,229.018 279.969,227.7C279.952,227.562 279.943,227.458 279.943,227.388Z" style="fill:white;fill-rule:nonzero;"/>
                <path d="M285.195,221.824C285.351,221.599 285.473,221.482 285.559,221.473C285.646,221.465 285.785,221.547 285.975,221.72C286.114,221.842 286.196,222.037 286.222,222.305C286.248,222.574 286.235,223.202 286.183,224.19C286.114,225.646 286.14,226.374 286.261,226.374C286.365,226.374 286.461,226.262 286.547,226.036C286.755,225.395 287.596,224.979 289.069,224.788C289.797,224.702 290.352,224.65 290.733,224.632C291.115,224.615 291.466,224.654 291.786,224.749C292.107,224.845 292.363,224.983 292.553,225.165C292.744,225.347 292.978,225.629 293.255,226.01C293.827,226.773 294.2,227.41 294.373,227.921C294.547,228.433 294.633,229.182 294.633,230.17C294.633,230.777 294.62,231.197 294.594,231.431C294.568,231.665 294.525,231.86 294.464,232.016C294.404,232.172 294.287,232.372 294.113,232.614C293.749,233.117 293.303,233.455 292.774,233.628C292.246,233.802 291.375,233.897 290.161,233.914L288.211,233.94L287.275,233.29C286.651,232.874 286.279,232.666 286.157,232.666C286.001,232.666 285.871,232.51 285.767,232.198C285.663,231.886 285.559,231.332 285.455,230.534C285.438,230.413 285.308,229.451 285.065,227.648C284.927,226.712 284.875,225.573 284.909,224.229C284.944,222.886 285.039,222.084 285.195,221.824ZM292.215,226.842C291.921,226.478 291.7,226.253 291.552,226.166C291.405,226.08 291.193,226.045 290.915,226.062C289.546,226.132 288.736,226.192 288.484,226.244C288.233,226.296 288.021,226.435 287.847,226.66C287.466,227.128 287.206,228.281 287.067,230.118C287.015,230.742 287.002,231.128 287.028,231.275C287.054,231.423 287.189,231.583 287.431,231.756C288.021,232.19 288.497,232.454 288.861,232.549C289.225,232.645 289.832,232.658 290.681,232.588C291.392,232.536 291.864,232.476 292.098,232.406C292.332,232.337 292.571,232.198 292.813,231.99C293.021,231.782 293.164,231.592 293.242,231.418C293.32,231.245 293.377,230.933 293.411,230.482C293.498,229.148 293.099,227.934 292.215,226.842Z" style="fill:white;fill-rule:nonzero;"/>
                <path d="M296.661,221.2C296.939,220.854 297.207,220.836 297.467,221.148C297.571,221.287 297.658,222.916 297.727,226.036C297.779,229.122 297.901,231.072 298.091,231.886C298.473,233.637 298.438,234.634 297.987,234.876C297.745,235.015 297.519,234.985 297.311,234.785C297.103,234.586 296.999,234.313 296.999,233.966C296.999,233.637 296.904,233.03 296.713,232.146C296.592,231.626 296.514,230.981 296.479,230.209C296.445,229.438 296.427,228.09 296.427,226.166C296.445,223.012 296.523,221.356 296.661,221.2Z" style="fill:white;fill-rule:nonzero;"/>
                <path d="M303.759,223.202C305.025,222.752 306.004,222.682 306.697,222.994C307.217,223.237 307.707,223.826 308.166,224.762C308.626,225.698 308.855,226.591 308.855,227.44C308.855,227.804 308.756,228.116 308.556,228.376C308.357,228.636 308.101,228.766 307.789,228.766C307.512,228.766 306.819,228.905 305.709,229.182C304.6,229.46 303.707,229.598 303.031,229.598C302.407,229.598 302.061,229.642 301.991,229.728C301.957,229.815 302.078,230.144 302.355,230.716C302.546,231.046 302.771,231.319 303.031,231.535C303.291,231.752 303.616,231.934 304.006,232.081C304.396,232.229 304.886,232.363 305.475,232.484C306.013,232.588 306.39,232.627 306.606,232.601C306.823,232.575 307.235,232.432 307.841,232.172C308.656,231.808 309.228,231.488 309.557,231.21C309.852,230.968 310.047,230.838 310.142,230.82C310.238,230.803 310.363,230.864 310.519,231.002C310.831,231.314 310.788,231.713 310.389,232.198C310.216,232.424 309.722,232.744 308.907,233.16C308.093,233.576 307.451,233.836 306.983,233.94C306.394,234.062 305.54,233.962 304.422,233.641C303.304,233.321 302.503,232.944 302.017,232.51C301.497,232.042 301.029,231.262 300.613,230.17C300.197,229.078 300.059,228.264 300.197,227.726C300.267,227.432 300.384,227.068 300.548,226.634C300.713,226.201 300.886,225.785 301.068,225.386C301.25,224.988 301.411,224.693 301.549,224.502C301.757,224.208 301.991,223.982 302.251,223.826C302.511,223.67 303.014,223.462 303.759,223.202ZM306.645,224.866C306.333,224.433 306.008,224.203 305.67,224.177C305.332,224.151 304.747,224.286 303.915,224.58C303.586,224.719 303.335,224.832 303.161,224.918C302.988,225.005 302.828,225.135 302.68,225.308C302.533,225.482 302.407,225.672 302.303,225.88C302.199,226.088 302.078,226.392 301.939,226.79C301.662,227.518 301.549,227.943 301.601,228.064C301.653,228.186 301.991,228.246 302.615,228.246C303.309,228.229 304.284,228.064 305.54,227.752C306.797,227.44 307.408,227.206 307.373,227.05C307.269,226.114 307.027,225.386 306.645,224.866Z" style="fill:white;fill-rule:nonzero;"/>
                <path d="M330.435,220.42C331.129,220.351 331.64,220.338 331.969,220.381C332.299,220.425 332.55,220.533 332.723,220.706C332.897,220.862 332.923,221.04 332.801,221.239C332.68,221.439 332.134,221.573 331.163,221.642C330.279,221.729 329.551,221.898 328.979,222.149C328.407,222.401 327.887,222.786 327.419,223.306C327.021,223.74 326.735,224.134 326.561,224.489C326.388,224.845 326.241,225.352 326.119,226.01C325.981,226.686 325.959,227.297 326.054,227.843C326.15,228.389 326.371,229 326.717,229.676C327.185,230.543 327.788,231.258 328.524,231.821C329.261,232.385 329.967,232.666 330.643,232.666C331.007,232.666 331.445,232.545 331.956,232.302C332.468,232.06 332.888,231.774 333.217,231.444C333.616,231.08 333.837,230.829 333.88,230.69C333.924,230.552 333.859,230.283 333.685,229.884C333.616,229.728 333.547,229.603 333.477,229.507C333.408,229.412 333.313,229.338 333.191,229.286C333.07,229.234 332.905,229.174 332.697,229.104C332.177,228.983 331.757,228.922 331.436,228.922C331.116,228.922 330.825,228.831 330.565,228.649C330.305,228.467 330.175,228.255 330.175,228.012C330.175,227.7 330.284,227.492 330.5,227.388C330.717,227.284 331.12,227.232 331.709,227.232C332.524,227.232 333.503,227.163 334.647,227.024C335.549,226.92 336.099,226.877 336.298,226.894C336.498,226.912 336.684,227.007 336.857,227.18C337.013,227.354 337.096,227.479 337.104,227.557C337.113,227.635 337.057,227.77 336.935,227.96C336.762,228.22 336.433,228.394 335.947,228.48C335.462,228.567 335.185,228.654 335.115,228.74C335.046,228.827 335.081,229.07 335.219,229.468C335.393,229.936 335.466,230.331 335.44,230.651C335.414,230.972 335.289,231.314 335.063,231.678C334.647,232.389 334.019,232.961 333.178,233.394C332.338,233.828 331.458,234.044 330.539,234.044C329.569,234.044 328.624,233.689 327.705,232.978C326.787,232.268 326.015,231.288 325.391,230.04L324.715,228.662L324.793,226.79C324.811,226.201 324.837,225.763 324.871,225.477C324.906,225.191 324.954,224.94 325.014,224.723C325.075,224.507 325.183,224.26 325.339,223.982C325.686,223.306 326.119,222.708 326.639,222.188C327.159,221.668 327.74,221.261 328.381,220.966C329.023,220.672 329.707,220.49 330.435,220.42Z" style="fill:white;fill-rule:nonzero;"/>
                <path d="M345.489,224.19C345.68,224.052 345.823,223.991 345.918,224.008C346.014,224.026 346.165,224.138 346.373,224.346C346.547,224.52 346.646,224.784 346.672,225.139C346.698,225.495 346.694,226.496 346.659,228.142C346.642,229.165 346.616,229.958 346.581,230.521C346.547,231.085 346.473,231.574 346.36,231.99C346.248,232.406 346.113,232.723 345.957,232.939C345.801,233.156 345.576,233.377 345.281,233.602C344.987,233.828 344.735,233.958 344.527,233.992C344.319,234.027 343.834,234.027 343.071,233.992C342.378,233.958 341.901,233.914 341.641,233.862C341.381,233.81 341.104,233.68 340.809,233.472C339.457,232.588 338.825,230.56 338.911,227.388C338.946,226.314 339.024,225.733 339.145,225.646C339.18,225.612 339.258,225.586 339.379,225.568C339.639,225.516 339.83,225.551 339.951,225.672C340.073,225.794 340.177,226.556 340.263,227.96C340.367,229.694 340.601,230.872 340.965,231.496C341.329,232.12 341.997,232.484 342.967,232.588C343.487,232.64 343.821,232.649 343.968,232.614C344.116,232.58 344.285,232.467 344.475,232.276C344.666,232.068 344.809,231.8 344.904,231.47C345,231.141 345.065,230.673 345.099,230.066C345.134,229.46 345.16,228.558 345.177,227.362C345.177,226.028 345.195,225.183 345.229,224.827C345.264,224.472 345.351,224.26 345.489,224.19Z" style="fill:white;fill-rule:nonzero;"/>
                <path d="M355.369,224.866C355.577,224.641 355.755,224.528 355.902,224.528C356.05,224.528 356.253,224.632 356.513,224.84C356.704,224.979 356.817,225.161 356.851,225.386C356.886,225.612 356.895,226.201 356.877,227.154C356.86,227.518 356.847,227.917 356.838,228.35C356.83,228.784 356.821,229.135 356.812,229.403C356.804,229.672 356.795,229.971 356.786,230.3C356.778,230.63 356.782,230.95 356.799,231.262C356.817,231.574 356.851,231.904 356.903,232.25C357.111,233.81 356.895,235.067 356.253,236.02C355.907,236.506 355.551,236.883 355.187,237.151C354.823,237.42 354.321,237.65 353.679,237.84C353.211,237.996 352.856,238.074 352.613,238.074C352.371,238.074 351.877,238.005 351.131,237.866C349.381,237.537 348.505,237.112 348.505,236.592C348.505,236.072 348.869,235.899 349.597,236.072C351.539,236.488 352.821,236.601 353.445,236.41C354.208,236.15 354.737,235.778 355.031,235.292C355.326,234.807 355.473,234.079 355.473,233.108C355.473,232.242 355.43,231.808 355.343,231.808C355.274,231.808 354.927,231.964 354.303,232.276C353.419,232.71 352.453,232.818 351.404,232.601C350.356,232.385 349.615,231.921 349.181,231.21C348.852,230.656 348.687,229.698 348.687,228.337C348.687,226.977 348.852,226.088 349.181,225.672L349.519,225.282L349.857,225.62C350.013,225.776 350.1,225.95 350.117,226.14C350.135,226.331 350.109,226.79 350.039,227.518C349.935,228.628 349.953,229.408 350.091,229.858C350.23,230.309 350.551,230.664 351.053,230.924C352.44,231.635 353.619,231.375 354.589,230.144L355.135,229.468L355.083,227.336C355.066,226.4 355.075,225.794 355.109,225.516C355.144,225.239 355.231,225.022 355.369,224.866Z" style="fill:white;fill-rule:nonzero;"/>
            </g>
        </g>
    </g>
</svg>
