<?xml version="1.0" encoding="UTF-8" standalone="no"?>
<!DOCTYPE svg PUBLIC "-//W3C//DTD SVG 1.1//EN" "http://www.w3.org/Graphics/SVG/1.1/DTD/svg11.dtd">
<svg width="100%" height="100%" viewBox="0 0 135 97" version="1.1" xmlns="http://www.w3.org/2000/svg" xmlns:xlink="http://www.w3.org/1999/xlink" xml:space="preserve" style="fill-rule:evenodd;clip-rule:evenodd;stroke-linejoin:round;stroke-miterlimit:1.41421;">
    <g transform="matrix(1,0,0,1,-333.867,-247.787)">
        <g transform="matrix(3.3958,0,0,2.22073,-284.643,-193.171)">
            <g transform="matrix(0.294481,0,0,0.450302,149.553,88.4652)">
                <path d="M129.42,244.596C128.796,244.548 128.172,244.5 127.5,244.5C119.484,244.5 110.658,250.595 110.658,256.978C110.658,260.434 112.48,261.633 115.788,261.633C115.74,261.201 115.116,260.818 115.116,258.37C115.116,253.283 117.612,249.635 121.836,247.86L114.877,280.494L121.788,280.494L125.628,262.401C126.396,262.305 127.308,262.209 128.22,262.209C129.228,262.209 130.236,262.305 131.292,262.689L127.5,280.494L134.412,280.494L142.044,244.596L135.132,244.596L132.156,258.61C131.82,258.562 131.436,258.562 131.1,258.562C129.564,258.562 127.932,258.898 126.3,259.186L129.42,244.596Z" style="fill:none;"/>
                <path d="M143.727,256.495L140.274,272.819C140.082,273.732 139.986,274.548 139.986,275.268C139.986,278.864 142.288,280.494 145.981,280.494C149.724,280.494 155.148,274.116 157.356,271.907L155.724,271.907C153.804,273.444 151.308,276.132 149.388,276.132C147.468,276.132 146.988,275.364 146.988,274.308C146.988,273.876 147.084,273.347 147.18,272.819L150.636,256.495L143.727,256.495ZM144.642,250.161C144.642,252.272 146.321,253.95 148.431,253.95C150.542,253.95 152.268,252.272 152.268,250.161C152.268,248.051 150.542,246.324 148.431,246.324C146.321,246.324 144.642,248.051 144.642,250.161Z" style="fill:none;"/>
                <path d="M156.594,256.5L148.962,292.494L156.21,290.773L158.706,279.057C160.146,279.967 161.634,280.494 163.218,280.494C168.114,280.494 172.238,276.996 173.725,266.652C173.916,265.401 174.012,264.295 174.012,263.284C174.012,258.32 171.663,256.548 166.674,256.548C165.474,256.548 164.322,256.883 163.314,257.41L163.506,256.5L156.594,256.5ZM162.45,276.948C161.682,276.948 160.482,276.948 159.33,276.082L162.786,259.916C163.698,259.279 164.61,258.894 165.522,258.894C167.058,258.894 168.21,259.472 168.21,262.361C168.21,263.516 168.018,265.105 167.586,267.223C166.002,274.878 164.85,276.948 162.45,276.948Z" style="fill:none;"/>
                <path d="M182.268,256.98C181.453,260.628 180.35,264.9 178.623,268.02C176.705,268.164 174.978,270.372 174.978,274.212C174.978,278.914 177.664,280.494 183.182,280.494C187.648,280.494 190.382,278.674 191.629,276.036C193.548,274.404 195.468,272.724 196.812,271.668L195.564,270.036C194.988,270.708 193.788,271.956 192.444,273.156C192.492,272.82 192.492,272.484 192.492,272.148C192.492,266.532 189.228,264.132 189.228,256.212L189.228,255.54L182.268,256.98ZM182.316,270.948C182.316,269.508 181.885,268.644 180.733,268.26C181.789,265.86 182.461,262.788 183.234,260.436C183.329,266.436 185.49,268.98 185.49,271.956C185.49,275.65 183.137,277.662 181.503,277.662C178.957,277.662 177.42,276.416 177.42,273.588C177.997,273.876 178.573,274.02 179.15,274.02C180.829,274.02 182.316,272.772 182.316,270.948Z" style="fill:none;"/>
                <path d="M199.983,249.876L198.543,256.5L196.959,256.5L196.575,258.414L198.159,258.414C197.343,262.544 194.847,272.723 194.847,275.268C194.847,278.864 197.103,280.494 200.799,280.494C204.543,280.494 209.967,274.116 212.175,271.907L210.543,271.907C208.623,273.443 206.127,276.132 204.207,276.132C202.287,276.132 201.807,275.412 201.807,274.308C201.807,274.068 201.759,273.587 205.071,258.414L207.951,258.414L208.335,256.5L205.455,256.5C206.367,252.18 207.087,248.916 207.087,248.916L199.983,249.876Z" style="fill:none;"/>
                <path d="M214.284,272.915C214.284,272.339 214.332,271.619 214.428,270.85C218.992,270.274 225.276,266.913 225.276,261.055C225.276,257.696 223.073,256.068 219.136,256.068C210.4,256.068 207.81,266.769 207.81,272.867C207.81,276.996 210.304,280.494 214.909,280.494C221.105,280.494 225.708,275.652 228.444,270.706L226.284,270.706C224.606,274.259 220.577,277.044 218.223,277.044C216.35,277.044 214.284,276.084 214.284,272.915ZM222.402,261.295C222.354,264.706 219.232,268.5 214.813,268.548C215.821,264.033 218.031,258.606 220.721,258.606C222.162,258.606 222.402,260.287 222.402,261.296L222.402,261.295Z" style="fill:none;"/>
                <path d="M229.311,256.5L224.223,280.494L231.135,280.494L235.119,261.678C236.223,260.67 236.991,260.142 238.431,260.142C239.871,260.142 238.527,263.31 241.215,263.31C243.567,263.31 244.815,261.246 244.815,259.567C244.815,257.746 243.519,256.5 241.359,256.5C239.343,256.5 237.423,257.555 235.695,258.896L236.223,256.5L229.311,256.5Z" style="fill:none;"/>
                <path d="M144.924,311.075C144.156,311.171 143.436,311.267 142.716,311.363L146.508,293.604C145.356,293.124 143.82,292.884 142.668,292.884C137.052,292.884 130.908,299.364 126.06,306.992C123.9,306.274 121.646,305.844 119.056,305.844C116.753,305.844 110.754,306.322 110.754,310.162C110.754,312.228 113.295,314.574 119.392,314.574L121.838,314.574C119.056,320.289 117.33,325.763 117.33,328.98C117.33,334.063 120.447,334.158 123.756,334.35C123.708,333.919 123.084,334.111 123.084,331.665C123.084,327.636 124.572,320.865 126.972,314.335C129.708,314.191 132.492,314 135.276,313.713L132.06,328.932L138.972,328.932L142.332,313.043L144.588,312.803L144.924,311.075ZM129.468,308.384C132.204,302.58 135.564,297.684 138.972,296.196L135.66,311.747L135.18,311.459C133.164,310.306 131.292,309.297 129.468,308.384ZM125.34,308.095C124.476,309.537 123.66,310.979 122.892,312.42L120.974,312.42C116.801,312.42 114.828,311.075 114.828,309.729C114.828,308.191 117.09,307.326 120.831,307.326C122.125,307.326 123.708,307.615 125.34,308.095ZM128.988,309.393C130.86,310.162 132.78,311.075 134.652,312.084C132.3,312.228 130.044,312.324 127.74,312.372L128.988,309.393Z" style="fill:none;"/>
                <path d="M148.578,304.932L140.946,340.926L148.194,339.205L150.69,327.489C152.13,328.399 153.618,328.926 155.202,328.926C160.098,328.926 164.222,325.428 165.709,315.084C165.9,313.833 165.996,312.727 165.996,311.716C165.996,306.752 163.647,304.98 158.658,304.98C157.458,304.98 156.306,305.315 155.298,305.842L155.49,304.932L148.578,304.932ZM154.434,325.38C153.666,325.38 152.466,325.38 151.314,324.514L154.77,308.348C155.682,307.711 156.594,307.326 157.506,307.326C159.042,307.326 160.194,307.904 160.194,310.793C160.194,311.948 160.002,313.537 159.57,315.655C157.986,323.31 156.834,325.38 154.434,325.38Z" style="fill:none;"/>
                <path d="M170.418,304.932L162.786,340.926L170.034,339.205L172.53,327.489C173.97,328.399 175.458,328.926 177.042,328.926C181.938,328.926 186.062,325.428 187.549,315.084C187.74,313.833 187.836,312.727 187.836,311.716C187.836,306.752 185.487,304.98 180.498,304.98C179.298,304.98 178.146,305.315 177.138,305.842L177.33,304.932L170.418,304.932ZM176.274,325.38C175.506,325.38 174.306,325.38 173.154,324.514L176.61,308.348C177.522,307.711 178.434,307.326 179.346,307.326C180.882,307.326 182.034,307.904 182.034,310.793C182.034,311.948 181.842,313.537 181.41,315.655C179.826,323.31 178.674,325.38 176.274,325.38Z" style="fill:none;"/>
                <path d="M195.468,321.347C195.468,320.771 195.516,320.051 195.612,319.282C200.176,318.706 206.46,315.345 206.46,309.487C206.46,306.128 204.257,304.5 200.32,304.5C191.584,304.5 188.994,315.201 188.994,321.299C188.994,325.428 191.488,328.926 196.093,328.926C202.289,328.926 206.892,324.084 209.628,319.138L207.468,319.138C205.79,322.691 201.761,325.476 199.407,325.476C197.534,325.476 195.468,324.516 195.468,321.347ZM203.586,309.727C203.538,313.138 200.416,316.932 195.997,316.98C197.005,312.465 199.215,307.038 201.905,307.038C203.346,307.038 203.586,308.719 203.586,309.728L203.586,309.727Z" style="fill:none;"/>
                <path d="M222.588,304.932L222.3,306.18C221.436,305.459 220.236,304.98 219.084,304.98C209.487,304.98 206.514,314.865 206.514,323.124C206.514,325.954 207.857,329.214 212.461,329.214C215.388,329.214 217.548,327.249 218.988,325.283C219.612,327.78 221.724,328.932 224.844,328.932C228.588,328.932 234.012,322.546 236.22,320.338L234.588,320.338C232.668,321.876 230.172,324.564 228.252,324.564C226.332,324.564 225.852,323.796 225.852,322.74C225.852,322.308 225.948,321.78 226.044,321.252L229.5,304.932L222.588,304.932ZM219.468,307.662C220.14,307.662 221.052,307.854 221.82,308.527L219.132,321.251C218.988,321.827 218.892,322.355 218.844,322.835C217.932,324.18 216.876,325.236 215.772,325.236C214.572,325.236 212.988,324.708 212.988,321.827C212.988,315.297 215.868,307.662 219.468,307.662Z" style="fill:none;"/>
                <path d="M243.948,295.332L236.845,296.292L231.57,321.248C231.378,322.064 231.282,322.879 231.282,323.647C231.282,326.671 232.769,328.926 236.174,328.926C237.805,328.926 239.82,328.638 241.164,324.511C240.78,324.655 240.252,324.655 239.916,324.655C238.572,324.655 238.188,323.887 238.188,322.879C238.188,322.351 238.284,321.824 238.428,321.248L243.948,295.332Z" style="fill:none;"/>
                <path d="M129.42,244.596C128.796,244.548 128.172,244.5 127.5,244.5C119.484,244.5 110.658,250.595 110.658,256.978C110.658,260.434 112.48,261.633 115.788,261.633C115.74,261.201 115.116,260.818 115.116,258.37C115.116,253.283 117.612,249.635 121.836,247.86L114.877,280.494L121.788,280.494L125.628,262.401C126.396,262.305 127.308,262.209 128.22,262.209C129.228,262.209 130.236,262.305 131.292,262.689L127.5,280.494L134.412,280.494L142.044,244.596L135.132,244.596L132.156,258.61C131.82,258.562 131.436,258.562 131.1,258.562C129.564,258.562 127.932,258.898 126.3,259.186L129.42,244.596Z" style="fill-rule:nonzero;"/>
                <path d="M143.727,256.495L140.274,272.819C140.082,273.732 139.986,274.548 139.986,275.268C139.986,278.864 142.288,280.494 145.981,280.494C149.724,280.494 155.148,274.116 157.356,271.907L155.724,271.907C153.804,273.444 151.308,276.132 149.388,276.132C147.468,276.132 146.988,275.364 146.988,274.308C146.988,273.876 147.084,273.347 147.18,272.819L150.636,256.495L143.727,256.495ZM144.642,250.161C144.642,252.272 146.321,253.95 148.431,253.95C150.542,253.95 152.268,252.272 152.268,250.161C152.268,248.051 150.542,246.324 148.431,246.324C146.321,246.324 144.642,248.051 144.642,250.161Z" style="fill-rule:nonzero;"/>
                <path d="M156.594,256.5L148.962,292.494L156.21,290.773L158.706,279.057C160.146,279.967 161.634,280.494 163.218,280.494C168.114,280.494 172.238,276.996 173.725,266.652C173.916,265.401 174.012,264.295 174.012,263.284C174.012,258.32 171.663,256.548 166.674,256.548C165.474,256.548 164.322,256.883 163.314,257.41L163.506,256.5L156.594,256.5ZM162.45,276.948C161.682,276.948 160.482,276.948 159.33,276.082L162.786,259.916C163.698,259.279 164.61,258.894 165.522,258.894C167.058,258.894 168.21,259.472 168.21,262.361C168.21,263.516 168.018,265.105 167.586,267.223C166.002,274.878 164.85,276.948 162.45,276.948Z" style="fill-rule:nonzero;"/>
                <path d="M182.268,256.98C181.453,260.628 180.35,264.9 178.623,268.02C176.705,268.164 174.978,270.372 174.978,274.212C174.978,278.914 177.664,280.494 183.182,280.494C187.648,280.494 190.382,278.674 191.629,276.036C193.548,274.404 195.468,272.724 196.812,271.668L195.564,270.036C194.988,270.708 193.788,271.956 192.444,273.156C192.492,272.82 192.492,272.484 192.492,272.148C192.492,266.532 189.228,264.132 189.228,256.212L189.228,255.54L182.268,256.98ZM182.316,270.948C182.316,269.508 181.885,268.644 180.733,268.26C181.789,265.86 182.461,262.788 183.234,260.436C183.329,266.436 185.49,268.98 185.49,271.956C185.49,275.65 183.137,277.662 181.503,277.662C178.957,277.662 177.42,276.416 177.42,273.588C177.997,273.876 178.573,274.02 179.15,274.02C180.829,274.02 182.316,272.772 182.316,270.948Z" style="fill-rule:nonzero;"/>
                <path d="M199.983,249.876L198.543,256.5L196.959,256.5L196.575,258.414L198.159,258.414C197.343,262.544 194.847,272.723 194.847,275.268C194.847,278.864 197.103,280.494 200.799,280.494C204.543,280.494 209.967,274.116 212.175,271.907L210.543,271.907C208.623,273.443 206.127,276.132 204.207,276.132C202.287,276.132 201.807,275.412 201.807,274.308C201.807,274.068 201.759,273.587 205.071,258.414L207.951,258.414L208.335,256.5L205.455,256.5C206.367,252.18 207.087,248.916 207.087,248.916L199.983,249.876Z" style="fill-rule:nonzero;"/>
                <path d="M214.284,272.915C214.284,272.339 214.332,271.619 214.428,270.85C218.992,270.274 225.276,266.913 225.276,261.055C225.276,257.696 223.073,256.068 219.136,256.068C210.4,256.068 207.81,266.769 207.81,272.867C207.81,276.996 210.304,280.494 214.909,280.494C221.105,280.494 225.708,275.652 228.444,270.706L226.284,270.706C224.606,274.259 220.577,277.044 218.223,277.044C216.35,277.044 214.284,276.084 214.284,272.915ZM222.402,261.295C222.354,264.706 219.232,268.5 214.813,268.548C215.821,264.033 218.031,258.606 220.721,258.606C222.162,258.606 222.402,260.287 222.402,261.296L222.402,261.295Z" style="fill-rule:nonzero;"/>
                <path d="M229.311,256.5L224.223,280.494L231.135,280.494L235.119,261.678C236.223,260.67 236.991,260.142 238.431,260.142C239.871,260.142 238.527,263.31 241.215,263.31C243.567,263.31 244.815,261.246 244.815,259.567C244.815,257.746 243.519,256.5 241.359,256.5C239.343,256.5 237.423,257.555 235.695,258.896L236.223,256.5L229.311,256.5Z" style="fill-rule:nonzero;"/>
                <path d="M144.924,311.075C144.156,311.171 143.436,311.267 142.716,311.363L146.508,293.604C145.356,293.124 143.82,292.884 142.668,292.884C137.052,292.884 130.908,299.364 126.06,306.992C123.9,306.274 121.646,305.844 119.056,305.844C116.753,305.844 110.754,306.322 110.754,310.162C110.754,312.228 113.295,314.574 119.392,314.574L121.838,314.574C119.056,320.289 117.33,325.763 117.33,328.98C117.33,334.063 120.447,334.158 123.756,334.35C123.708,333.919 123.084,334.111 123.084,331.665C123.084,327.636 124.572,320.865 126.972,314.335C129.708,314.191 132.492,314 135.276,313.713L132.06,328.932L138.972,328.932L142.332,313.043L144.588,312.803L144.924,311.075ZM129.468,308.384C132.204,302.58 135.564,297.684 138.972,296.196L135.66,311.747L135.18,311.459C133.164,310.306 131.292,309.297 129.468,308.384ZM125.34,308.095C124.476,309.537 123.66,310.979 122.892,312.42L120.974,312.42C116.801,312.42 114.828,311.075 114.828,309.729C114.828,308.191 117.09,307.326 120.831,307.326C122.125,307.326 123.708,307.615 125.34,308.095ZM128.988,309.393C130.86,310.162 132.78,311.075 134.652,312.084C132.3,312.228 130.044,312.324 127.74,312.372L128.988,309.393Z" style="fill-rule:nonzero;"/>
                <path d="M148.578,304.932L140.946,340.926L148.194,339.205L150.69,327.489C152.13,328.399 153.618,328.926 155.202,328.926C160.098,328.926 164.222,325.428 165.709,315.084C165.9,313.833 165.996,312.727 165.996,311.716C165.996,306.752 163.647,304.98 158.658,304.98C157.458,304.98 156.306,305.315 155.298,305.842L155.49,304.932L148.578,304.932ZM154.434,325.38C153.666,325.38 152.466,325.38 151.314,324.514L154.77,308.348C155.682,307.711 156.594,307.326 157.506,307.326C159.042,307.326 160.194,307.904 160.194,310.793C160.194,311.948 160.002,313.537 159.57,315.655C157.986,323.31 156.834,325.38 154.434,325.38Z" style="fill-rule:nonzero;"/>
                <path d="M170.418,304.932L162.786,340.926L170.034,339.205L172.53,327.489C173.97,328.399 175.458,328.926 177.042,328.926C181.938,328.926 186.062,325.428 187.549,315.084C187.74,313.833 187.836,312.727 187.836,311.716C187.836,306.752 185.487,304.98 180.498,304.98C179.298,304.98 178.146,305.315 177.138,305.842L177.33,304.932L170.418,304.932ZM176.274,325.38C175.506,325.38 174.306,325.38 173.154,324.514L176.61,308.348C177.522,307.711 178.434,307.326 179.346,307.326C180.882,307.326 182.034,307.904 182.034,310.793C182.034,311.948 181.842,313.537 181.41,315.655C179.826,323.31 178.674,325.38 176.274,325.38Z" style="fill-rule:nonzero;"/>
                <path d="M195.468,321.347C195.468,320.771 195.516,320.051 195.612,319.282C200.176,318.706 206.46,315.345 206.46,309.487C206.46,306.128 204.257,304.5 200.32,304.5C191.584,304.5 188.994,315.201 188.994,321.299C188.994,325.428 191.488,328.926 196.093,328.926C202.289,328.926 206.892,324.084 209.628,319.138L207.468,319.138C205.79,322.691 201.761,325.476 199.407,325.476C197.534,325.476 195.468,324.516 195.468,321.347ZM203.586,309.727C203.538,313.138 200.416,316.932 195.997,316.98C197.005,312.465 199.215,307.038 201.905,307.038C203.346,307.038 203.586,308.719 203.586,309.728L203.586,309.727Z" style="fill-rule:nonzero;"/>
                <path d="M222.588,304.932L222.3,306.18C221.436,305.459 220.236,304.98 219.084,304.98C209.487,304.98 206.514,314.865 206.514,323.124C206.514,325.954 207.857,329.214 212.461,329.214C215.388,329.214 217.548,327.249 218.988,325.283C219.612,327.78 221.724,328.932 224.844,328.932C228.588,328.932 234.012,322.546 236.22,320.338L234.588,320.338C232.668,321.876 230.172,324.564 228.252,324.564C226.332,324.564 225.852,323.796 225.852,322.74C225.852,322.308 225.948,321.78 226.044,321.252L229.5,304.932L222.588,304.932ZM219.468,307.662C220.14,307.662 221.052,307.854 221.82,308.527L219.132,321.251C218.988,321.827 218.892,322.355 218.844,322.835C217.932,324.18 216.876,325.236 215.772,325.236C214.572,325.236 212.988,324.708 212.988,321.827C212.988,315.297 215.868,307.662 219.468,307.662Z" style="fill-rule:nonzero;"/>
                <path d="M243.948,295.332L236.845,296.292L231.57,321.248C231.378,322.064 231.282,322.879 231.282,323.647C231.282,326.671 232.769,328.926 236.174,328.926C237.805,328.926 239.82,328.638 241.164,324.511C240.78,324.655 240.252,324.655 239.916,324.655C238.572,324.655 238.188,323.887 238.188,322.879C238.188,322.351 238.284,321.824 238.428,321.248L243.948,295.332Z" style="fill-rule:nonzero;"/>
            </g>
        </g>
    </g>
</svg>
