<?xml version="1.0" encoding="UTF-8" standalone="no"?>
<!DOCTYPE svg PUBLIC "-//W3C//DTD SVG 1.1//EN" "http://www.w3.org/Graphics/SVG/1.1/DTD/svg11.dtd">
<svg width="100%" height="100%" viewBox="0 0 201 202" version="1.1" xmlns="http://www.w3.org/2000/svg" xmlns:xlink="http://www.w3.org/1999/xlink" xml:space="preserve" style="fill-rule:evenodd;clip-rule:evenodd;stroke-linecap:round;stroke-linejoin:round;stroke-miterlimit:1.5;">
    <g transform="matrix(1,0,0,1,-55.806,-249.941)">
        <g transform="matrix(3.3958,0,0,2.22073,-284.643,-193.171)">
            <g>
                <g transform="matrix(0.294481,0,0,0.450302,83.8221,86.9852)">
                    <path d="M63.333,448.667C65.838,423.615 64.333,397.847 64.333,372.667C64.333,366.507 60.747,350.253 64.333,346.667C67.623,343.377 61.398,312.602 66.333,307.667C67.956,306.044 66.333,294.217 66.333,291.667C66.333,279.859 66.53,270.47 72.333,264.667C82.273,254.727 102.437,257.667 117.333,257.667C119.777,257.667 142.061,257.939 142.333,257.667C145.787,254.213 181.57,257.667 188.333,257.667C192.391,257.667 201.145,256.478 203.333,258.667C205.833,261.167 215.833,256.167 218.333,258.667C222.354,262.687 240.483,258.816 247.333,265.667C256.094,274.428 255.333,307.308 255.333,324.667C255.333,361.599 255.333,411.994 255.333,448.667" style="fill:none;stroke:black;stroke-width:2px;"/>
                </g>
                <g transform="matrix(0.294481,0,0,0.450302,83.8221,86.9852)">
                    <path d="M62.333,450.667C67.229,446.75 74.008,439.342 75.333,440.667C76.546,441.88 88.358,452.642 90.333,450.667C94.931,446.069 100.158,441.842 104.333,437.667C106.078,435.922 119.281,448.719 121.333,446.667C122.869,445.131 131.435,435.768 132.333,436.667C134.667,439 139,439.333 141.333,441.667C150.461,450.794 152.533,443.467 161.333,434.667C161.991,434.009 163.131,437.464 163.333,437.667C164.935,439.269 167.971,443.486 170.333,444.667C171.408,445.204 172.333,447.667 172.333,447.667C172.333,447.667 173.483,445.517 174.333,444.667C178.559,440.441 180.481,437.093 185.333,434.667C187.541,433.563 196.328,444.662 197.333,445.667C198.295,446.628 207.837,436.163 208.333,435.667C213.137,430.863 221.805,445.667 227.333,445.667C227.805,445.667 228,445 228.333,444.667C229.24,443.76 240.356,432.689 241.333,433.667C243.597,435.93 257.633,452.966 253.333,448.667" style="fill:none;stroke:black;stroke-width:2px;"/>
                </g>
                <g transform="matrix(0.294481,0,0,0.450302,83.8221,86.9852)">
                    <path d="M72.333,439.667C73.694,413.81 74.333,386.773 74.333,363.667C74.333,357.237 71.567,339.433 74.333,336.667C77.301,333.699 72.969,309.031 76.333,305.667C83.402,298.598 103.187,300.667 116.333,300.667C146.006,300.667 174.507,302.667 205.333,302.667C222.328,302.667 237.002,301.336 245.333,309.667C247.392,311.725 241.924,336.257 245.333,339.667C249.029,343.363 245.333,360.077 245.333,366.667C245.333,390.25 244.333,414.775 244.333,437.667" style="fill:none;stroke:black;stroke-width:2px;"/>
                </g>
                <g transform="matrix(0.294481,0,0,0.450302,83.8221,86.9852)">
                    <path d="M145.333,285.667C143.046,297.101 163.198,294.667 173.333,294.667C175.086,294.667 183.218,295.782 184.333,294.667C185.667,293.333 186,291 187.333,289.667C187.802,289.198 185.536,286.869 185.333,286.667C184.567,285.901 150.906,279.094 147.333,282.667C145.05,284.95 146.333,285.199 146.333,287.667" style="fill:none;stroke:black;stroke-width:2px;"/>
                </g>
                <g transform="matrix(0.294481,0,0,0.450302,83.8221,86.9852)">
                    <path d="M163.333,264.667C151.747,273.936 165.287,274.713 165.333,274.667C171.429,268.571 162.333,260.178 162.333,267.667" style="fill:none;stroke:black;stroke-width:2px;"/>
                </g>
                <g transform="matrix(0.294481,0,0,0.450302,83.8221,86.9852)">
                    <path d="M125.333,279.667C123.097,281.157 120.234,281.766 118.333,283.667C115.306,286.694 120.347,292.667 122.333,292.667C123.222,292.667 124.686,294.314 125.333,293.667C131.718,287.282 131.524,281.667 121.333,281.667" style="fill:none;stroke:black;stroke-width:2px;"/>
                </g>
                <g transform="matrix(0.294481,0,0,0.450302,83.8221,86.9852)">
                    <path d="M197.333,257.667C197.731,255.678 196.9,253.1 198.333,251.667C200.234,249.766 203.698,252.14 206.333,252.667C215.839,254.568 229.333,247.613 229.333,260.667" style="fill:none;stroke:black;stroke-width:2px;"/>
                </g>
                <g transform="matrix(0.294481,0,0,0.450302,83.8221,86.9852)">
                    <path d="M62.333,316.667C55.281,320.193 55.399,346.667 62.333,346.667" style="fill:none;stroke:black;stroke-width:2px;"/>
                </g>
                <g transform="matrix(0.294481,0,0,0.450302,83.8221,86.9852)">
                    <path d="M62.333,374.667C59.459,376.823 54.198,386.531 58.333,390.667C59.46,391.793 61.333,389.132 61.333,391.667" style="fill:none;stroke:black;stroke-width:2px;"/>
                </g>
                <g transform="matrix(0.294481,0,0,0.450302,83.8221,86.9852)">
                    <path d="M64.333,407.667C55.125,411.35 58.634,423.667 66.333,423.667" style="fill:none;stroke:black;stroke-width:2px;"/>
                </g>
                <g transform="matrix(0.294481,0,0,0.450302,83.8221,86.9852)">
                    <path d="M74.333,319.667C79.89,323.371 102.267,322.7 108.333,319.667C112.788,317.439 124.243,319.667 129.333,319.667C149.162,319.667 170.457,321.667 188.333,321.667C201,321.667 213.667,321.667 226.333,321.667C231.685,321.667 244.485,320.667 242.333,320.667" style="fill:none;stroke:black;stroke-width:2px;"/>
                </g>
                <g transform="matrix(0.294481,0,0,0.450302,83.8221,86.9852)">
                    <path d="M154.333,306.667C159.771,307.754 157.649,309.983 161.333,313.667C161.667,314 161.862,314.667 162.333,314.667C165.181,314.667 165.333,306.667 165.333,306.667C165.333,306.667 166.097,313.431 168.333,315.667C170.347,317.681 171.333,307.667 171.333,307.667C171.333,307.667 172,308.333 172.333,308.667C172.564,308.898 173.665,317.335 175.333,315.667C176.225,314.775 175.186,313.667 174.333,313.667" style="fill:none;stroke:black;stroke-width:2px;"/>
                </g>
                <g transform="matrix(0.294481,0,0,0.450302,83.8221,86.9852)">
                    <path d="M217.333,307.667C217.667,310.333 217.682,313.059 218.333,315.667C218.448,316.124 219,315 219.333,314.667C222.878,311.122 232.333,319.342 232.333,311.667C232.333,310.884 232.832,307.166 232.333,306.667C231.588,305.922 231.363,307.667 230.333,307.667C225.629,307.667 218.001,307.667 216.333,307.667" style="fill:none;stroke:black;stroke-width:2px;"/>
                </g>
                <g transform="matrix(0.294481,0,0,0.450302,83.8221,86.9852)">
                    <path d="M199.333,307.667C200.707,308.124 205.347,315.653 207.333,313.667C208.617,312.383 207.372,308.628 208.333,307.667C209.083,306.917 212.932,314.667 212.333,314.667" style="fill:none;stroke:black;stroke-width:2px;"/>
                </g>
                <g transform="matrix(0.294481,0,0,0.450302,83.8221,86.9852)">
                    <path d="M83.333,310.667C83.333,312.002 90.059,316.941 92.333,314.667C93.177,313.823 94.49,310.51 95.333,309.667C95.642,309.358 98.044,313.377 98.333,313.667C100.439,315.772 102.337,309.67 105.333,312.667C109.421,316.755 113.333,308.171 113.333,309.667" style="fill:none;stroke:black;stroke-width:2px;"/>
                </g>
                <g transform="matrix(0.294481,0,0,0.450302,83.8221,86.9852)">
                    <path d="M121.333,309.667C124.716,308.915 136.657,308.667 129.333,308.667C127.404,308.667 122.946,311.28 124.333,312.667C126.219,314.552 130.448,310.781 132.333,312.667C133.914,314.248 126.333,315.667 126.333,315.667C126.333,315.667 129.333,315.613 129.333,316.667" style="fill:none;stroke:black;stroke-width:2px;"/>
                </g>
                <g transform="matrix(0.294481,0,0,0.450302,83.8221,86.9852)">
                    <path d="M73.333,351.667C118.21,351.667 156.577,349.667 200.333,349.667C208.297,349.667 243.333,348.098 243.333,350.667" style="fill:none;stroke:black;stroke-width:2px;"/>
                </g>
                <g transform="matrix(0.294481,0,0,0.450302,83.8221,86.9852)">
                    <path d="M90.333,329.667C88,332.333 85.459,334.832 83.333,337.667C83.133,337.933 84.098,337.431 84.333,337.667C86.162,339.495 89.186,342.093 92.333,343.667C93.089,344.044 95.101,344.667 93.333,344.667" style="fill:none;stroke:black;stroke-width:2px;"/>
                </g>
                <g transform="matrix(0.294481,0,0,0.450302,83.8221,86.9852)">
                    <path d="M122.333,338.667C134.649,337.942 135.014,337.986 143.333,329.667C143.653,329.347 149.328,337.661 150.333,338.667C152.44,340.774 157.824,329.158 158.333,329.667C162.229,333.562 164.702,340.035 168.333,343.667C170.501,345.834 175.036,331.964 175.333,331.667C176.073,330.927 180.834,337.167 181.333,337.667C182.511,338.844 185.12,336.667 188.333,336.667" style="fill:none;stroke:black;stroke-width:2px;"/>
                </g>
                <g transform="matrix(0.294481,0,0,0.450302,83.8221,86.9852)">
                    <path d="M98.333,366.667C68.479,366.667 93.327,398.673 100.333,391.667C108.662,383.338 115.668,365.667 95.333,365.667" style="fill:none;stroke:black;stroke-width:2px;"/>
                </g>
                <g transform="matrix(0.294481,0,0,0.450302,83.8221,86.9852)">
                    <path d="M114.333,387.667C121.229,393.7 122.333,396.028 122.333,393.667" style="fill:none;stroke:black;stroke-width:2px;"/>
                </g>
                <g transform="matrix(0.294481,0,0,0.450302,83.8221,86.9852)">
                    <path d="M112.333,385.667C114.572,394.621 116.681,413.015 121.333,417.667C124.837,421.17 143.212,418.667 149.333,418.667C169.735,418.667 190.529,417.667 210.333,417.667C213.52,417.667 231.622,417.378 232.333,416.667C233.708,415.292 234.179,411.974 235.333,409.667C236.609,407.115 235.395,397.728 234.333,396.667C231.5,393.833 234.167,385.5 231.333,382.667C228.576,379.909 202.009,379.667 195.333,379.667C189.525,379.667 174.735,377.265 172.333,379.667C169,383 156.667,377.333 153.333,380.667C149.667,384.333 136,378 132.333,381.667C131.661,382.339 132.247,382.667 131.333,382.667C123.412,382.667 118.067,394.667 123.333,394.667" style="fill:none;stroke:black;stroke-width:2px;"/>
                </g>
                <g transform="matrix(0.294481,0,0,0.450302,83.8221,86.9852)">
                    <path d="M137.333,393.667C155.165,395.038 172.073,393.667 189.333,393.667C193.818,393.667 219.257,392.667 212.333,392.667" style="fill:none;stroke:black;stroke-width:2px;"/>
                </g>
                <g transform="matrix(0.294481,0,0,0.450302,83.8221,86.9852)">
                    <path d="M135.333,406.667C144.096,406.949 166.935,406.667 176.333,406.667" style="fill:none;stroke:black;stroke-width:2px;"/>
                </g>
                <g transform="matrix(0.294481,0,0,0.450302,83.8221,86.9852)">
                    <path d="M182.333,399.667C183.125,404.417 183.333,407.694 183.333,404.667" style="fill:none;stroke:black;stroke-width:2px;"/>
                </g>
                <g transform="matrix(0.294481,0,0,0.450302,83.8221,86.9852)">
                    <path d="M183.333,411.667C183.333,412.721 183.333,412.556 183.333,411.667" style="fill:none;stroke:black;stroke-width:2px;"/>
                </g>
            </g>
        </g>
    </g>
</svg>
