<?xml version="1.0" encoding="UTF-8" standalone="no"?>
<!DOCTYPE svg PUBLIC "-//W3C//DTD SVG 1.1//EN" "http://www.w3.org/Graphics/SVG/1.1/DTD/svg11.dtd">
<svg width="100%" height="100%" viewBox="0 0 175 46" version="1.1" xmlns="http://www.w3.org/2000/svg" xmlns:xlink="http://www.w3.org/1999/xlink" xml:space="preserve" style="fill-rule:evenodd;clip-rule:evenodd;stroke-linejoin:round;stroke-miterlimit:1.41421;">
    <g transform="matrix(1,0,0,1,-970.985,-252.926)">
        <g transform="matrix(3.3958,0,0,2.22073,-284.643,-193.171)">
            <g transform="matrix(0.294481,0,0,0.450302,98.9796,92.6268)">
                <path d="M928.559,260.451L928.559,269.708C928.559,271.708 928.778,272.951 929.216,273.435C929.809,274.122 930.708,274.466 931.911,274.466L933.13,274.466L933.13,275.333L919.513,275.333L919.513,274.466L920.708,274.466C922.052,274.466 923.013,274.029 923.591,273.154C923.903,272.669 924.059,271.521 924.059,269.708L924.059,249.177C924.059,247.177 923.849,245.935 923.427,245.451C922.817,244.763 921.911,244.419 920.708,244.419L919.513,244.419L919.513,243.552L931.161,243.552C934.005,243.552 936.247,243.845 937.888,244.431C939.528,245.017 940.911,246.005 942.036,247.396C943.161,248.786 943.724,250.435 943.724,252.341C943.724,254.935 942.868,257.044 941.157,258.669C939.446,260.294 937.028,261.107 933.903,261.107C933.138,261.107 932.309,261.052 931.419,260.943C930.528,260.833 929.575,260.669 928.559,260.451ZM928.559,259.115C929.388,259.271 930.122,259.388 930.763,259.466C931.403,259.544 931.95,259.583 932.403,259.583C934.028,259.583 935.431,258.954 936.61,257.697C937.79,256.439 938.38,254.81 938.38,252.81C938.38,251.435 938.099,250.158 937.536,248.978C936.974,247.798 936.177,246.915 935.145,246.329C934.114,245.743 932.942,245.451 931.63,245.451C930.833,245.451 929.809,245.599 928.559,245.896L928.559,259.115Z" style="fill:none;"/>
                <path d="M953.192,253.232L953.192,258.06C954.989,254.841 956.833,253.232 958.724,253.232C959.583,253.232 960.294,253.493 960.856,254.017C961.419,254.54 961.7,255.146 961.7,255.833C961.7,256.443 961.497,256.958 961.091,257.38C960.684,257.802 960.2,258.013 959.638,258.013C959.091,258.013 958.477,257.743 957.798,257.204C957.118,256.665 956.614,256.396 956.286,256.396C956.005,256.396 955.7,256.552 955.372,256.865C954.669,257.505 953.942,258.56 953.192,260.029L953.192,270.318C953.192,271.505 953.341,272.404 953.638,273.013C953.841,273.435 954.2,273.786 954.716,274.068C955.231,274.349 955.974,274.49 956.942,274.49L956.942,275.333L945.95,275.333L945.95,274.49C947.044,274.49 947.856,274.318 948.388,273.974C948.778,273.724 949.052,273.326 949.208,272.779C949.286,272.513 949.325,271.755 949.325,270.505L949.325,262.185C949.325,259.685 949.274,258.197 949.173,257.72C949.071,257.243 948.884,256.896 948.61,256.677C948.337,256.458 947.997,256.349 947.591,256.349C947.106,256.349 946.559,256.466 945.95,256.701L945.716,255.857L952.208,253.232L953.192,253.232Z" style="fill:none;"/>
                <path d="M966.505,261.951C966.489,265.138 967.263,267.638 968.825,269.451C970.388,271.263 972.224,272.169 974.333,272.169C975.739,272.169 976.962,271.783 978.001,271.009C979.04,270.236 979.911,268.911 980.614,267.036L981.341,267.505C981.013,269.646 980.059,271.595 978.481,273.353C976.903,275.111 974.927,275.99 972.552,275.99C969.974,275.99 967.766,274.986 965.931,272.978C964.095,270.97 963.177,268.271 963.177,264.88C963.177,261.208 964.118,258.345 966.001,256.29C967.884,254.236 970.247,253.208 973.091,253.208C975.497,253.208 977.474,254.001 979.02,255.587C980.567,257.173 981.341,259.294 981.341,261.951L966.505,261.951ZM966.505,260.591L976.442,260.591C976.364,259.216 976.2,258.247 975.95,257.685C975.559,256.81 974.977,256.122 974.204,255.622C973.431,255.122 972.622,254.872 971.778,254.872C970.481,254.872 969.321,255.376 968.298,256.384C967.274,257.392 966.677,258.794 966.505,260.591Z" style="fill:none;"/>
                <path d="M998.075,253.232L998.075,260.544L997.302,260.544C996.708,258.247 995.946,256.685 995.016,255.857C994.087,255.029 992.903,254.615 991.466,254.615C990.372,254.615 989.489,254.904 988.817,255.482C988.145,256.06 987.809,256.701 987.809,257.404C987.809,258.279 988.059,259.029 988.559,259.654C989.044,260.294 990.028,260.974 991.513,261.693L994.934,263.357C998.106,264.904 999.692,266.943 999.692,269.474C999.692,271.427 998.954,273.001 997.477,274.197C996.001,275.392 994.349,275.99 992.52,275.99C991.208,275.99 989.708,275.755 988.02,275.286C987.505,275.13 987.083,275.052 986.755,275.052C986.395,275.052 986.114,275.255 985.911,275.661L985.138,275.661L985.138,267.997L985.911,267.997C986.349,270.185 987.184,271.833 988.419,272.943C989.653,274.052 991.036,274.607 992.567,274.607C993.645,274.607 994.524,274.29 995.204,273.658C995.884,273.025 996.224,272.263 996.224,271.372C996.224,270.294 995.845,269.388 995.087,268.654C994.329,267.919 992.817,266.99 990.552,265.865C988.286,264.74 986.802,263.724 986.099,262.818C985.395,261.927 985.044,260.802 985.044,259.443C985.044,257.677 985.649,256.201 986.86,255.013C988.071,253.826 989.638,253.232 991.559,253.232C992.403,253.232 993.427,253.411 994.63,253.771C995.427,254.005 995.958,254.122 996.224,254.122C996.474,254.122 996.669,254.068 996.809,253.958C996.95,253.849 997.114,253.607 997.302,253.232L998.075,253.232Z" style="fill:none;"/>
                <path d="M1009.11,246.81L1009.11,253.865L1014.13,253.865L1014.13,255.505L1009.11,255.505L1009.11,269.427C1009.11,270.818 1009.31,271.755 1009.71,272.24C1010.11,272.724 1010.62,272.966 1011.25,272.966C1011.76,272.966 1012.26,272.806 1012.75,272.486C1013.23,272.165 1013.61,271.693 1013.87,271.068L1014.79,271.068C1014.24,272.599 1013.47,273.751 1012.47,274.525C1011.47,275.298 1010.43,275.685 1009.37,275.685C1008.65,275.685 1007.95,275.486 1007.26,275.087C1006.58,274.689 1006.07,274.118 1005.74,273.376C1005.41,272.634 1005.25,271.49 1005.25,269.943L1005.25,255.505L1001.85,255.505L1001.85,254.732C1002.71,254.388 1003.59,253.806 1004.49,252.986C1005.38,252.165 1006.18,251.193 1006.89,250.068C1007.25,249.474 1007.75,248.388 1008.39,246.81L1009.11,246.81Z" style="fill:none;"/>
                <path d="M1021.68,242.005C1022.33,242.005 1022.89,242.236 1023.35,242.697C1023.81,243.158 1024.04,243.716 1024.04,244.372C1024.04,245.029 1023.81,245.591 1023.35,246.06C1022.89,246.529 1022.33,246.763 1021.68,246.763C1021.02,246.763 1020.46,246.529 1019.99,246.06C1019.52,245.591 1019.29,245.029 1019.29,244.372C1019.29,243.716 1019.52,243.158 1019.98,242.697C1020.44,242.236 1021,242.005 1021.68,242.005ZM1023.62,253.232L1023.62,270.482C1023.62,271.826 1023.72,272.72 1023.92,273.165C1024.11,273.611 1024.4,273.943 1024.78,274.161C1025.16,274.38 1025.86,274.49 1026.88,274.49L1026.88,275.333L1016.45,275.333L1016.45,274.49C1017.5,274.49 1018.2,274.388 1018.56,274.185C1018.92,273.982 1019.2,273.646 1019.42,273.177C1019.63,272.708 1019.73,271.81 1019.73,270.482L1019.73,262.208C1019.73,259.88 1019.66,258.372 1019.52,257.685C1019.41,257.185 1019.24,256.837 1019,256.642C1018.77,256.447 1018.45,256.349 1018.04,256.349C1017.61,256.349 1017.08,256.466 1016.45,256.701L1016.12,255.857L1022.59,253.232L1023.62,253.232Z" style="fill:none;"/>
                <path d="M1035.29,267.505C1033.98,266.865 1032.97,265.97 1032.27,264.822C1031.57,263.673 1031.22,262.404 1031.22,261.013C1031.22,258.888 1032.02,257.06 1033.62,255.529C1035.22,253.997 1037.27,253.232 1039.77,253.232C1041.82,253.232 1043.59,253.732 1045.09,254.732L1049.64,254.732C1050.31,254.732 1050.7,254.751 1050.81,254.79C1050.92,254.829 1051,254.896 1051.04,254.99C1051.14,255.13 1051.18,255.38 1051.18,255.74C1051.18,256.146 1051.14,256.427 1051.07,256.583C1051.02,256.661 1050.94,256.724 1050.82,256.771C1050.7,256.818 1050.31,256.841 1049.64,256.841L1046.85,256.841C1047.72,257.966 1048.16,259.404 1048.16,261.154C1048.16,263.154 1047.39,264.865 1045.86,266.286C1044.33,267.708 1042.28,268.419 1039.7,268.419C1038.64,268.419 1037.55,268.263 1036.44,267.951C1035.76,268.544 1035.29,269.064 1035.05,269.509C1034.81,269.954 1034.68,270.333 1034.68,270.646C1034.68,270.911 1034.81,271.169 1035.07,271.419C1035.33,271.669 1035.83,271.849 1036.58,271.958C1037.02,272.021 1038.11,272.076 1039.86,272.122C1043.08,272.201 1045.17,272.31 1046.12,272.451C1047.58,272.654 1048.74,273.193 1049.6,274.068C1050.47,274.943 1050.9,276.021 1050.9,277.302C1050.9,279.068 1050.08,280.724 1048.42,282.271C1045.98,284.552 1042.8,285.693 1038.88,285.693C1035.86,285.693 1033.32,285.013 1031.24,283.654C1030.07,282.872 1029.48,282.06 1029.48,281.216C1029.48,280.841 1029.57,280.466 1029.74,280.091C1030.01,279.513 1030.55,278.708 1031.38,277.677C1031.49,277.536 1032.29,276.693 1033.77,275.146C1032.96,274.661 1032.38,274.228 1032.05,273.845C1031.71,273.462 1031.54,273.029 1031.54,272.544C1031.54,271.997 1031.77,271.357 1032.21,270.622C1032.66,269.888 1033.68,268.849 1035.29,267.505ZM1039.37,254.357C1038.22,254.357 1037.25,254.818 1036.47,255.74C1035.68,256.661 1035.29,258.076 1035.29,259.982C1035.29,262.451 1035.83,264.365 1036.89,265.724C1037.7,266.755 1038.73,267.271 1039.98,267.271C1041.17,267.271 1042.14,266.826 1042.91,265.935C1043.68,265.044 1044.06,263.646 1044.06,261.74C1044.06,259.255 1043.52,257.31 1042.44,255.904C1041.64,254.872 1040.62,254.357 1039.37,254.357ZM1035.06,275.333C1034.33,276.13 1033.77,276.872 1033.39,277.56C1033.02,278.247 1032.83,278.88 1032.83,279.458C1032.83,280.208 1033.29,280.865 1034.19,281.427C1035.76,282.396 1038.01,282.88 1040.97,282.88C1043.78,282.88 1045.85,282.384 1047.19,281.392C1048.52,280.4 1049.19,279.341 1049.19,278.216C1049.19,277.404 1048.79,276.826 1048,276.482C1047.18,276.138 1045.58,275.935 1043.17,275.872C1039.65,275.779 1036.95,275.599 1035.06,275.333Z" style="fill:none;"/>
                <path d="M1057.16,261.951C1057.14,265.138 1057.92,267.638 1059.48,269.451C1061.04,271.263 1062.88,272.169 1064.99,272.169C1066.39,272.169 1067.62,271.783 1068.66,271.009C1069.7,270.236 1070.57,268.911 1071.27,267.036L1072,267.505C1071.67,269.646 1070.72,271.595 1069.14,273.353C1067.56,275.111 1065.58,275.99 1063.21,275.99C1060.63,275.99 1058.42,274.986 1056.59,272.978C1054.75,270.97 1053.83,268.271 1053.83,264.88C1053.83,261.208 1054.77,258.345 1056.66,256.29C1058.54,254.236 1060.9,253.208 1063.75,253.208C1066.15,253.208 1068.13,254.001 1069.68,255.587C1071.22,257.173 1072,259.294 1072,261.951L1057.16,261.951ZM1057.16,260.591L1067.1,260.591C1067.02,259.216 1066.86,258.247 1066.61,257.685C1066.22,256.81 1065.63,256.122 1064.86,255.622C1064.09,255.122 1063.28,254.872 1062.43,254.872C1061.14,254.872 1059.98,255.376 1058.95,256.384C1057.93,257.392 1057.33,258.794 1057.16,260.591Z" style="fill:none;"/>
                <path d="M1083.99,240.397C1085.62,240.397 1087.21,240.814 1088.76,241.648C1090.3,242.481 1091.51,243.674 1092.38,245.228C1093.25,246.781 1093.69,248.4 1093.69,250.085C1093.69,251.761 1093.26,253.369 1092.4,254.909C1091.55,256.448 1090.35,257.644 1088.81,258.495C1087.27,259.347 1085.66,259.773 1083.99,259.773C1082.31,259.773 1080.7,259.347 1079.17,258.495C1077.63,257.644 1076.44,256.448 1075.58,254.909C1074.73,253.369 1074.3,251.761 1074.3,250.085C1074.3,248.4 1074.73,246.781 1075.6,245.228C1076.47,243.674 1077.68,242.481 1079.23,241.648C1080.78,240.814 1082.37,240.397 1083.99,240.397ZM1083.99,241.231C1082.5,241.231 1081.05,241.613 1079.64,242.379C1078.23,243.144 1077.13,244.235 1076.34,245.651C1075.54,247.068 1075.15,248.546 1075.15,250.085C1075.15,251.615 1075.54,253.082 1076.32,254.485C1077.09,255.888 1078.18,256.981 1079.59,257.764C1080.99,258.548 1082.46,258.939 1083.99,258.939C1085.52,258.939 1086.99,258.548 1088.39,257.764C1089.8,256.981 1090.89,255.888 1091.67,254.485C1092.45,253.082 1092.84,251.615 1092.84,250.085C1092.84,248.546 1092.44,247.068 1091.65,245.651C1090.86,244.235 1089.76,243.144 1088.35,242.379C1086.93,241.613 1085.48,241.231 1083.99,241.231ZM1078.63,244.128L1083.9,244.128C1085.23,244.128 1086.23,244.426 1086.92,245.023C1087.62,245.619 1087.96,246.341 1087.96,247.188C1087.96,247.881 1087.73,248.489 1087.26,249.012C1086.79,249.536 1086.01,249.939 1084.93,250.222L1087.79,254.294C1088.13,254.776 1088.44,255.109 1088.71,255.291C1088.89,255.4 1089.13,255.469 1089.44,255.496L1089.44,255.947L1086.92,255.947L1082.91,250.413L1081.87,250.413L1081.87,254.635C1081.92,254.936 1082.05,255.154 1082.26,255.291C1082.46,255.428 1082.87,255.496 1083.48,255.496L1083.48,255.947L1078.47,255.947L1078.47,255.496C1078.9,255.496 1079.21,255.444 1079.4,255.339C1079.58,255.234 1079.71,255.082 1079.79,254.881C1079.86,254.735 1079.89,254.312 1079.89,253.61L1079.89,246.464C1079.89,245.79 1079.87,245.394 1079.85,245.275C1079.78,245.066 1079.67,244.904 1079.5,244.79C1079.33,244.676 1079.04,244.619 1078.63,244.619L1078.63,244.128ZM1081.87,249.825C1082.94,249.825 1083.73,249.721 1084.23,249.511C1084.72,249.302 1085.1,249.008 1085.37,248.63C1085.63,248.252 1085.76,247.821 1085.76,247.339C1085.76,246.601 1085.51,245.981 1084.99,245.48C1084.48,244.979 1083.82,244.729 1083.02,244.729C1082.67,244.729 1082.29,244.802 1081.87,244.947L1081.87,249.825Z" style="fill:none;"/>
                <path d="M928.559,260.451L928.559,269.708C928.559,271.708 928.778,272.951 929.216,273.435C929.809,274.122 930.708,274.466 931.911,274.466L933.13,274.466L933.13,275.333L919.513,275.333L919.513,274.466L920.708,274.466C922.052,274.466 923.013,274.029 923.591,273.154C923.903,272.669 924.059,271.521 924.059,269.708L924.059,249.177C924.059,247.177 923.849,245.935 923.427,245.451C922.817,244.763 921.911,244.419 920.708,244.419L919.513,244.419L919.513,243.552L931.161,243.552C934.005,243.552 936.247,243.845 937.888,244.431C939.528,245.017 940.911,246.005 942.036,247.396C943.161,248.786 943.724,250.435 943.724,252.341C943.724,254.935 942.868,257.044 941.157,258.669C939.446,260.294 937.028,261.107 933.903,261.107C933.138,261.107 932.309,261.052 931.419,260.943C930.528,260.833 929.575,260.669 928.559,260.451ZM928.559,259.115C929.388,259.271 930.122,259.388 930.763,259.466C931.403,259.544 931.95,259.583 932.403,259.583C934.028,259.583 935.431,258.954 936.61,257.697C937.79,256.439 938.38,254.81 938.38,252.81C938.38,251.435 938.099,250.158 937.536,248.978C936.974,247.798 936.177,246.915 935.145,246.329C934.114,245.743 932.942,245.451 931.63,245.451C930.833,245.451 929.809,245.599 928.559,245.896L928.559,259.115Z" style="fill-rule:nonzero;"/>
                <path d="M953.192,253.232L953.192,258.06C954.989,254.841 956.833,253.232 958.724,253.232C959.583,253.232 960.294,253.493 960.856,254.017C961.419,254.54 961.7,255.146 961.7,255.833C961.7,256.443 961.497,256.958 961.091,257.38C960.684,257.802 960.2,258.013 959.638,258.013C959.091,258.013 958.477,257.743 957.798,257.204C957.118,256.665 956.614,256.396 956.286,256.396C956.005,256.396 955.7,256.552 955.372,256.865C954.669,257.505 953.942,258.56 953.192,260.029L953.192,270.318C953.192,271.505 953.341,272.404 953.638,273.013C953.841,273.435 954.2,273.786 954.716,274.068C955.231,274.349 955.974,274.49 956.942,274.49L956.942,275.333L945.95,275.333L945.95,274.49C947.044,274.49 947.856,274.318 948.388,273.974C948.778,273.724 949.052,273.326 949.208,272.779C949.286,272.513 949.325,271.755 949.325,270.505L949.325,262.185C949.325,259.685 949.274,258.197 949.173,257.72C949.071,257.243 948.884,256.896 948.61,256.677C948.337,256.458 947.997,256.349 947.591,256.349C947.106,256.349 946.559,256.466 945.95,256.701L945.716,255.857L952.208,253.232L953.192,253.232Z" style="fill-rule:nonzero;"/>
                <path d="M966.505,261.951C966.489,265.138 967.263,267.638 968.825,269.451C970.388,271.263 972.224,272.169 974.333,272.169C975.739,272.169 976.962,271.783 978.001,271.009C979.04,270.236 979.911,268.911 980.614,267.036L981.341,267.505C981.013,269.646 980.059,271.595 978.481,273.353C976.903,275.111 974.927,275.99 972.552,275.99C969.974,275.99 967.766,274.986 965.931,272.978C964.095,270.97 963.177,268.271 963.177,264.88C963.177,261.208 964.118,258.345 966.001,256.29C967.884,254.236 970.247,253.208 973.091,253.208C975.497,253.208 977.474,254.001 979.02,255.587C980.567,257.173 981.341,259.294 981.341,261.951L966.505,261.951ZM966.505,260.591L976.442,260.591C976.364,259.216 976.2,258.247 975.95,257.685C975.559,256.81 974.977,256.122 974.204,255.622C973.431,255.122 972.622,254.872 971.778,254.872C970.481,254.872 969.321,255.376 968.298,256.384C967.274,257.392 966.677,258.794 966.505,260.591Z" style="fill-rule:nonzero;"/>
                <path d="M998.075,253.232L998.075,260.544L997.302,260.544C996.708,258.247 995.946,256.685 995.016,255.857C994.087,255.029 992.903,254.615 991.466,254.615C990.372,254.615 989.489,254.904 988.817,255.482C988.145,256.06 987.809,256.701 987.809,257.404C987.809,258.279 988.059,259.029 988.559,259.654C989.044,260.294 990.028,260.974 991.513,261.693L994.934,263.357C998.106,264.904 999.692,266.943 999.692,269.474C999.692,271.427 998.954,273.001 997.477,274.197C996.001,275.392 994.349,275.99 992.52,275.99C991.208,275.99 989.708,275.755 988.02,275.286C987.505,275.13 987.083,275.052 986.755,275.052C986.395,275.052 986.114,275.255 985.911,275.661L985.138,275.661L985.138,267.997L985.911,267.997C986.349,270.185 987.184,271.833 988.419,272.943C989.653,274.052 991.036,274.607 992.567,274.607C993.645,274.607 994.524,274.29 995.204,273.658C995.884,273.025 996.224,272.263 996.224,271.372C996.224,270.294 995.845,269.388 995.087,268.654C994.329,267.919 992.817,266.99 990.552,265.865C988.286,264.74 986.802,263.724 986.099,262.818C985.395,261.927 985.044,260.802 985.044,259.443C985.044,257.677 985.649,256.201 986.86,255.013C988.071,253.826 989.638,253.232 991.559,253.232C992.403,253.232 993.427,253.411 994.63,253.771C995.427,254.005 995.958,254.122 996.224,254.122C996.474,254.122 996.669,254.068 996.809,253.958C996.95,253.849 997.114,253.607 997.302,253.232L998.075,253.232Z" style="fill-rule:nonzero;"/>
                <path d="M1009.11,246.81L1009.11,253.865L1014.13,253.865L1014.13,255.505L1009.11,255.505L1009.11,269.427C1009.11,270.818 1009.31,271.755 1009.71,272.24C1010.11,272.724 1010.62,272.966 1011.25,272.966C1011.76,272.966 1012.26,272.806 1012.75,272.486C1013.23,272.165 1013.61,271.693 1013.87,271.068L1014.79,271.068C1014.24,272.599 1013.47,273.751 1012.47,274.525C1011.47,275.298 1010.43,275.685 1009.37,275.685C1008.65,275.685 1007.95,275.486 1007.26,275.087C1006.58,274.689 1006.07,274.118 1005.74,273.376C1005.41,272.634 1005.25,271.49 1005.25,269.943L1005.25,255.505L1001.85,255.505L1001.85,254.732C1002.71,254.388 1003.59,253.806 1004.49,252.986C1005.38,252.165 1006.18,251.193 1006.89,250.068C1007.25,249.474 1007.75,248.388 1008.39,246.81L1009.11,246.81Z" style="fill-rule:nonzero;"/>
                <path d="M1021.68,242.005C1022.33,242.005 1022.89,242.236 1023.35,242.697C1023.81,243.158 1024.04,243.716 1024.04,244.372C1024.04,245.029 1023.81,245.591 1023.35,246.06C1022.89,246.529 1022.33,246.763 1021.68,246.763C1021.02,246.763 1020.46,246.529 1019.99,246.06C1019.52,245.591 1019.29,245.029 1019.29,244.372C1019.29,243.716 1019.52,243.158 1019.98,242.697C1020.44,242.236 1021,242.005 1021.68,242.005ZM1023.62,253.232L1023.62,270.482C1023.62,271.826 1023.72,272.72 1023.92,273.165C1024.11,273.611 1024.4,273.943 1024.78,274.161C1025.16,274.38 1025.86,274.49 1026.88,274.49L1026.88,275.333L1016.45,275.333L1016.45,274.49C1017.5,274.49 1018.2,274.388 1018.56,274.185C1018.92,273.982 1019.2,273.646 1019.42,273.177C1019.63,272.708 1019.73,271.81 1019.73,270.482L1019.73,262.208C1019.73,259.88 1019.66,258.372 1019.52,257.685C1019.41,257.185 1019.24,256.837 1019,256.642C1018.77,256.447 1018.45,256.349 1018.04,256.349C1017.61,256.349 1017.08,256.466 1016.45,256.701L1016.12,255.857L1022.59,253.232L1023.62,253.232Z" style="fill-rule:nonzero;"/>
                <path d="M1035.29,267.505C1033.98,266.865 1032.97,265.97 1032.27,264.822C1031.57,263.673 1031.22,262.404 1031.22,261.013C1031.22,258.888 1032.02,257.06 1033.62,255.529C1035.22,253.997 1037.27,253.232 1039.77,253.232C1041.82,253.232 1043.59,253.732 1045.09,254.732L1049.64,254.732C1050.31,254.732 1050.7,254.751 1050.81,254.79C1050.92,254.829 1051,254.896 1051.04,254.99C1051.14,255.13 1051.18,255.38 1051.18,255.74C1051.18,256.146 1051.14,256.427 1051.07,256.583C1051.02,256.661 1050.94,256.724 1050.82,256.771C1050.7,256.818 1050.31,256.841 1049.64,256.841L1046.85,256.841C1047.72,257.966 1048.16,259.404 1048.16,261.154C1048.16,263.154 1047.39,264.865 1045.86,266.286C1044.33,267.708 1042.28,268.419 1039.7,268.419C1038.64,268.419 1037.55,268.263 1036.44,267.951C1035.76,268.544 1035.29,269.064 1035.05,269.509C1034.81,269.954 1034.68,270.333 1034.68,270.646C1034.68,270.911 1034.81,271.169 1035.07,271.419C1035.33,271.669 1035.83,271.849 1036.58,271.958C1037.02,272.021 1038.11,272.076 1039.86,272.122C1043.08,272.201 1045.17,272.31 1046.12,272.451C1047.58,272.654 1048.74,273.193 1049.6,274.068C1050.47,274.943 1050.9,276.021 1050.9,277.302C1050.9,279.068 1050.08,280.724 1048.42,282.271C1045.98,284.552 1042.8,285.693 1038.88,285.693C1035.86,285.693 1033.32,285.013 1031.24,283.654C1030.07,282.872 1029.48,282.06 1029.48,281.216C1029.48,280.841 1029.57,280.466 1029.74,280.091C1030.01,279.513 1030.55,278.708 1031.38,277.677C1031.49,277.536 1032.29,276.693 1033.77,275.146C1032.96,274.661 1032.38,274.228 1032.05,273.845C1031.71,273.462 1031.54,273.029 1031.54,272.544C1031.54,271.997 1031.77,271.357 1032.21,270.622C1032.66,269.888 1033.68,268.849 1035.29,267.505ZM1039.37,254.357C1038.22,254.357 1037.25,254.818 1036.47,255.74C1035.68,256.661 1035.29,258.076 1035.29,259.982C1035.29,262.451 1035.83,264.365 1036.89,265.724C1037.7,266.755 1038.73,267.271 1039.98,267.271C1041.17,267.271 1042.14,266.826 1042.91,265.935C1043.68,265.044 1044.06,263.646 1044.06,261.74C1044.06,259.255 1043.52,257.31 1042.44,255.904C1041.64,254.872 1040.62,254.357 1039.37,254.357ZM1035.06,275.333C1034.33,276.13 1033.77,276.872 1033.39,277.56C1033.02,278.247 1032.83,278.88 1032.83,279.458C1032.83,280.208 1033.29,280.865 1034.19,281.427C1035.76,282.396 1038.01,282.88 1040.97,282.88C1043.78,282.88 1045.85,282.384 1047.19,281.392C1048.52,280.4 1049.19,279.341 1049.19,278.216C1049.19,277.404 1048.79,276.826 1048,276.482C1047.18,276.138 1045.58,275.935 1043.17,275.872C1039.65,275.779 1036.95,275.599 1035.06,275.333Z" style="fill-rule:nonzero;"/>
                <path d="M1057.16,261.951C1057.14,265.138 1057.92,267.638 1059.48,269.451C1061.04,271.263 1062.88,272.169 1064.99,272.169C1066.39,272.169 1067.62,271.783 1068.66,271.009C1069.7,270.236 1070.57,268.911 1071.27,267.036L1072,267.505C1071.67,269.646 1070.72,271.595 1069.14,273.353C1067.56,275.111 1065.58,275.99 1063.21,275.99C1060.63,275.99 1058.42,274.986 1056.59,272.978C1054.75,270.97 1053.83,268.271 1053.83,264.88C1053.83,261.208 1054.77,258.345 1056.66,256.29C1058.54,254.236 1060.9,253.208 1063.75,253.208C1066.15,253.208 1068.13,254.001 1069.68,255.587C1071.22,257.173 1072,259.294 1072,261.951L1057.16,261.951ZM1057.16,260.591L1067.1,260.591C1067.02,259.216 1066.86,258.247 1066.61,257.685C1066.22,256.81 1065.63,256.122 1064.86,255.622C1064.09,255.122 1063.28,254.872 1062.43,254.872C1061.14,254.872 1059.98,255.376 1058.95,256.384C1057.93,257.392 1057.33,258.794 1057.16,260.591Z" style="fill-rule:nonzero;"/>
                <path d="M1083.99,240.397C1085.62,240.397 1087.21,240.814 1088.76,241.648C1090.3,242.481 1091.51,243.674 1092.38,245.228C1093.25,246.781 1093.69,248.4 1093.69,250.085C1093.69,251.761 1093.26,253.369 1092.4,254.909C1091.55,256.448 1090.35,257.644 1088.81,258.495C1087.27,259.347 1085.66,259.773 1083.99,259.773C1082.31,259.773 1080.7,259.347 1079.17,258.495C1077.63,257.644 1076.44,256.448 1075.58,254.909C1074.73,253.369 1074.3,251.761 1074.3,250.085C1074.3,248.4 1074.73,246.781 1075.6,245.228C1076.47,243.674 1077.68,242.481 1079.23,241.648C1080.78,240.814 1082.37,240.397 1083.99,240.397ZM1083.99,241.231C1082.5,241.231 1081.05,241.613 1079.64,242.379C1078.23,243.144 1077.13,244.235 1076.34,245.651C1075.54,247.068 1075.15,248.546 1075.15,250.085C1075.15,251.615 1075.54,253.082 1076.32,254.485C1077.09,255.888 1078.18,256.981 1079.59,257.764C1080.99,258.548 1082.46,258.939 1083.99,258.939C1085.52,258.939 1086.99,258.548 1088.39,257.764C1089.8,256.981 1090.89,255.888 1091.67,254.485C1092.45,253.082 1092.84,251.615 1092.84,250.085C1092.84,248.546 1092.44,247.068 1091.65,245.651C1090.86,244.235 1089.76,243.144 1088.35,242.379C1086.93,241.613 1085.48,241.231 1083.99,241.231ZM1078.63,244.128L1083.9,244.128C1085.23,244.128 1086.23,244.426 1086.92,245.023C1087.62,245.619 1087.96,246.341 1087.96,247.188C1087.96,247.881 1087.73,248.489 1087.26,249.012C1086.79,249.536 1086.01,249.939 1084.93,250.222L1087.79,254.294C1088.13,254.776 1088.44,255.109 1088.71,255.291C1088.89,255.4 1089.13,255.469 1089.44,255.496L1089.44,255.947L1086.92,255.947L1082.91,250.413L1081.87,250.413L1081.87,254.635C1081.92,254.936 1082.05,255.154 1082.26,255.291C1082.46,255.428 1082.87,255.496 1083.48,255.496L1083.48,255.947L1078.47,255.947L1078.47,255.496C1078.9,255.496 1079.21,255.444 1079.4,255.339C1079.58,255.234 1079.71,255.082 1079.79,254.881C1079.86,254.735 1079.89,254.312 1079.89,253.61L1079.89,246.464C1079.89,245.79 1079.87,245.394 1079.85,245.275C1079.78,245.066 1079.67,244.904 1079.5,244.79C1079.33,244.676 1079.04,244.619 1078.63,244.619L1078.63,244.128ZM1081.87,249.825C1082.94,249.825 1083.73,249.721 1084.23,249.511C1084.72,249.302 1085.1,249.008 1085.37,248.63C1085.63,248.252 1085.76,247.821 1085.76,247.339C1085.76,246.601 1085.51,245.981 1084.99,245.48C1084.48,244.979 1083.82,244.729 1083.02,244.729C1082.67,244.729 1082.29,244.802 1081.87,244.947L1081.87,249.825Z" style="fill-rule:nonzero;"/>
            </g>
        </g>
    </g>
</svg>
