<?xml version="1.0" encoding="UTF-8" standalone="no"?>
<!DOCTYPE svg PUBLIC "-//W3C//DTD SVG 1.1//EN" "http://www.w3.org/Graphics/SVG/1.1/DTD/svg11.dtd">
<svg width="100%" height="100%" viewBox="0 0 241 43" version="1.1" xmlns="http://www.w3.org/2000/svg" xmlns:xlink="http://www.w3.org/1999/xlink" xml:space="preserve" style="fill-rule:evenodd;clip-rule:evenodd;stroke-linejoin:round;stroke-miterlimit:1.41421;">
    <g transform="matrix(1,0,0,1,-861.387,-187.902)">
        <g transform="matrix(3.3958,0,0,2.22073,-284.643,-193.171)">
            <g transform="matrix(0.294481,0,0,0.450302,268.483,47.1853)">
                <path d="M282.256,288.143L278.608,288.143C278.592,289.199 278.784,290.111 279.184,290.879C279.584,291.647 280.124,292.279 280.804,292.775C281.484,293.271 282.268,293.635 283.156,293.867C284.044,294.099 284.96,294.215 285.904,294.215C287.072,294.215 288.1,294.079 288.988,293.807C289.876,293.535 290.62,293.155 291.22,292.667C291.82,292.179 292.272,291.599 292.576,290.927C292.88,290.255 293.032,289.527 293.032,288.743C293.032,287.783 292.828,286.995 292.42,286.379C292.012,285.763 291.528,285.271 290.968,284.903C290.408,284.535 289.844,284.267 289.276,284.099C288.708,283.931 288.264,283.815 287.944,283.751C286.872,283.479 286.004,283.255 285.34,283.079C284.676,282.903 284.156,282.727 283.78,282.551C283.404,282.375 283.152,282.183 283.024,281.975C282.896,281.767 282.832,281.495 282.832,281.159C282.832,280.791 282.912,280.487 283.072,280.247C283.232,280.007 283.436,279.807 283.684,279.647C283.932,279.487 284.208,279.375 284.512,279.311C284.816,279.247 285.12,279.215 285.424,279.215C285.888,279.215 286.316,279.255 286.708,279.335C287.1,279.415 287.448,279.551 287.752,279.743C288.056,279.935 288.3,280.199 288.484,280.535C288.668,280.871 288.776,281.295 288.808,281.807L292.456,281.807C292.456,280.815 292.268,279.971 291.892,279.275C291.516,278.579 291.008,278.007 290.368,277.559C289.728,277.111 288.996,276.787 288.172,276.587C287.348,276.387 286.488,276.287 285.592,276.287C284.824,276.287 284.056,276.391 283.288,276.599C282.52,276.807 281.832,277.127 281.224,277.559C280.616,277.991 280.124,278.531 279.748,279.179C279.372,279.827 279.184,280.591 279.184,281.471C279.184,282.255 279.332,282.923 279.628,283.475C279.924,284.027 280.312,284.487 280.792,284.855C281.272,285.223 281.816,285.523 282.424,285.755C283.032,285.987 283.656,286.183 284.296,286.343C284.92,286.519 285.536,286.679 286.144,286.823C286.752,286.967 287.296,287.135 287.776,287.327C288.256,287.519 288.644,287.759 288.94,288.047C289.236,288.335 289.384,288.711 289.384,289.175C289.384,289.607 289.272,289.963 289.048,290.243C288.824,290.523 288.544,290.743 288.208,290.903C287.872,291.063 287.512,291.171 287.128,291.227C286.744,291.283 286.384,291.311 286.048,291.311C285.552,291.311 285.072,291.251 284.608,291.131C284.144,291.011 283.74,290.827 283.396,290.579C283.052,290.331 282.776,290.007 282.568,289.607C282.36,289.207 282.256,288.719 282.256,288.143Z" style="fill-rule:nonzero;"/>
                <path d="M294.904,276.695L294.904,293.831L298.312,293.831L298.312,287.327C298.312,286.063 298.52,285.155 298.936,284.603C299.352,284.051 300.024,283.775 300.952,283.775C301.768,283.775 302.336,284.027 302.656,284.531C302.976,285.035 303.136,285.799 303.136,286.823L303.136,293.831L306.544,293.831L306.544,286.199C306.544,285.431 306.476,284.731 306.34,284.099C306.204,283.467 305.968,282.931 305.632,282.491C305.296,282.051 304.836,281.707 304.252,281.459C303.668,281.211 302.92,281.087 302.008,281.087C301.368,281.087 300.712,281.251 300.04,281.579C299.368,281.907 298.816,282.431 298.384,283.151L298.312,283.151L298.312,276.695L294.904,276.695Z" style="fill-rule:nonzero;"/>
                <path d="M308.992,285.239L312.4,285.239C312.464,284.567 312.688,284.087 313.072,283.799C313.456,283.511 313.984,283.367 314.656,283.367C314.96,283.367 315.244,283.387 315.508,283.427C315.772,283.467 316.004,283.547 316.204,283.667C316.404,283.787 316.564,283.955 316.684,284.171C316.804,284.387 316.864,284.679 316.864,285.047C316.88,285.399 316.776,285.667 316.552,285.851C316.328,286.035 316.024,286.175 315.64,286.271C315.256,286.367 314.816,286.439 314.32,286.487C313.824,286.535 313.32,286.599 312.808,286.679C312.296,286.759 311.788,286.867 311.284,287.003C310.78,287.139 310.332,287.343 309.94,287.615C309.548,287.887 309.228,288.251 308.98,288.707C308.732,289.163 308.608,289.743 308.608,290.447C308.608,291.087 308.716,291.639 308.932,292.103C309.148,292.567 309.448,292.951 309.832,293.255C310.216,293.559 310.664,293.783 311.176,293.927C311.688,294.071 312.24,294.143 312.832,294.143C313.6,294.143 314.352,294.031 315.088,293.807C315.824,293.583 316.464,293.191 317.008,292.631C317.024,292.839 317.052,293.043 317.092,293.243C317.132,293.443 317.184,293.639 317.248,293.831L320.704,293.831C320.544,293.575 320.432,293.191 320.368,292.679C320.304,292.167 320.272,291.631 320.272,291.071L320.272,284.615C320.272,283.863 320.104,283.259 319.768,282.803C319.432,282.347 319,281.991 318.472,281.735C317.944,281.479 317.36,281.307 316.72,281.219C316.08,281.131 315.448,281.087 314.824,281.087C314.136,281.087 313.452,281.155 312.772,281.291C312.092,281.427 311.48,281.655 310.936,281.975C310.392,282.295 309.944,282.719 309.592,283.247C309.24,283.775 309.04,284.439 308.992,285.239ZM316.864,287.759L316.864,289.031C316.864,289.223 316.844,289.479 316.804,289.799C316.764,290.119 316.656,290.435 316.48,290.747C316.304,291.059 316.032,291.327 315.664,291.551C315.296,291.775 314.776,291.887 314.104,291.887C313.832,291.887 313.568,291.863 313.312,291.815C313.056,291.767 312.832,291.683 312.64,291.563C312.448,291.443 312.296,291.279 312.184,291.071C312.072,290.863 312.016,290.607 312.016,290.303C312.016,289.983 312.072,289.719 312.184,289.511C312.296,289.303 312.444,289.131 312.628,288.995C312.812,288.859 313.028,288.751 313.276,288.671C313.524,288.591 313.776,288.527 314.032,288.479C314.304,288.431 314.576,288.391 314.848,288.359C315.12,288.327 315.38,288.287 315.628,288.239C315.876,288.191 316.108,288.131 316.324,288.059C316.54,287.987 316.72,287.887 316.864,287.759Z" style="fill-rule:nonzero;"/>
                <path d="M322.912,281.423L322.912,293.831L326.32,293.831L326.32,288.239C326.32,287.679 326.376,287.159 326.488,286.679C326.6,286.199 326.788,285.779 327.052,285.419C327.316,285.059 327.664,284.775 328.096,284.567C328.528,284.359 329.056,284.255 329.68,284.255C329.888,284.255 330.104,284.267 330.328,284.291C330.552,284.315 330.744,284.343 330.904,284.375L330.904,281.207C330.632,281.127 330.384,281.087 330.16,281.087C329.728,281.087 329.312,281.151 328.912,281.279C328.512,281.407 328.136,281.587 327.784,281.819C327.432,282.051 327.12,282.331 326.848,282.659C326.576,282.987 326.36,283.343 326.2,283.727L326.152,283.727L326.152,281.423L322.912,281.423Z" style="fill-rule:nonzero;"/>
                <path d="M338.512,291.599C337.968,291.599 337.504,291.487 337.12,291.263C336.736,291.039 336.428,290.747 336.196,290.387C335.964,290.027 335.796,289.607 335.692,289.127C335.588,288.647 335.536,288.159 335.536,287.663C335.536,287.151 335.584,286.655 335.68,286.175C335.776,285.695 335.94,285.271 336.172,284.903C336.404,284.535 336.708,284.235 337.084,284.003C337.46,283.771 337.928,283.655 338.488,283.655C339.032,283.655 339.492,283.771 339.868,284.003C340.244,284.235 340.552,284.539 340.792,284.915C341.032,285.291 341.204,285.719 341.308,286.199C341.412,286.679 341.464,287.167 341.464,287.663C341.464,288.159 341.416,288.647 341.32,289.127C341.224,289.607 341.06,290.027 340.828,290.387C340.596,290.747 340.292,291.039 339.916,291.263C339.54,291.487 339.072,291.599 338.512,291.599ZM332.248,281.423L332.248,298.175L335.656,298.175L335.656,292.295L335.704,292.295C336.12,292.903 336.652,293.363 337.3,293.675C337.948,293.987 338.656,294.143 339.424,294.143C340.336,294.143 341.132,293.967 341.812,293.615C342.492,293.263 343.06,292.791 343.516,292.199C343.972,291.607 344.312,290.927 344.536,290.159C344.76,289.391 344.872,288.591 344.872,287.759C344.872,286.879 344.76,286.035 344.536,285.227C344.312,284.419 343.968,283.711 343.504,283.103C343.04,282.495 342.456,282.007 341.752,281.639C341.048,281.271 340.208,281.087 339.232,281.087C338.464,281.087 337.76,281.239 337.12,281.543C336.48,281.847 335.952,282.335 335.536,283.007L335.488,283.007L335.488,281.423L332.248,281.423Z" style="fill-rule:nonzero;"/>
                <path d="M347.08,290.135L347.08,293.831L348.808,293.831C348.824,294.087 348.792,294.339 348.712,294.587C348.632,294.835 348.512,295.059 348.352,295.259C348.192,295.459 348.004,295.631 347.788,295.775C347.572,295.919 347.344,296.015 347.104,296.063L347.104,297.791C347.616,297.711 348.1,297.563 348.556,297.347C349.012,297.131 349.408,296.855 349.744,296.519C350.08,296.183 350.348,295.787 350.548,295.331C350.748,294.875 350.848,294.375 350.848,293.831L350.848,290.135L347.08,290.135Z" style="fill-rule:nonzero;"/>
                <path d="M362.896,289.799L359.656,289.799C359.688,290.631 359.876,291.323 360.22,291.875C360.564,292.427 361.004,292.871 361.54,293.207C362.076,293.543 362.688,293.783 363.376,293.927C364.064,294.071 364.768,294.143 365.488,294.143C366.192,294.143 366.884,294.075 367.564,293.939C368.244,293.803 368.848,293.567 369.376,293.231C369.904,292.895 370.332,292.451 370.66,291.899C370.988,291.347 371.152,290.663 371.152,289.847C371.152,289.271 371.04,288.787 370.816,288.395C370.592,288.003 370.296,287.675 369.928,287.411C369.56,287.147 369.14,286.935 368.668,286.775C368.196,286.615 367.712,286.479 367.216,286.367C366.736,286.255 366.264,286.151 365.8,286.055C365.336,285.959 364.924,285.851 364.564,285.731C364.204,285.611 363.912,285.455 363.688,285.263C363.464,285.071 363.352,284.823 363.352,284.519C363.352,284.263 363.416,284.059 363.544,283.907C363.672,283.755 363.828,283.639 364.012,283.559C364.196,283.479 364.4,283.427 364.624,283.403C364.848,283.379 365.056,283.367 365.248,283.367C365.856,283.367 366.384,283.483 366.832,283.715C367.28,283.947 367.528,284.391 367.576,285.047L370.816,285.047C370.752,284.279 370.556,283.643 370.228,283.139C369.9,282.635 369.488,282.231 368.992,281.927C368.496,281.623 367.932,281.407 367.3,281.279C366.668,281.151 366.016,281.087 365.344,281.087C364.672,281.087 364.016,281.147 363.376,281.267C362.736,281.387 362.16,281.595 361.648,281.891C361.136,282.187 360.724,282.591 360.412,283.103C360.1,283.615 359.944,284.271 359.944,285.071C359.944,285.615 360.056,286.075 360.28,286.451C360.504,286.827 360.8,287.139 361.168,287.387C361.536,287.635 361.956,287.835 362.428,287.987C362.9,288.139 363.384,288.271 363.88,288.383C365.096,288.639 366.044,288.895 366.724,289.151C367.404,289.407 367.744,289.791 367.744,290.303C367.744,290.607 367.672,290.859 367.528,291.059C367.384,291.259 367.204,291.419 366.988,291.539C366.772,291.659 366.532,291.747 366.268,291.803C366.004,291.859 365.752,291.887 365.512,291.887C365.176,291.887 364.852,291.847 364.54,291.767C364.228,291.687 363.952,291.563 363.712,291.395C363.472,291.227 363.276,291.011 363.124,290.747C362.972,290.483 362.896,290.167 362.896,289.799Z" style="fill-rule:nonzero;"/>
                <path d="M373.24,281.423L373.24,293.831L376.648,293.831L376.648,286.631C376.648,286.023 376.736,285.531 376.912,285.155C377.088,284.779 377.3,284.491 377.548,284.291C377.796,284.091 378.052,283.955 378.316,283.883C378.58,283.811 378.792,283.775 378.952,283.775C379.496,283.775 379.908,283.867 380.188,284.051C380.468,284.235 380.668,284.479 380.788,284.783C380.908,285.087 380.976,285.419 380.992,285.779C381.008,286.139 381.016,286.503 381.016,286.871L381.016,293.831L384.424,293.831L384.424,286.919C384.424,286.535 384.452,286.155 384.508,285.779C384.564,285.403 384.676,285.067 384.844,284.771C385.012,284.475 385.244,284.235 385.54,284.051C385.836,283.867 386.224,283.775 386.704,283.775C387.184,283.775 387.564,283.855 387.844,284.015C388.124,284.175 388.336,284.391 388.48,284.663C388.624,284.935 388.712,285.255 388.744,285.623C388.776,285.991 388.792,286.383 388.792,286.799L388.792,293.831L392.2,293.831L392.2,285.527C392.2,284.727 392.088,284.043 391.864,283.475C391.64,282.907 391.328,282.447 390.928,282.095C390.528,281.743 390.048,281.487 389.488,281.327C388.928,281.167 388.32,281.087 387.664,281.087C386.8,281.087 386.052,281.295 385.42,281.711C384.788,282.127 384.288,282.607 383.92,283.151C383.584,282.383 383.092,281.847 382.444,281.543C381.796,281.239 381.08,281.087 380.296,281.087C379.48,281.087 378.756,281.263 378.124,281.615C377.492,281.967 376.952,282.463 376.504,283.103L376.456,283.103L376.456,281.423L373.24,281.423Z" style="fill-rule:nonzero;"/>
                <path d="M394.744,285.239L398.152,285.239C398.216,284.567 398.44,284.087 398.824,283.799C399.208,283.511 399.736,283.367 400.408,283.367C400.712,283.367 400.996,283.387 401.26,283.427C401.524,283.467 401.756,283.547 401.956,283.667C402.156,283.787 402.316,283.955 402.436,284.171C402.556,284.387 402.616,284.679 402.616,285.047C402.632,285.399 402.528,285.667 402.304,285.851C402.08,286.035 401.776,286.175 401.392,286.271C401.008,286.367 400.568,286.439 400.072,286.487C399.576,286.535 399.072,286.599 398.56,286.679C398.048,286.759 397.54,286.867 397.036,287.003C396.532,287.139 396.084,287.343 395.692,287.615C395.3,287.887 394.98,288.251 394.732,288.707C394.484,289.163 394.36,289.743 394.36,290.447C394.36,291.087 394.468,291.639 394.684,292.103C394.9,292.567 395.2,292.951 395.584,293.255C395.968,293.559 396.416,293.783 396.928,293.927C397.44,294.071 397.992,294.143 398.584,294.143C399.352,294.143 400.104,294.031 400.84,293.807C401.576,293.583 402.216,293.191 402.76,292.631C402.776,292.839 402.804,293.043 402.844,293.243C402.884,293.443 402.936,293.639 403,293.831L406.456,293.831C406.296,293.575 406.184,293.191 406.12,292.679C406.056,292.167 406.024,291.631 406.024,291.071L406.024,284.615C406.024,283.863 405.856,283.259 405.52,282.803C405.184,282.347 404.752,281.991 404.224,281.735C403.696,281.479 403.112,281.307 402.472,281.219C401.832,281.131 401.2,281.087 400.576,281.087C399.888,281.087 399.204,281.155 398.524,281.291C397.844,281.427 397.232,281.655 396.688,281.975C396.144,282.295 395.696,282.719 395.344,283.247C394.992,283.775 394.792,284.439 394.744,285.239ZM402.616,287.759L402.616,289.031C402.616,289.223 402.596,289.479 402.556,289.799C402.516,290.119 402.408,290.435 402.232,290.747C402.056,291.059 401.784,291.327 401.416,291.551C401.048,291.775 400.528,291.887 399.856,291.887C399.584,291.887 399.32,291.863 399.064,291.815C398.808,291.767 398.584,291.683 398.392,291.563C398.2,291.443 398.048,291.279 397.936,291.071C397.824,290.863 397.768,290.607 397.768,290.303C397.768,289.983 397.824,289.719 397.936,289.511C398.048,289.303 398.196,289.131 398.38,288.995C398.564,288.859 398.78,288.751 399.028,288.671C399.276,288.591 399.528,288.527 399.784,288.479C400.056,288.431 400.328,288.391 400.6,288.359C400.872,288.327 401.132,288.287 401.38,288.239C401.628,288.191 401.86,288.131 402.076,288.059C402.292,287.987 402.472,287.887 402.616,287.759Z" style="fill-rule:nonzero;"/>
                <path d="M408.664,281.423L408.664,293.831L412.072,293.831L412.072,288.239C412.072,287.679 412.128,287.159 412.24,286.679C412.352,286.199 412.54,285.779 412.804,285.419C413.068,285.059 413.416,284.775 413.848,284.567C414.28,284.359 414.808,284.255 415.432,284.255C415.64,284.255 415.856,284.267 416.08,284.291C416.304,284.315 416.496,284.343 416.656,284.375L416.656,281.207C416.384,281.127 416.136,281.087 415.912,281.087C415.48,281.087 415.064,281.151 414.664,281.279C414.264,281.407 413.888,281.587 413.536,281.819C413.184,282.051 412.872,282.331 412.6,282.659C412.328,282.987 412.112,283.343 411.952,283.727L411.904,283.727L411.904,281.423L408.664,281.423Z" style="fill-rule:nonzero;"/>
                <path d="M422.32,281.423L422.32,277.703L418.912,277.703L418.912,281.423L416.848,281.423L416.848,283.703L418.912,283.703L418.912,291.023C418.912,291.647 419.016,292.151 419.224,292.535C419.432,292.919 419.716,293.215 420.076,293.423C420.436,293.631 420.852,293.771 421.324,293.843C421.796,293.915 422.296,293.951 422.824,293.951C423.16,293.951 423.504,293.943 423.856,293.927C424.208,293.911 424.528,293.879 424.816,293.831L424.816,291.191C424.656,291.223 424.488,291.247 424.312,291.263C424.136,291.279 423.952,291.287 423.76,291.287C423.184,291.287 422.8,291.191 422.608,290.999C422.416,290.807 422.32,290.423 422.32,289.847L422.32,283.703L424.816,283.703L424.816,281.423L422.32,281.423Z" style="fill-rule:nonzero;"/>
                <path d="M426.616,290.135L426.616,293.831L428.344,293.831C428.36,294.087 428.328,294.339 428.248,294.587C428.168,294.835 428.048,295.059 427.888,295.259C427.728,295.459 427.54,295.631 427.324,295.775C427.108,295.919 426.88,296.015 426.64,296.063L426.64,297.791C427.152,297.711 427.636,297.563 428.092,297.347C428.548,297.131 428.944,296.855 429.28,296.519C429.616,296.183 429.884,295.787 430.084,295.331C430.284,294.875 430.384,294.375 430.384,293.831L430.384,290.135L426.616,290.135Z" style="fill-rule:nonzero;"/>
                <path d="M237.556,314.495L234.316,314.495C234.348,315.327 234.536,316.019 234.88,316.571C235.224,317.123 235.664,317.567 236.2,317.903C236.736,318.239 237.348,318.479 238.036,318.623C238.724,318.767 239.428,318.839 240.148,318.839C240.852,318.839 241.544,318.771 242.224,318.635C242.904,318.499 243.508,318.263 244.036,317.927C244.564,317.591 244.992,317.147 245.32,316.595C245.648,316.043 245.812,315.359 245.812,314.543C245.812,313.967 245.7,313.483 245.476,313.091C245.252,312.699 244.956,312.371 244.588,312.107C244.22,311.843 243.8,311.631 243.328,311.471C242.856,311.311 242.372,311.175 241.876,311.063C241.396,310.951 240.924,310.847 240.46,310.751C239.996,310.655 239.584,310.547 239.224,310.427C238.864,310.307 238.572,310.151 238.348,309.959C238.124,309.767 238.012,309.519 238.012,309.215C238.012,308.959 238.076,308.755 238.204,308.603C238.332,308.451 238.488,308.335 238.672,308.255C238.856,308.175 239.06,308.123 239.284,308.099C239.508,308.075 239.716,308.063 239.908,308.063C240.516,308.063 241.044,308.179 241.492,308.411C241.94,308.643 242.188,309.087 242.236,309.743L245.476,309.743C245.412,308.975 245.216,308.339 244.888,307.835C244.56,307.331 244.148,306.927 243.652,306.623C243.156,306.319 242.592,306.103 241.96,305.975C241.328,305.847 240.676,305.783 240.004,305.783C239.332,305.783 238.676,305.843 238.036,305.963C237.396,306.083 236.82,306.291 236.308,306.587C235.796,306.883 235.384,307.287 235.072,307.799C234.76,308.311 234.604,308.967 234.604,309.767C234.604,310.311 234.716,310.771 234.94,311.147C235.164,311.523 235.46,311.835 235.828,312.083C236.196,312.331 236.616,312.531 237.088,312.683C237.56,312.835 238.044,312.967 238.54,313.079C239.756,313.335 240.704,313.591 241.384,313.847C242.064,314.103 242.404,314.487 242.404,314.999C242.404,315.303 242.332,315.555 242.188,315.755C242.044,315.955 241.864,316.115 241.648,316.235C241.432,316.355 241.192,316.443 240.928,316.499C240.664,316.555 240.412,316.583 240.172,316.583C239.836,316.583 239.512,316.543 239.2,316.463C238.888,316.383 238.612,316.259 238.372,316.091C238.132,315.923 237.936,315.707 237.784,315.443C237.632,315.179 237.556,314.863 237.556,314.495Z" style="fill-rule:nonzero;"/>
                <path d="M247.66,309.935L251.068,309.935C251.132,309.263 251.356,308.783 251.74,308.495C252.124,308.207 252.652,308.063 253.324,308.063C253.628,308.063 253.912,308.083 254.176,308.123C254.44,308.163 254.672,308.243 254.872,308.363C255.072,308.483 255.232,308.651 255.352,308.867C255.472,309.083 255.532,309.375 255.532,309.743C255.548,310.095 255.444,310.363 255.22,310.547C254.996,310.731 254.692,310.871 254.308,310.967C253.924,311.063 253.484,311.135 252.988,311.183C252.492,311.231 251.988,311.295 251.476,311.375C250.964,311.455 250.456,311.563 249.952,311.699C249.448,311.835 249,312.039 248.608,312.311C248.216,312.583 247.896,312.947 247.648,313.403C247.4,313.859 247.276,314.439 247.276,315.143C247.276,315.783 247.384,316.335 247.6,316.799C247.816,317.263 248.116,317.647 248.5,317.951C248.884,318.255 249.332,318.479 249.844,318.623C250.356,318.767 250.908,318.839 251.5,318.839C252.268,318.839 253.02,318.727 253.756,318.503C254.492,318.279 255.132,317.887 255.676,317.327C255.692,317.535 255.72,317.739 255.76,317.939C255.8,318.139 255.852,318.335 255.916,318.527L259.372,318.527C259.212,318.271 259.1,317.887 259.036,317.375C258.972,316.863 258.94,316.327 258.94,315.767L258.94,309.311C258.94,308.559 258.772,307.955 258.436,307.499C258.1,307.043 257.668,306.687 257.14,306.431C256.612,306.175 256.028,306.003 255.388,305.915C254.748,305.827 254.116,305.783 253.492,305.783C252.804,305.783 252.12,305.851 251.44,305.987C250.76,306.123 250.148,306.351 249.604,306.671C249.06,306.991 248.612,307.415 248.26,307.943C247.908,308.471 247.708,309.135 247.66,309.935ZM255.532,312.455L255.532,313.727C255.532,313.919 255.512,314.175 255.472,314.495C255.432,314.815 255.324,315.131 255.148,315.443C254.972,315.755 254.7,316.023 254.332,316.247C253.964,316.471 253.444,316.583 252.772,316.583C252.5,316.583 252.236,316.559 251.98,316.511C251.724,316.463 251.5,316.379 251.308,316.259C251.116,316.139 250.964,315.975 250.852,315.767C250.74,315.559 250.684,315.303 250.684,314.999C250.684,314.679 250.74,314.415 250.852,314.207C250.964,313.999 251.112,313.827 251.296,313.691C251.48,313.555 251.696,313.447 251.944,313.367C252.192,313.287 252.444,313.223 252.7,313.175C252.972,313.127 253.244,313.087 253.516,313.055C253.788,313.023 254.048,312.983 254.296,312.935C254.544,312.887 254.776,312.827 254.992,312.755C255.208,312.683 255.388,312.583 255.532,312.455Z" style="fill-rule:nonzero;"/>
                <path d="M261.58,306.119L261.58,318.527L264.988,318.527L264.988,312.023C264.988,310.759 265.196,309.851 265.612,309.299C266.028,308.747 266.7,308.471 267.628,308.471C268.444,308.471 269.012,308.723 269.332,309.227C269.652,309.731 269.812,310.495 269.812,311.519L269.812,318.527L273.22,318.527L273.22,310.895C273.22,310.127 273.152,309.427 273.016,308.795C272.88,308.163 272.644,307.627 272.308,307.187C271.972,306.747 271.512,306.403 270.928,306.155C270.344,305.907 269.596,305.783 268.684,305.783C267.964,305.783 267.26,305.947 266.572,306.275C265.884,306.603 265.324,307.127 264.892,307.847L264.82,307.847L264.82,306.119L261.58,306.119Z" style="fill-rule:nonzero;"/>
                <path d="M278.452,314.495L275.212,314.495C275.244,315.327 275.432,316.019 275.776,316.571C276.12,317.123 276.56,317.567 277.096,317.903C277.632,318.239 278.244,318.479 278.932,318.623C279.62,318.767 280.324,318.839 281.044,318.839C281.748,318.839 282.44,318.771 283.12,318.635C283.8,318.499 284.404,318.263 284.932,317.927C285.46,317.591 285.888,317.147 286.216,316.595C286.544,316.043 286.708,315.359 286.708,314.543C286.708,313.967 286.596,313.483 286.372,313.091C286.148,312.699 285.852,312.371 285.484,312.107C285.116,311.843 284.696,311.631 284.224,311.471C283.752,311.311 283.268,311.175 282.772,311.063C282.292,310.951 281.82,310.847 281.356,310.751C280.892,310.655 280.48,310.547 280.12,310.427C279.76,310.307 279.468,310.151 279.244,309.959C279.02,309.767 278.908,309.519 278.908,309.215C278.908,308.959 278.972,308.755 279.1,308.603C279.228,308.451 279.384,308.335 279.568,308.255C279.752,308.175 279.956,308.123 280.18,308.099C280.404,308.075 280.612,308.063 280.804,308.063C281.412,308.063 281.94,308.179 282.388,308.411C282.836,308.643 283.084,309.087 283.132,309.743L286.372,309.743C286.308,308.975 286.112,308.339 285.784,307.835C285.456,307.331 285.044,306.927 284.548,306.623C284.052,306.319 283.488,306.103 282.856,305.975C282.224,305.847 281.572,305.783 280.9,305.783C280.228,305.783 279.572,305.843 278.932,305.963C278.292,306.083 277.716,306.291 277.204,306.587C276.692,306.883 276.28,307.287 275.968,307.799C275.656,308.311 275.5,308.967 275.5,309.767C275.5,310.311 275.612,310.771 275.836,311.147C276.06,311.523 276.356,311.835 276.724,312.083C277.092,312.331 277.512,312.531 277.984,312.683C278.456,312.835 278.94,312.967 279.436,313.079C280.652,313.335 281.6,313.591 282.28,313.847C282.96,314.103 283.3,314.487 283.3,314.999C283.3,315.303 283.228,315.555 283.084,315.755C282.94,315.955 282.76,316.115 282.544,316.235C282.328,316.355 282.088,316.443 281.824,316.499C281.56,316.555 281.308,316.583 281.068,316.583C280.732,316.583 280.408,316.543 280.096,316.463C279.784,316.383 279.508,316.259 279.268,316.091C279.028,315.923 278.832,315.707 278.68,315.443C278.528,315.179 278.452,314.863 278.452,314.495Z" style="fill-rule:nonzero;"/>
                <rect x="288.676" y="310.511" width="7.224" height="2.928" style="fill-rule:nonzero;"/>
                <path d="M301.108,314.495L297.868,314.495C297.9,315.327 298.088,316.019 298.432,316.571C298.776,317.123 299.216,317.567 299.752,317.903C300.288,318.239 300.9,318.479 301.588,318.623C302.276,318.767 302.98,318.839 303.7,318.839C304.404,318.839 305.096,318.771 305.776,318.635C306.456,318.499 307.06,318.263 307.588,317.927C308.116,317.591 308.544,317.147 308.872,316.595C309.2,316.043 309.364,315.359 309.364,314.543C309.364,313.967 309.252,313.483 309.028,313.091C308.804,312.699 308.508,312.371 308.14,312.107C307.772,311.843 307.352,311.631 306.88,311.471C306.408,311.311 305.924,311.175 305.428,311.063C304.948,310.951 304.476,310.847 304.012,310.751C303.548,310.655 303.136,310.547 302.776,310.427C302.416,310.307 302.124,310.151 301.9,309.959C301.676,309.767 301.564,309.519 301.564,309.215C301.564,308.959 301.628,308.755 301.756,308.603C301.884,308.451 302.04,308.335 302.224,308.255C302.408,308.175 302.612,308.123 302.836,308.099C303.06,308.075 303.268,308.063 303.46,308.063C304.068,308.063 304.596,308.179 305.044,308.411C305.492,308.643 305.74,309.087 305.788,309.743L309.028,309.743C308.964,308.975 308.768,308.339 308.44,307.835C308.112,307.331 307.7,306.927 307.204,306.623C306.708,306.319 306.144,306.103 305.512,305.975C304.88,305.847 304.228,305.783 303.556,305.783C302.884,305.783 302.228,305.843 301.588,305.963C300.948,306.083 300.372,306.291 299.86,306.587C299.348,306.883 298.936,307.287 298.624,307.799C298.312,308.311 298.156,308.967 298.156,309.767C298.156,310.311 298.268,310.771 298.492,311.147C298.716,311.523 299.012,311.835 299.38,312.083C299.748,312.331 300.168,312.531 300.64,312.683C301.112,312.835 301.596,312.967 302.092,313.079C303.308,313.335 304.256,313.591 304.936,313.847C305.616,314.103 305.956,314.487 305.956,314.999C305.956,315.303 305.884,315.555 305.74,315.755C305.596,315.955 305.416,316.115 305.2,316.235C304.984,316.355 304.744,316.443 304.48,316.499C304.216,316.555 303.964,316.583 303.724,316.583C303.388,316.583 303.064,316.543 302.752,316.463C302.44,316.383 302.164,316.259 301.924,316.091C301.684,315.923 301.488,315.707 301.336,315.443C301.184,315.179 301.108,314.863 301.108,314.495Z" style="fill-rule:nonzero;"/>
                <path d="M319.708,310.991L314.164,310.991C314.18,310.751 314.232,310.479 314.32,310.175C314.408,309.871 314.56,309.583 314.776,309.311C314.992,309.039 315.28,308.811 315.64,308.627C316,308.443 316.452,308.351 316.996,308.351C317.828,308.351 318.448,308.575 318.856,309.023C319.264,309.471 319.548,310.127 319.708,310.991ZM314.164,313.151L323.116,313.151C323.18,312.191 323.1,311.271 322.876,310.391C322.652,309.511 322.288,308.727 321.784,308.039C321.28,307.351 320.636,306.803 319.852,306.395C319.068,305.987 318.148,305.783 317.092,305.783C316.148,305.783 315.288,305.951 314.512,306.287C313.736,306.623 313.068,307.083 312.508,307.667C311.948,308.251 311.516,308.943 311.212,309.743C310.908,310.543 310.756,311.407 310.756,312.335C310.756,313.295 310.904,314.175 311.2,314.975C311.496,315.775 311.916,316.463 312.46,317.039C313.004,317.615 313.668,318.059 314.452,318.371C315.236,318.683 316.116,318.839 317.092,318.839C318.5,318.839 319.7,318.519 320.692,317.879C321.684,317.239 322.42,316.175 322.9,314.687L319.9,314.687C319.788,315.071 319.484,315.435 318.988,315.779C318.492,316.123 317.9,316.295 317.212,316.295C316.252,316.295 315.516,316.047 315.004,315.551C314.492,315.055 314.212,314.255 314.164,313.151Z" style="fill-rule:nonzero;"/>
                <path d="M325.132,306.119L325.132,318.527L328.54,318.527L328.54,312.935C328.54,312.375 328.596,311.855 328.708,311.375C328.82,310.895 329.008,310.475 329.272,310.115C329.536,309.755 329.884,309.471 330.316,309.263C330.748,309.055 331.276,308.951 331.9,308.951C332.108,308.951 332.324,308.963 332.548,308.987C332.772,309.011 332.964,309.039 333.124,309.071L333.124,305.903C332.852,305.823 332.604,305.783 332.38,305.783C331.948,305.783 331.532,305.847 331.132,305.975C330.732,306.103 330.356,306.283 330.004,306.515C329.652,306.747 329.34,307.027 329.068,307.355C328.796,307.683 328.58,308.039 328.42,308.423L328.372,308.423L328.372,306.119L325.132,306.119Z" style="fill-rule:nonzero;"/>
                <path d="M337.972,304.199L337.972,301.391L334.564,301.391L334.564,304.199L337.972,304.199ZM334.564,306.119L334.564,318.527L337.972,318.527L337.972,306.119L334.564,306.119Z" style="fill-rule:nonzero;"/>
                <path d="M341.404,308.399L341.404,318.527L344.812,318.527L344.812,308.399L347.164,308.399L347.164,306.119L344.812,306.119L344.812,305.375C344.812,304.863 344.912,304.499 345.112,304.283C345.312,304.067 345.644,303.959 346.108,303.959C346.54,303.959 346.956,303.983 347.356,304.031L347.356,301.487C347.068,301.471 346.772,301.451 346.468,301.427C346.164,301.403 345.86,301.391 345.556,301.391C344.164,301.391 343.124,301.743 342.436,302.447C341.748,303.151 341.404,304.055 341.404,305.159L341.404,306.119L339.364,306.119L339.364,308.399L341.404,308.399Z" style="fill-rule:nonzero;"/>
                <path d="M357.964,314.495L354.724,314.495C354.756,315.327 354.944,316.019 355.288,316.571C355.632,317.123 356.072,317.567 356.608,317.903C357.144,318.239 357.756,318.479 358.444,318.623C359.132,318.767 359.836,318.839 360.556,318.839C361.26,318.839 361.952,318.771 362.632,318.635C363.312,318.499 363.916,318.263 364.444,317.927C364.972,317.591 365.4,317.147 365.728,316.595C366.056,316.043 366.22,315.359 366.22,314.543C366.22,313.967 366.108,313.483 365.884,313.091C365.66,312.699 365.364,312.371 364.996,312.107C364.628,311.843 364.208,311.631 363.736,311.471C363.264,311.311 362.78,311.175 362.284,311.063C361.804,310.951 361.332,310.847 360.868,310.751C360.404,310.655 359.992,310.547 359.632,310.427C359.272,310.307 358.98,310.151 358.756,309.959C358.532,309.767 358.42,309.519 358.42,309.215C358.42,308.959 358.484,308.755 358.612,308.603C358.74,308.451 358.896,308.335 359.08,308.255C359.264,308.175 359.468,308.123 359.692,308.099C359.916,308.075 360.124,308.063 360.316,308.063C360.924,308.063 361.452,308.179 361.9,308.411C362.348,308.643 362.596,309.087 362.644,309.743L365.884,309.743C365.82,308.975 365.624,308.339 365.296,307.835C364.968,307.331 364.556,306.927 364.06,306.623C363.564,306.319 363,306.103 362.368,305.975C361.736,305.847 361.084,305.783 360.412,305.783C359.74,305.783 359.084,305.843 358.444,305.963C357.804,306.083 357.228,306.291 356.716,306.587C356.204,306.883 355.792,307.287 355.48,307.799C355.168,308.311 355.012,308.967 355.012,309.767C355.012,310.311 355.124,310.771 355.348,311.147C355.572,311.523 355.868,311.835 356.236,312.083C356.604,312.331 357.024,312.531 357.496,312.683C357.968,312.835 358.452,312.967 358.948,313.079C360.164,313.335 361.112,313.591 361.792,313.847C362.472,314.103 362.812,314.487 362.812,314.999C362.812,315.303 362.74,315.555 362.596,315.755C362.452,315.955 362.272,316.115 362.056,316.235C361.84,316.355 361.6,316.443 361.336,316.499C361.072,316.555 360.82,316.583 360.58,316.583C360.244,316.583 359.92,316.543 359.608,316.463C359.296,316.383 359.02,316.259 358.78,316.091C358.54,315.923 358.344,315.707 358.192,315.443C358.04,315.179 357.964,314.863 357.964,314.495Z" style="fill-rule:nonzero;"/>
                <path d="M372.532,306.119L372.532,302.399L369.124,302.399L369.124,306.119L367.06,306.119L367.06,308.399L369.124,308.399L369.124,315.719C369.124,316.343 369.228,316.847 369.436,317.231C369.644,317.615 369.928,317.911 370.288,318.119C370.648,318.327 371.064,318.467 371.536,318.539C372.008,318.611 372.508,318.647 373.036,318.647C373.372,318.647 373.716,318.639 374.068,318.623C374.42,318.607 374.74,318.575 375.028,318.527L375.028,315.887C374.868,315.919 374.7,315.943 374.524,315.959C374.348,315.975 374.164,315.983 373.972,315.983C373.396,315.983 373.012,315.887 372.82,315.695C372.628,315.503 372.532,315.119 372.532,314.543L372.532,308.399L375.028,308.399L375.028,306.119L372.532,306.119Z" style="fill-rule:nonzero;"/>
                <path d="M376.516,309.935L379.924,309.935C379.988,309.263 380.212,308.783 380.596,308.495C380.98,308.207 381.508,308.063 382.18,308.063C382.484,308.063 382.768,308.083 383.032,308.123C383.296,308.163 383.528,308.243 383.728,308.363C383.928,308.483 384.088,308.651 384.208,308.867C384.328,309.083 384.388,309.375 384.388,309.743C384.404,310.095 384.3,310.363 384.076,310.547C383.852,310.731 383.548,310.871 383.164,310.967C382.78,311.063 382.34,311.135 381.844,311.183C381.348,311.231 380.844,311.295 380.332,311.375C379.82,311.455 379.312,311.563 378.808,311.699C378.304,311.835 377.856,312.039 377.464,312.311C377.072,312.583 376.752,312.947 376.504,313.403C376.256,313.859 376.132,314.439 376.132,315.143C376.132,315.783 376.24,316.335 376.456,316.799C376.672,317.263 376.972,317.647 377.356,317.951C377.74,318.255 378.188,318.479 378.7,318.623C379.212,318.767 379.764,318.839 380.356,318.839C381.124,318.839 381.876,318.727 382.612,318.503C383.348,318.279 383.988,317.887 384.532,317.327C384.548,317.535 384.576,317.739 384.616,317.939C384.656,318.139 384.708,318.335 384.772,318.527L388.228,318.527C388.068,318.271 387.956,317.887 387.892,317.375C387.828,316.863 387.796,316.327 387.796,315.767L387.796,309.311C387.796,308.559 387.628,307.955 387.292,307.499C386.956,307.043 386.524,306.687 385.996,306.431C385.468,306.175 384.884,306.003 384.244,305.915C383.604,305.827 382.972,305.783 382.348,305.783C381.66,305.783 380.976,305.851 380.296,305.987C379.616,306.123 379.004,306.351 378.46,306.671C377.916,306.991 377.468,307.415 377.116,307.943C376.764,308.471 376.564,309.135 376.516,309.935ZM384.388,312.455L384.388,313.727C384.388,313.919 384.368,314.175 384.328,314.495C384.288,314.815 384.18,315.131 384.004,315.443C383.828,315.755 383.556,316.023 383.188,316.247C382.82,316.471 382.3,316.583 381.628,316.583C381.356,316.583 381.092,316.559 380.836,316.511C380.58,316.463 380.356,316.379 380.164,316.259C379.972,316.139 379.82,315.975 379.708,315.767C379.596,315.559 379.54,315.303 379.54,314.999C379.54,314.679 379.596,314.415 379.708,314.207C379.82,313.999 379.968,313.827 380.152,313.691C380.336,313.555 380.552,313.447 380.8,313.367C381.048,313.287 381.3,313.223 381.556,313.175C381.828,313.127 382.1,313.087 382.372,313.055C382.644,313.023 382.904,312.983 383.152,312.935C383.4,312.887 383.632,312.827 383.848,312.755C384.064,312.683 384.244,312.583 384.388,312.455Z" style="fill-rule:nonzero;"/>
                <path d="M394.756,306.119L394.756,302.399L391.348,302.399L391.348,306.119L389.284,306.119L389.284,308.399L391.348,308.399L391.348,315.719C391.348,316.343 391.452,316.847 391.66,317.231C391.868,317.615 392.152,317.911 392.512,318.119C392.872,318.327 393.288,318.467 393.76,318.539C394.232,318.611 394.732,318.647 395.26,318.647C395.596,318.647 395.94,318.639 396.292,318.623C396.644,318.607 396.964,318.575 397.252,318.527L397.252,315.887C397.092,315.919 396.924,315.943 396.748,315.959C396.572,315.975 396.388,315.983 396.196,315.983C395.62,315.983 395.236,315.887 395.044,315.695C394.852,315.503 394.756,315.119 394.756,314.543L394.756,308.399L397.252,308.399L397.252,306.119L394.756,306.119Z" style="fill-rule:nonzero;"/>
                <path d="M407.236,310.991L401.692,310.991C401.708,310.751 401.76,310.479 401.848,310.175C401.936,309.871 402.088,309.583 402.304,309.311C402.52,309.039 402.808,308.811 403.168,308.627C403.528,308.443 403.98,308.351 404.524,308.351C405.356,308.351 405.976,308.575 406.384,309.023C406.792,309.471 407.076,310.127 407.236,310.991ZM401.692,313.151L410.644,313.151C410.708,312.191 410.628,311.271 410.404,310.391C410.18,309.511 409.816,308.727 409.312,308.039C408.808,307.351 408.164,306.803 407.38,306.395C406.596,305.987 405.676,305.783 404.62,305.783C403.676,305.783 402.816,305.951 402.04,306.287C401.264,306.623 400.596,307.083 400.036,307.667C399.476,308.251 399.044,308.943 398.74,309.743C398.436,310.543 398.284,311.407 398.284,312.335C398.284,313.295 398.432,314.175 398.728,314.975C399.024,315.775 399.444,316.463 399.988,317.039C400.532,317.615 401.196,318.059 401.98,318.371C402.764,318.683 403.644,318.839 404.62,318.839C406.028,318.839 407.228,318.519 408.22,317.879C409.212,317.239 409.948,316.175 410.428,314.687L407.428,314.687C407.316,315.071 407.012,315.435 406.516,315.779C406.02,316.123 405.428,316.295 404.74,316.295C403.78,316.295 403.044,316.047 402.532,315.551C402.02,315.055 401.74,314.255 401.692,313.151Z" style="fill-rule:nonzero;"/>
                <path d="M412.756,306.119L412.756,318.527L416.164,318.527L416.164,311.327C416.164,310.719 416.252,310.227 416.428,309.851C416.604,309.475 416.816,309.187 417.064,308.987C417.312,308.787 417.568,308.651 417.832,308.579C418.096,308.507 418.308,308.471 418.468,308.471C419.012,308.471 419.424,308.563 419.704,308.747C419.984,308.931 420.184,309.175 420.304,309.479C420.424,309.783 420.492,310.115 420.508,310.475C420.524,310.835 420.532,311.199 420.532,311.567L420.532,318.527L423.94,318.527L423.94,311.615C423.94,311.231 423.968,310.851 424.024,310.475C424.08,310.099 424.192,309.763 424.36,309.467C424.528,309.171 424.76,308.931 425.056,308.747C425.352,308.563 425.74,308.471 426.22,308.471C426.7,308.471 427.08,308.551 427.36,308.711C427.64,308.871 427.852,309.087 427.996,309.359C428.14,309.631 428.228,309.951 428.26,310.319C428.292,310.687 428.308,311.079 428.308,311.495L428.308,318.527L431.716,318.527L431.716,310.223C431.716,309.423 431.604,308.739 431.38,308.171C431.156,307.603 430.844,307.143 430.444,306.791C430.044,306.439 429.564,306.183 429.004,306.023C428.444,305.863 427.836,305.783 427.18,305.783C426.316,305.783 425.568,305.991 424.936,306.407C424.304,306.823 423.804,307.303 423.436,307.847C423.1,307.079 422.608,306.543 421.96,306.239C421.312,305.935 420.596,305.783 419.812,305.783C418.996,305.783 418.272,305.959 417.64,306.311C417.008,306.663 416.468,307.159 416.02,307.799L415.972,307.799L415.972,306.119L412.756,306.119Z" style="fill-rule:nonzero;"/>
                <path d="M442.756,310.991L437.212,310.991C437.228,310.751 437.28,310.479 437.368,310.175C437.456,309.871 437.608,309.583 437.824,309.311C438.04,309.039 438.328,308.811 438.688,308.627C439.048,308.443 439.5,308.351 440.044,308.351C440.876,308.351 441.496,308.575 441.904,309.023C442.312,309.471 442.596,310.127 442.756,310.991ZM437.212,313.151L446.164,313.151C446.228,312.191 446.148,311.271 445.924,310.391C445.7,309.511 445.336,308.727 444.832,308.039C444.328,307.351 443.684,306.803 442.9,306.395C442.116,305.987 441.196,305.783 440.14,305.783C439.196,305.783 438.336,305.951 437.56,306.287C436.784,306.623 436.116,307.083 435.556,307.667C434.996,308.251 434.564,308.943 434.26,309.743C433.956,310.543 433.804,311.407 433.804,312.335C433.804,313.295 433.952,314.175 434.248,314.975C434.544,315.775 434.964,316.463 435.508,317.039C436.052,317.615 436.716,318.059 437.5,318.371C438.284,318.683 439.164,318.839 440.14,318.839C441.548,318.839 442.748,318.519 443.74,317.879C444.732,317.239 445.468,316.175 445.948,314.687L442.948,314.687C442.836,315.071 442.532,315.435 442.036,315.779C441.54,316.123 440.948,316.295 440.26,316.295C439.3,316.295 438.564,316.047 438.052,315.551C437.54,315.055 437.26,314.255 437.212,313.151Z" style="fill-rule:nonzero;"/>
                <path d="M448.18,306.119L448.18,318.527L451.588,318.527L451.588,312.023C451.588,310.759 451.796,309.851 452.212,309.299C452.628,308.747 453.3,308.471 454.228,308.471C455.044,308.471 455.612,308.723 455.932,309.227C456.252,309.731 456.412,310.495 456.412,311.519L456.412,318.527L459.82,318.527L459.82,310.895C459.82,310.127 459.752,309.427 459.616,308.795C459.48,308.163 459.244,307.627 458.908,307.187C458.572,306.747 458.112,306.403 457.528,306.155C456.944,305.907 456.196,305.783 455.284,305.783C454.564,305.783 453.86,305.947 453.172,306.275C452.484,306.603 451.924,307.127 451.492,307.847L451.42,307.847L451.42,306.119L448.18,306.119Z" style="fill-rule:nonzero;"/>
                <path d="M466.732,306.119L466.732,302.399L463.324,302.399L463.324,306.119L461.26,306.119L461.26,308.399L463.324,308.399L463.324,315.719C463.324,316.343 463.428,316.847 463.636,317.231C463.844,317.615 464.128,317.911 464.488,318.119C464.848,318.327 465.264,318.467 465.736,318.539C466.208,318.611 466.708,318.647 467.236,318.647C467.572,318.647 467.916,318.639 468.268,318.623C468.62,318.607 468.94,318.575 469.228,318.527L469.228,315.887C469.068,315.919 468.9,315.943 468.724,315.959C468.548,315.975 468.364,315.983 468.172,315.983C467.596,315.983 467.212,315.887 467.02,315.695C466.828,315.503 466.732,315.119 466.732,314.543L466.732,308.399L469.228,308.399L469.228,306.119L466.732,306.119Z" style="fill-rule:nonzero;"/>
                <rect x="471.004" y="314.831" width="3.768" height="3.696" style="fill-rule:nonzero;"/>
            </g>
        </g>
    </g>
</svg>
